<svg id="Layer_1" data-name="Layer 1" xmlns="http://www.w3.org/2000/svg" viewBox="0 0 1226.79 376.75"><path d="M381.06,92c5.7-14.94,16.07-23.43,32.4-23.7,16.61-.27,26.48,8.94,32.49,23.14,2.19-3.5,4-7.18,6.54-10.29,7.73-9.51,18.13-13.31,30.13-12.73,10.89.53,20.05,4.84,26.75,13.71,3.72,4.92,5.36,10.64,5.94,16.66.42,4.3.61,8.65.61,13q0,44.94-.18,89.87c0,4.63-1.5,6.13-6.13,6.13H487.28c-4,0-5.67-1.67-5.67-5.67,0-27.09.06-54.18,0-81.27a48,48,0,0,0-1-10.16c-1.47-6.6-5.72-9.9-12.46-10.24-9.15-.46-16.29,5-17.87,14.29a94.16,94.16,0,0,0-1.19,15.47c-.12,23.79,0,47.59,0,71.39,0,4.6-1.57,6.19-6.11,6.19H420.6c-4.11,0-5.79-1.66-5.79-5.77,0-24.95.14-49.9,0-74.86a82.15,82.15,0,0,0-1.38-15.43c-1.48-7.45-6-11.18-12.86-11.6-7.57-.47-13.2,2.77-15.58,9.79a44.87,44.87,0,0,0-2.47,12.84c-.4,12.44-.32,24.89-.36,37.33,0,13.91,0,27.83,0,41.74,0,4.4-1.54,6-5.93,6H353.75c-4.11,0-5.72-1.64-5.72-5.8V77c0-4.27,1.59-5.88,5.82-5.89q10.61,0,21.23,0c3.86,0,5.53,1.71,5.53,5.61,0,5,0,10.08,0,15.12Z"/><path d="M611.18,121.29c-.24-5.05-.14-10-.79-14.75-1-7.53-6-11.84-14.26-12.81s-18.43,2.5-21.63,12.69c-.35,1.11-.56,2.26-1,3.33-.93,2.45-2.52,3.45-5.08,3.19-7.41-.76-14.81-1.52-22.2-2.34-3.59-.4-5.12-2.62-4.39-6.1,3.3-15.86,12.63-26.77,27.65-32.44,17.19-6.48,34.7-7,52.07-.62,15.34,5.6,23.32,16.93,24,33.14.43,9.87.3,19.76.36,29.65,0,8.9.09,17.81,0,26.72a30.23,30.23,0,0,0,6.11,19c1.17,1.56,2.37,3.11,3.43,4.74,1.85,2.84,1.51,4.84-1,7l-17.16,14.85c-3.39,2.93-5.45,2.91-8.8.07a52.88,52.88,0,0,1-9.92-11.19c-.83-1.26-1.7-2.51-2.63-3.89-1.73,1.63-3.34,3.18-5,4.69-6.83,6.25-14.49,10.95-23.8,12.41-8.32,1.31-16.64,1.66-24.84-.78-11.21-3.34-18.82-10.56-22.44-21.68a48.09,48.09,0,0,1,.19-31.1c4.62-13.45,14.45-21.66,27.48-26.42,8.6-3.14,17.59-4.43,26.62-5.49C599.69,122.5,605.21,121.94,611.18,121.29Zm-.2,20.06c-9.2.09-18.08.58-26.11,5.07a20.37,20.37,0,0,0-6.13,5.08c-5.73,7.39-6.23,15.71-3,24.21,2.28,6,7.79,9.13,14.23,8.72A18,18,0,0,0,601,179.75a28.47,28.47,0,0,0,8.4-14.09C611.62,157.77,610.77,149.68,611,141.35Z"/><path d="M289.2,191.58c-2.68,2.42-5.17,4.75-7.75,7-8.48,7.32-18.44,10.67-29.55,11-5.57.15-11.09-.07-16.47-1.72-11-3.36-18.52-10.37-22.17-21.25a47.41,47.41,0,0,1,.65-33.13c5.25-13.43,15.7-21.19,29-25.53,9-2.92,18.3-4.07,27.63-5.12,4.48-.5,9-1,13.63-1.46-.07-5.94.56-11.81-1.25-17.49-2-6.19-7-9.79-14.55-10.21-8.94-.51-18.76,3.51-21.32,14.94-.8,3.59-2.42,4.68-6,4.33q-10.83-1.08-21.65-2.29c-3.5-.39-5.05-2.57-4.37-5.94,3-15,11.54-25.88,25.66-31.73,18.51-7.67,37.4-8.21,56.09-.64,13.68,5.54,20.82,16.17,21.9,30.83.34,4.61.42,9.26.43,13.89.05,14.39.09,28.79,0,43.18a31.67,31.67,0,0,0,6.7,20.43,52.63,52.63,0,0,1,3.08,4.31c1.62,2.57,1.26,4.62-1,6.61q-8.78,7.61-17.56,15.21c-3.05,2.64-5.36,2.61-8.4,0a53.12,53.12,0,0,1-10.06-11.31C291,194.18,290.14,192.94,289.2,191.58Zm-5-50c-4.51-.55-14,.39-19.09,2a37.92,37.92,0,0,0-6.6,2.61c-10.86,5.77-15,21-8.65,31.56a13.13,13.13,0,0,0,9.66,6.53A17.22,17.22,0,0,0,273,180.77a26.58,26.58,0,0,0,8.81-12.54C285,159.58,284,150.57,284.24,141.54Z"/><path d="M946.51,94c1.35-2.71,2.59-5.48,4.06-8.13,4-7.13,9.29-12.85,17.27-15.52,11.79-3.94,28.68-2.61,38.62,8.81A34.44,34.44,0,0,1,1014.63,98a177.36,177.36,0,0,1,1.47,20.59c.17,28,.08,56,.07,84,0,3.3-1.73,5.18-5,5.2q-12.17.08-24.34,0c-3.14,0-4.85-1.89-4.85-5.15,0-24.1.11-48.2,0-72.3,0-6-.78-12-1.29-18a12.92,12.92,0,0,0-.89-3.15c-3.74-10.75-15.42-11-21.49-6.77-4.7,3.28-6.9,8.08-8.36,13.35A60.48,60.48,0,0,0,948,132q0,34.59,0,69.19c0,5.07-1.49,6.58-6.49,6.58h-22c-4.08,0-5.78-1.7-5.78-5.78q0-62.79,0-125.57c0-3.53,1.75-5.34,5.25-5.35q11.07,0,22.15,0c3.31,0,5,1.8,5,5.13V93.94Z"/><path d="M782.11,139c0-14.63,2.38-28.77,9.25-41.87,7.34-14,18.24-23.85,33.89-27.3,25-5.52,49.59,3.77,62,30.94,6.39,14,8.37,28.82,7.75,44.06s-4.44,29.59-13.15,42.36c-17,24.94-46.53,28-67,18-10.66-5.19-18.17-13.57-23.53-24-6.33-12.28-8.85-25.46-9.21-39.15C782.09,141.1,782.11,140.07,782.11,139Zm36.73-1.61-.46,0c.64,7.89,1.11,15.8,2,23.67a36.78,36.78,0,0,0,5.19,15.67,14.7,14.7,0,0,0,8.54,6.76c7.69,2.15,15.13-1.39,19.1-9.14a45.27,45.27,0,0,0,4.4-16.7,176,176,0,0,0-.68-40.71A49.07,49.07,0,0,0,853,102.8c-4.9-10.43-20.72-10.75-26.78-2.75a30.18,30.18,0,0,0-5.16,11.2C818.92,119.85,818.77,128.63,818.84,137.42Z"/><path d="M536.68,309.86a317.74,317.74,0,0,1-101.49-16.62,309.65,309.65,0,0,1-102.27-58c-2.18-1.86-4.33-3.76-6.47-5.67a8.47,8.47,0,0,1-1.69-1.9,3.6,3.6,0,0,1,4.12-5.52,15.43,15.43,0,0,1,3.14,1.46,413.62,413.62,0,0,0,112.22,44,428.7,428.7,0,0,0,65.52,10.13,402.34,402.34,0,0,0,61.42.2A422.51,422.51,0,0,0,702,246.73a16.63,16.63,0,0,1,5.78-1.34,5.7,5.7,0,0,1,5.69,3.85,5.52,5.52,0,0,1-1.71,6.46,61.36,61.36,0,0,1-6.11,4.64C685,274.58,662.57,285,638.88,293a329.55,329.55,0,0,1-64.6,14.57A301,301,0,0,1,536.68,309.86Z"/><path d="M719.47,162.51c7.69.79,15.36,1.32,22.94,2.44a69.88,69.88,0,0,1,22.53,7.76,9,9,0,0,1,5.14,8.57q0,8.79,0,17.57c0,.31,0,.61,0,.92-.29,3.73-3.41,5.54-6.74,3.85A91.46,91.46,0,0,0,734,194.48a92.91,92.91,0,0,0-55.92,9.3,4.16,4.16,0,0,1-6.3-2.95,6.32,6.32,0,0,1-.11-1.45c0-6.65,0-13.3,0-19.95a20.59,20.59,0,0,1,3.85-12q23.3-33.25,46.48-66.61c.53-.75,1-1.5,1.8-2.61H682.14c-4.28,0-5.8-1.53-5.81-5.85,0-5.43,0-10.86,0-16.29,0-3.76,1.6-5.34,5.35-5.34q40.17,0,80.35,0c3.94,0,5.55,1.61,5.55,5.55s-.16,8.06.06,12.08a14.13,14.13,0,0,1-2.75,9.08q-6.24,9-12.55,18-16,22.85-32,45.7C720,161.7,719.64,162.26,719.47,162.51Z"/><path d="M708.05,229.78q-15.93,1.47-31.86,3c-1.77.17-3.62.62-4.64-1.42-.64-1.28.33-3.16,2.29-4.56A63.81,63.81,0,0,1,695,217.05c15.89-4.15,31.9-5,47.93-.93,7.24,1.82,8.62,3.72,8.54,11.17-.13,13.08-3.65,25.39-9,37.22-4.43,9.83-10.27,18.69-18.53,25.78a10,10,0,0,1-3.6,2c-2.18.63-3.59-.87-3.1-3.08A15.15,15.15,0,0,1,718,287c4.58-11.62,9.28-23.2,12-35.45a64.41,64.41,0,0,0,1.36-11.75c.13-4.3-1.67-6.44-5.83-7.79-5.35-1.72-10.93-1.69-16.47-1.82h-.92Z"/></svg>