<svg xmlns="http://www.w3.org/2000/svg" viewBox="0 0 269.59 38"><defs><style>.a{fill:#bebebf;}</style></defs><title>clinet_HW-inactive</title><path class="a" d="M131.17,0h9.5l7.65,23.65.45,0L156.5,0h9.05c-1.67,5.14-3.31,10.3-5,15.43C158,23,155.43,30.48,152.88,38h-9c-1.63-5.13-3.25-10.27-4.9-15.4-.93-2.91-1.92-5.81-3-9.16-.37,1-.56,1.48-.73,2L127.55,38h-9q-2.62-8.22-5.25-16.45-3.47-10.77-7-21.55h9c2.53,7.9,5.07,15.8,7.81,24.34C126,15.77,128.57,7.88,131.17,0Z"/><path class="a" d="M205.81,0h20.81c.47.18.94.38,1.43.52a12.36,12.36,0,0,1,8.45,15.26,12.54,12.54,0,0,1-8,8.39l1.9,2.91L237.48,38H227.07c-2.26-3.53-4.67-7-6.71-10.62-1.39-2.47-3.15-3.16-6-2.35V38h-8.59Zm8.7,16.24c3.49,0,6.73.06,10,0a3.94,3.94,0,0,0,3.92-3.63,3.75,3.75,0,0,0-3.29-3.93c-3.5-.14-7,0-10.59,0Z"/><path class="a" d="M21.24,0h8.6V38h-8.6V17.23c-1.45,2.08-2.61,3.61-3.61,5.23a2.72,2.72,0,0,1-2.74,1.44c-2-.11-4,0-6.31,0V38H0V0H8.58V15.19H21.24Z"/><path class="a" d="M48.84,0h9.5L71,38H62c-.14-.35-.28-.7-.41-1-.64-1.83-.78-4.34-2.07-5.3s-3.73-.24-5.64-.5A2.72,2.72,0,0,1,52,29.81c-.74-1.6-1.21-3.33-2-5.56-1.58,5-3,9.36-4.36,13.75H36.62c2.19-6.75,4.4-13.5,6.57-20.25C45.09,11.84,47,5.92,48.84,0Zm7.94,22.54-3.07-9.28-3,9.28Z"/><path class="a" d="M81.86,38c0-5.34.07-10.68-.08-16a8,8,0,0,0-1.21-3.91C76.7,12,72.7,6,68.74,0H79.15l7,11c2.52-3.93,4.79-7.45,7-11h10.4c-4,6.07-8.07,12.11-12,18.23a7.18,7.18,0,0,0-1.07,3.52c-.11,5.41,0,10.83,0,16.25Z"/><path class="a" d="M180.93,38c0-5.26.06-10.53-.09-15.79a8.44,8.44,0,0,0-1.23-4.13c-3.48-5.44-7.13-10.76-10.71-16.14-.41-.61-.73-1.29-1.09-1.94h10.41l6.93,11c2.54-3.94,4.81-7.47,7.09-11h10.4c-4,6-8,12-11.89,18.05A7.94,7.94,0,0,0,189.58,22c-.13,5.34-.06,10.69-.06,16Z"/><path class="a" d="M242.45,38V29.55h25.79V38Z"/><path class="a" d="M269.59.45c-1,2.23-2,4.49-3.11,6.67-.31.6-1.05,1.4-1.6,1.41-7.2.1-14.41.06-22,.06V0c8.37,0,16.74,0,25.11,0A6.09,6.09,0,0,1,269.59.45Z"/><path class="a" d="M242.6,14.89h22.92v8.18H242.6Z"/><path class="a" d="M56.78,22.54H50.69"/></svg>