<svg id="Layer_1" data-name="Layer 1" xmlns="http://www.w3.org/2000/svg" viewBox="0 0 1226.79 376.75"><path d="M934.45,194.24c.31-.33.61-.51.69-.77,1.65-4.89,5.15-5.87,10-5.5,5.89.44,11.84.1,18.34.1-.84,1.58-1.38,2.66-2,3.71q-22,38.55-43.91,77.1a149.83,149.83,0,0,0-7.23,14.93c-.58,1.35.14,3.25.26,4.89,1.64-.19,3.59.12,4.88-.66,9.95-6,17.17-14.87,23.91-24.12,3-4.14,6-8.32,8.67-12.69,1.59-2.62,3.37-4,6.5-3.48a22.86,22.86,0,0,0,3.63,0,5.23,5.23,0,0,1-.34,1.34c-11.07,17.56-23.1,34.37-38.22,48.77a75.74,75.74,0,0,1-20.19,13.61,23.8,23.8,0,0,1-5.65,1.78c-7,1.32-12.35-2.3-13.39-9.35-.48-3.25-.08-6.63-.08-10.72-1.17,1.08-1.91,1.82-2.71,2.47-5.7,4.57-11.24,9.36-17.19,13.58a23.49,23.49,0,0,1-9.17,3.76c-9.44,1.76-16.29-3.45-17.3-13-.4-3.81-.07-7.69-.07-12.3-1.1,1.21-1.78,1.9-2.4,2.63-6.42,7.5-13.15,14.65-21.83,19.62-3.95,2.26-8.13,4-12.8,3.42C789.6,312.52,784,306,783,297.68c-1.1-9.15,1-17.9,3.49-26.55,2.25-7.71,4.85-15.33,7.29-23,.3-1,.56-1.95.92-3.16-4.54.51-8.78.85-13,1.56-.93.16-1.86,1.49-2.44,2.49-7.25,12.5-15,24.66-24.38,35.69-8.27,9.72-17.54,18.26-28.8,24.41a38.9,38.9,0,0,1-7.77,3.27c-12.79,3.67-22-3.07-22.62-16.43-.52-10.46,1.89-20.38,5.76-29.94,10.61-26.24,26.45-48.83,48.12-67.13,7.47-6.3,15.81-11.38,25.57-13.44,11.84-2.48,19.63,3.65,20.21,15.81.43,9-2.06,17.37-5.38,25.56-1.53,3.76-3.21,7.47-4.83,11.2,4.81,1.85,13-1.28,15.21-5.78,16.75-34.63,36-67.72,59.76-98.1,16.55-21.2,34.91-40.64,56.05-57.3a101.05,101.05,0,0,1,17.7-11.2,37.61,37.61,0,0,1,13.78-3.4c5.31-.38,8.09,3,8.54,8.35.76,8.89-2.68,16.57-6.76,24.07a3,3,0,0,1-1.65,1.23c-2.28.67-4.59,1.19-7.54,1.93,2-4.13,4-7.55,5.36-11.22a63.88,63.88,0,0,0,3.07-11.69c.43-2.61-1.28-3.86-3.69-2.79a38.11,38.11,0,0,0-8.62,5,247.09,247.09,0,0,0-39.19,40.51,624,624,0,0,0-59.65,94.57,13.55,13.55,0,0,0-1.55,4.7,25.4,25.4,0,0,0,3.73-2.27c10.83-9.51,22-18.71,32.33-28.73A438.7,438.7,0,0,0,918,134c.85-1.13,2.62-1.76,4.08-2.18a33.6,33.6,0,0,1,5.63-.56c-.95,1.5-1.61,2.71-2.43,3.81-27,36.45-57.68,69.23-94.61,95.89a16.21,16.21,0,0,0-5,6.09c-6.26,13.49-11.66,27.3-14,42.09a19.76,19.76,0,0,0,.38,7.42c.92,3.81,4.63,5.38,7.83,3.15a39.14,39.14,0,0,0,8.81-7.9c5.74-7.44,11.23-15.1,16.37-23,11.32-17.35,22.49-34.78,36.87-49.87a117.21,117.21,0,0,1,23.66-19.5,27.73,27.73,0,0,1,14.52-4.38c4.52,0,8.4,1.4,11.18,5.2C932.27,191.63,933.37,192.89,934.45,194.24ZM864.9,283.11c-.25,4.8,2.78,7,7.25,5.18a12,12,0,0,0,4.42-2.88c5-5.75,10.45-11.22,14.43-17.61,11.21-18,21.76-36.39,32.57-54.63a94.22,94.22,0,0,0,4.89-8.38c.65-1.41.89-3.7.16-4.84s-3-1.89-4.47-1.79a10.18,10.18,0,0,0-5.41,2.11,140.44,140.44,0,0,0-12.62,11.24c-13.37,13.9-23.42,30.2-32.79,46.89C869.05,266,865.33,274.06,864.9,283.11Zm-113.66-56.7c.11-.08-.19.05-.37.28C741.44,239.27,733,252.48,728,267.48a43.77,43.77,0,0,0-2.09,13.79c0,5.76,4.9,8.9,10.27,6.78a32.44,32.44,0,0,0,9.25-5.65c10.29-9,17.87-20.08,24.49-31.9,1-1.79,1.87-3.66,2.7-5.28-4.15-2.84-8.29-5.15-11.78-8.21S754.57,230.14,751.24,226.41Zm36.14-17.61c.07-11.55-5.16-15.56-12.66-11.25a34.87,34.87,0,0,0-10.56,9c-9,12.09-1,26.05,11.23,30.2a2.49,2.49,0,0,0,2.26-.7C782.61,226.89,787,217.45,787.38,208.8Z"/><path d="M583.32,187c-3.63,5.14-6.8,9.77-10.12,14.29C561.67,217,549.27,232,533.34,243.57c-4.51,3.28-9.27,6.13-15,6.8-7.84.92-13.15-3.64-13.39-11.59-.07-2.29.19-4.58.33-7.63-1.16,1.13-1.94,1.84-2.67,2.59-5.88,6-12.11,11.61-20,14.84a29.37,29.37,0,0,1-7.84,2.06c-8.6,1-15.37-4.87-15.58-13.72-.1-4.33.85-8.7,1.45-13a33.93,33.93,0,0,0,.83-5.77c-.79.72-1.56,1.45-2.36,2.15-7.41,6.61-14.6,13.49-22.32,19.72a49.09,49.09,0,0,1-23.2,10.39c-16.3,2.67-25.58-7.58-27.46-22.31-1.58-12.3,2.63-23,7.42-33.77,2.51-5.61,5.43-11,8.43-17.08-4.26,1-8.18,1.81-12,2.91-.8.23-1.34,1.51-1.9,2.38-6.25,9.77-12,19.93-18.86,29.23-9.56,12.9-20.55,24.59-34.45,33A46.87,46.87,0,0,1,324,249.63c-12.08,3.6-21.2-2.47-23.13-14.89-1.6-10.35.34-20.3,3.88-29.85a153.64,153.64,0,0,1,58.2-74.74,45,45,0,0,1,19.25-8c12.24-1.72,20,4.93,20.16,17.42.11,8.83-2.57,17.09-5.74,25.2l-2,5.17.51.79a53.62,53.62,0,0,0,6.78-2.46c9.39-4.87,17.07-11.91,24.69-19.14,7.34-7,15-13.64,22.91-19.93a35.29,35.29,0,0,1,18.74-7.33c13.17-1.31,21.8,7.65,19.71,20.74a39.48,39.48,0,0,1-10.83,21.49,19,19,0,0,1-5.25,3.88c-5.14,2.53-9.78-.4-10-6.13-.31-6.91,7.54-17.57,14.59-17.82,2.22-.08,4.13-.46,4.17-3.39s-.73-5.5-3.76-6a12,12,0,0,0-6.95.66,42.69,42.69,0,0,0-9.9,6.45c-20.72,18.48-34.43,41.59-43.25,67.65-1.41,4.17-1.41,9.12-.88,13.57.83,7.09,6.51,10.43,13.51,8.74,6.82-1.64,12.33-5.59,17.39-10.21,13-11.91,24-25.66,34.09-40.08,10-14.25,20.3-28.24,33.1-40.1a148.74,148.74,0,0,1,18.76-14.57c3.45-2.29,7.79-3.54,11.9-4.45,6-1.34,11.09.92,14.9,5.83.37.48.8.93,1.17,1.36.3-.09.59-.09.63-.19,1.45-3.56,4.17-4.22,7.76-4.05,6.33.29,12.68.08,19.61.08-.79,1.47-1.3,2.45-1.85,3.41q-24.87,43.2-49.74,86.42a19,19,0,0,0-2.33,5.42,4.88,4.88,0,0,0,1,3.91c.65.65,2.75.62,3.67,0,3.35-2.09,7-4.09,9.58-6.95,7.89-8.64,15.54-17.51,22.86-26.63,2.33-2.91,4.48-4.62,8.19-4A24.57,24.57,0,0,0,583.32,187Zm-93.8,33.41c.34,3.86,2.92,6.46,6.27,5.82a9.9,9.9,0,0,0,3.11-1.41,46.69,46.69,0,0,0,15.79-16.28c13.66-22.86,27-45.87,40.56-68.82,1.46-2.47.35-4.31-1.88-4.89a8.57,8.57,0,0,0-6,.49A46.39,46.39,0,0,0,537,143.11c-5.17,5.58-9.82,11.67-14.5,17.69-10.92,14-21.07,28.61-28,45.14C492.57,210.63,491.18,215.56,489.52,220.38Zm-132-58.7a5.86,5.86,0,0,0-.95.77c-7.62,10.89-15.12,21.9-20,34.33a111.67,111.67,0,0,0-5,18.62,8.28,8.28,0,0,0,3.87,9c3.39,2,7.11,1,10-1.16a105.34,105.34,0,0,0,12.33-10.56c8.89-9.15,15.17-20.19,21.66-31.05a14.81,14.81,0,0,0,.94-2.65C370.56,175.83,362.46,170.85,357.5,161.68Zm36-17.58c0-.34-.1-1.18-.19-2-.82-7.53-5.22-10.5-12.18-7.52-8,3.41-13.26,9.57-14.54,18.27a14.72,14.72,0,0,0,1.83,8.88c3.23,5.54,8.64,8.31,15,9a2.8,2.8,0,0,0,2.31-.91C389.51,161.81,393.18,153.71,393.5,144.1Z"/><path d="M889.36,94.08c-6.45,7-12.3,13.39-18.28,19.66a3.15,3.15,0,0,1-2.91.1c-3.92-2.19-7.74-4.56-11.56-6.93C844.1,99.12,831.79,91,819.06,83.6a71.13,71.13,0,0,0-25-8.79,35.64,35.64,0,0,0-5.93-.35c-5.91.09-6.51.69-6.39,6.59.24,10.91-2.82,21.06-7,31-6.83,16.25-16.47,30.58-30.21,41.73a52.53,52.53,0,0,1-14.75,8c-10.08,3.73-17.67-1.76-18.36-12.53-.38-6,1.37-11.56,3.61-17,10.09-24.57,27.37-43,49.14-57.58,1.29-.87,2.61-1.68,4-2.57a13.66,13.66,0,0,0-12-.89A129.84,129.84,0,0,0,737,80.33c-17.92,10.77-32.93,25-46.69,40.63-22.08,25-41.57,51.89-56.59,81.81-9.69,19.3-16.64,39.45-18.6,61.09a34.61,34.61,0,0,0,2.27,16.32c4.56,11.29,15.28,16.24,26.87,12.47a51.1,51.1,0,0,0,18.15-10.93c19.08-17,33.1-37.34,39.21-62.47A48.15,48.15,0,0,0,702.68,205c-.44-6.46-4.52-8.85-10.54-6.34a24.34,24.34,0,0,0-8.13,5.63c-8.67,9.19-13.88,20.25-16.64,32.54a5,5,0,0,1-2,3.13,107.08,107.08,0,0,0-30.21,23.17,6.81,6.81,0,0,1-1.25.6c1.22-6.19,2-12,3.54-17.66,4.83-18.05,12.45-34.62,26.8-47.3,7.66-6.77,16.34-11.56,26.55-13.32,9.29-1.6,16,2.51,18.61,11.6,2.49,8.66,1.34,17.27-.86,25.71-5,19-14.71,35.67-26.78,51-11.27,14.28-24.45,26.56-40.95,34.48-13.46,6.46-27.53,8.36-41-.29-10.31-6.61-15.42-16.78-17.7-28.49-2.67-13.77-1-27.24,2.89-40.58,10.08-34.7,28.4-65,50.23-93.32,19.33-25.06,41.24-47.61,68-65,14.19-9.21,29.24-16.73,46-20,9.62-1.91,19-1.33,26.9,5.7.6.54,2.1.42,3.06.15,6.64-1.81,13.14-4.35,19.88-5.52,15.44-2.7,30.28,0,44,7.39C858.56,76.51,873.74,85.33,889.36,94.08ZM774.43,79.29l-1.19-.38c-1.19.63-2.41,1.21-3.56,1.9-21.8,13.18-37.42,31.83-47.91,54.83A34.56,34.56,0,0,0,719,147.71c-.31,5.34,4.27,8.45,9.37,6.66a28.72,28.72,0,0,0,7.68-4.11c19.83-14.84,32.24-34.41,36.9-58.77C773.73,87.47,774,83.36,774.43,79.29Z"/><path d="M559.38,317.51a121.17,121.17,0,0,0-42.16-16.08A75,75,0,0,0,491,301.2c-10.19,1.82-18,7.52-23.79,16.17-.33-.28-.6-.42-.73-.64-9.3-15.58-23.77-23-41.08-25.67-20.65-3.23-40.83,0-60.87,4.78-20.93,4.94-41.8,10.2-62.78,14.9-14,3.13-28.13,4.38-42.22.39-23.15-6.55-37.15-21.59-41.52-45.32-3.66-19.84-.62-39.15,5.3-58.11C233.5,175.09,251.4,147,274,121.6a243.74,243.74,0,0,1,46.17-40.89c14.81-9.94,30.54-18.29,48.56-20.8,5.1-.7,10.61-1.09,15.52.07,11.39,2.71,16.68,13.67,13.58,26.35a47.78,47.78,0,0,1-10.1,19.27,13.74,13.74,0,0,1-10.95,5.27c-3.32,0-5.37-1.87-6.23-5.09-2.3-8.56,7-21.94,15.65-21.79,2.94.05,3.8-1.49,4-4,.36-6-3.69-9.56-10.37-8.95-6.93.63-13.06,3.58-19.07,6.76-10.73,5.68-19.95,13.4-28.52,21.89-25.38,25.15-46.58,53.39-62.52,85.42a188,188,0,0,0-17.43,52.13,78.24,78.24,0,0,0,.32,28.7c3.35,16.76,14.44,26,30,30.92a63.8,63.8,0,0,0,33.19,1.42c27.24-5.9,54.37-12.33,81.49-18.76,20-4.74,40-8.59,60.62-9.16,28.37-.78,53.92,6.81,76.16,24.66,7.25,5.82,14.28,11.92,21.33,18A46.88,46.88,0,0,1,559.38,317.51Z"/><path d="M1010.37,62c-1.8,3-3.49,6.07-5.42,9-17.53,26.46-40.81,45.34-71.77,53.88a71.53,71.53,0,0,1-36,.83,15.16,15.16,0,0,1,1.25-2.14c5-6.06,9.92-12.13,15-18.12a4.1,4.1,0,0,1,2.8-1.49C942.42,106,965,96.4,985.8,81.83c7.66-5.37,14.49-11.94,21.69-18,.83-.7,1.58-1.48,2.37-2.23Z"/><path d="M630.54,125.34c-4.42,7.17-8.44,13.74-12.52,20.26a2.55,2.55,0,0,1-1.63,1.2c-7.35.08-14.7,0-22.69,0,4.48-7.28,8.59-14,12.79-20.68a2.48,2.48,0,0,1,1.83-.8C615.5,125.32,622.68,125.34,630.54,125.34Z"/></svg>