<?xml version="1.0" encoding="utf-8"?>
<!-- Generator: Adobe Illustrator 25.3.1, SVG Export Plug-In . SVG Version: 6.00 Build 0)  -->
<svg version="1.1" id="Layer_1" xmlns="http://www.w3.org/2000/svg" xmlns:xlink="http://www.w3.org/1999/xlink" x="0px" y="0px"
	 viewBox="0 0 1226.8 376.7" style="enable-background:new 0 0 1226.8 376.7;" xml:space="preserve">
<style type="text/css">
	.st0{fill:#FFFFFF;}
</style>
<g>
	<path d="M380.4,94.1c9.9,2.2,37.1,12.1,51.3,28.9c-8.5,9.7-17.1,19.5-25.6,29.3c-35-25.5-63.9-26.9-85.1-4.7
		c-20.5,21.4-21.2,56.9-1.7,80.2c20.1,24,46.4,23.2,88.1-2.6c8.3,8.2,16.6,16.3,25.5,25.2c-14.8,17.5-33.2,27.8-55.7,31.8
		c-39.8,7.1-79.2-8.6-99.8-40.2c-21.3-32.6-20.4-76.9,2.1-108.9c14.9-21.3,36.4-32.2,60.8-38.9C353.9,91.3,370.5,91.9,380.4,94.1z"
		/>
	<path d="M964.7,136.2c-18.4,0-36.8,0-56.4,0c0,48.4,0,96.1,0,144.2c-14.1,0-26.9,0-41.2,0c0-47.7,0-95.3,0-143.9c-19,0-36.5,0-55,0
		c0-12.7,0-24.4,0-37.7c50.8,0,101.7,0,152.6,0C964.7,111.3,964.7,123.7,964.7,136.2z"/>
	<path d="M587.7,99.1c14.5,0,27,0,41.2,0c0,4,0,7.8,0,11.5c0,31.1,0.1,62.2,0,93.3c-0.2,30.8-9.2,58-39.6,71
		c-33.1,14.1-66.8,13.6-96.9-8.9c-17.5-13.1-23.8-32.9-24.3-53.6c-0.9-37.3-0.3-74.6-0.3-112.8c13.3,0,26.4,0,40.9,0
		c0,4.5,0,9.1,0,13.7c0.3,32.3-0.3,64.6,1.1,96.8c1.1,23.6,16.9,36.2,40.8,35.4c22.3-0.7,36.6-15.2,36.9-38.5
		c0.4-31.5,0.1-63,0.1-94.5C587.7,108.3,587.7,104.1,587.7,99.1z"/>
	<path d="M808.2,280.4c-44.6,0-88,0-132.2,0c0-60.2,0-119.9,0-180.6c12.9,0,25.9,0,40.4,0c0,47.1,0,94.7,0,143.7
		c31.3,0,61.2,0,91.7,0C808.2,256.4,808.2,267.8,808.2,280.4z"/>
</g>
</svg>
