<svg id="Layer_1" data-name="Layer 1" xmlns="http://www.w3.org/2000/svg" viewBox="0 0 1226.79 376.75"><path d="M801.93,147.15H419.68c0-.37,0-.71,0-1.05.65-7.69,1.63-15.32,4.05-22.68A44.5,44.5,0,0,1,442.47,99.5c4.82-3.13,10.21-4.65,15.67-6a25.8,25.8,0,0,1,6.44-.71q148.16,0,296.31,0A88.2,88.2,0,0,1,775.4,94,35.09,35.09,0,0,1,787,98.53a27.6,27.6,0,0,1,11.85,13.7,39.62,39.62,0,0,1,3.46,16.86c-.16,5.48-.17,11-.26,16.43C802,146,802,146.54,801.93,147.15Z"/><path d="M404.1,283.62c2.62-17,5.21-33.68,7.83-50.58H536.31c.84-7.22,1.67-14.27,2.52-21.53-.77,0-1.41-.09-2.06-.09H458.58c-2.43,0-4.85.12-7.28.14a37.84,37.84,0,0,1-23.72-8.16A25.68,25.68,0,0,1,418,188.3a48.74,48.74,0,0,1-1.41-14.44c.12-2,.21-3.9.33-6H570.44a67.86,67.86,0,0,1,13.85,1.46c6.66,1.39,11.32,5.36,14.46,11.18a28.23,28.23,0,0,1,3.68,15c-.29,5.88-.59,11.77-1.1,17.63s-1.22,11.61-2,17.4a154.13,154.13,0,0,1-3.43,19.67,44.73,44.73,0,0,1-8,16.82,42.85,42.85,0,0,1-12.23,10.1,49.29,49.29,0,0,1-19,6.14,106.06,106.06,0,0,1-17.18.56c-3.15-.11-6.3-.25-9.45-.25H404.1Z"/><path d="M240.23,167.49H407.15c-1.64,14.77-3.4,29.4-5.09,44.17H297.67L294.93,233c4.43.11,8.75,0,13.06,0s8.69,0,13,0h78.5c-2.16,16.89-4.3,33.62-6.44,50.31-1.23.34-165.69.39-167.33,0Q233,225.55,240.23,167.49Z"/><path d="M616.86,168H798a5,5,0,0,1,.06.86A101.8,101.8,0,0,1,794.24,190a30.91,30.91,0,0,1-12.94,17.24,23.93,23.93,0,0,1-9,3.11,112.18,112.18,0,0,1-19.45,1.57H674.11c-1.44,12-2.76,23.92-4.14,35.85l-4.12,35.79h-63.2C607.39,245,612.11,206.56,616.86,168Z"/><path d="M818.23,92.78H956.56c3,0,5.9-.07,8.84,0a48,48,0,0,1,14.15,2.47,30.53,30.53,0,0,1,19.16,18.75,40.8,40.8,0,0,1,2.33,15.22,97.49,97.49,0,0,1-1.76,16.78c-.09.5-.23,1-.37,1.58H810.68c.46-4.59,1.21-9.09,1.83-13.61s1.28-9.21,1.92-13.82,1.25-9.11,1.89-13.66Z"/><path d="M416.75,93q-3.5,27-7,54c-1.21.33-164.57.41-166.47.07q3.36-27,6.72-54C251.2,92.71,415,92.65,416.75,93Z"/><path d="M856.26,283.54H794.4q6.89-57.86,13.74-115.58h62.34C865.74,206.49,861,244.92,856.26,283.54Z"/><path d="M933.58,168.48h61.73c-1.51,12.84-3.15,25.56-4.69,38.3s-3.16,25.63-4.75,38.44-3.16,25.51-4.75,38.31H919.66Q926.62,225.93,933.58,168.48Z"/></svg>