<svg id="Layer_1" data-name="Layer 1" xmlns="http://www.w3.org/2000/svg" viewBox="0 0 1226.79 376.75"><path d="M59.21,114.11a141.23,141.23,0,0,0,40.12,21.76,209.68,209.68,0,0,0,48.3,11.42,238.27,238.27,0,0,0,40.86.49c8.66-.55,17.31-1.17,26-1.81,3.16-.24,6.3-.62,10.27-1a85.71,85.71,0,0,1-16-17.36,136.43,136.43,0,0,1-12.64-20.12c1.36.81,2.08,1.15,2.71,1.63,15.71,11.82,33.41,19.22,52.49,23.49A190.24,190.24,0,0,0,300,136.65c15.37-.57,30.71-1.56,46-3.46,18-2.26,36.08-4.79,54-7.87q36.57-6.3,73-13.68c24.26-4.91,48.38-10.48,72.58-15.67,39.44-8.46,78.85-17,118.35-25.16,21-4.32,42-8.1,63.16-11.6,16.73-2.77,33.57-4.87,50.38-7,26-3.34,52.06-5.2,78.25-4.28,11.5.4,23,1.67,34.44,2.75a305.36,305.36,0,0,1,43.5,7.55c25.8,6.29,50.38,15.55,72.52,30.52,17,11.47,31.22,25.59,41.52,43.45a111.83,111.83,0,0,1,15.06,62.36c-1.14,23.82-8.76,45.59-21.84,65.48-.19.3-.45.56-1.13,1.39.32-2.62.6-4.61.8-6.62,1.94-19.28-2-37-14.18-52.43-8.32-10.57-19-18-31.3-23.28a125.07,125.07,0,0,0-40.65-9.53c-24.58-1.84-48.73,1.31-72.68,6.4-32.28,6.85-63.45,17.37-94.28,29-30.36,11.46-59.95,24.74-89.67,37.74-40.6,17.76-81.52,34.72-123.68,48.53a738.2,738.2,0,0,1-94.75,24.7c-16.9,3.15-34,5.45-51,7.83-21.14,2.95-42.45,3.94-63.77,4.07a362.28,362.28,0,0,1-64-5.46c-33.61-5.78-66-15.37-96.88-29.93-30.63-14.44-58.41-33-82.55-56.89-.61-.61-1.2-1.25-1.78-1.9-.13-.14-.14-.39-.29-.85l8.43,4.09a117.43,117.43,0,0,0,39.33,11.61,132,132,0,0,0,26-.17c14.66-1.4,29.24-3.64,44.06-3.56,8.94.05,16.81,2.32,24,7.54a59,59,0,0,0,5.6,3.64c8.92,5,18.34,6,27.38,1.16,16.17-8.58,24.71-22.58,25.75-40.73.59-10.23-6.27-17-16.45-17.84-5.18-.41-10.08.87-15,2.13-11,2.83-21.95,6-33.07,8.39a198.21,198.21,0,0,1-52.48,3.86,162.07,162.07,0,0,1-49.93-10.5A137.54,137.54,0,0,1,115.16,180,235.78,235.78,0,0,1,61,117.32C60.38,116.26,59.8,115.18,59.21,114.11Zm407.84,13.48L396.38,141c.79,5.11,1.68,9.86,2.24,14.64,1.19,10,.79,20.06-.13,30.08-.61,6.54-1.53,13.07-4,19.23a22,22,0,0,1-3,5.5c-2.63,3.33-5.57,3.16-7.67-.58a36.13,36.13,0,0,1-3.25-8.26c-2.22-8.33-2.5-16.9-2.42-25.47.11-10.95,1.05-21.79,5-32.16.06-.17-.13-.43-.26-.81-16.42,2-32.85,4-49.32,5.82s-33.15,2-49.83,2a83.37,83.37,0,0,0,8.53,3.83c10.23,4.18,20.25,8.77,29.26,15.29,14.29,10.34,23.73,23.78,26.3,41.53a82.84,82.84,0,0,1-4.61,40.62c-8.66,23.8-24.27,41.78-46.51,54-.29.16-.46.51-.89,1a353.94,353.94,0,0,0,82.85,6.09,4.93,4.93,0,0,0,.24-1.1c-.1-.74-.22-1.47-.38-2.2a140.17,140.17,0,0,1-3.16-34.72,77.7,77.7,0,0,1,4.42-24,39.8,39.8,0,0,1,4.5-8.9c2.21-3.22,5.41-3.1,7.54.22a26.61,26.61,0,0,1,3,7.14c1.82,6.51,2,13.25,1.94,19.93a188.25,188.25,0,0,1-4.36,39.85c-.21.91-.23,1.86-.4,3.38,24.13-1.17,47.55-4.79,71.09-8.23-.18-.56-.19-.73-.27-.79-.61-.4-1.23-.82-1.88-1.17A57.82,57.82,0,0,1,437.85,280c-7.36-12.72-10.66-26.66-11.75-41.13A152.46,152.46,0,0,1,432.6,182c5-16,12.09-31,23.35-43.6C459.29,134.6,463.18,131.32,467.05,127.59Zm232.37,98.79c-.61-4.28-1.49-8.28-1.72-12.32-.58-10.38,2-20.13,6.25-29.55,3-6.68,6-13.35,8.59-20.18,5.52-14.45,8.32-29.34,5.91-44.83a92.87,92.87,0,0,0-15.2-38.41c-1.65-2.42-3.37-3-6.24-2.38-8.48,1.81-17,3.24-25.56,4.84-3.58.68-7.15,1.45-10.8,2.19.22.47.24.62.32.68.63.39,1.26.78,1.91,1.13a39.26,39.26,0,0,1,16.26,15.91c9.49,17.4,9.28,35.07,1.06,52.86-.17.38-.59.64-1.31,1.41-.89-5.93-2.52-11.07-5.76-15.56s-6.79-8.73-12.41-11.16c-1.39,8.11-3.24,15.67-6.68,22.76s-7.53,13.41-13.74,18.65c.58-7.4,1.36-14.29,1.61-21.19.45-12.55-1.44-24.73-6.73-36.23A46.76,46.76,0,0,0,620.6,96.51a6.51,6.51,0,0,0-5.83-1.31c-14.51,3.26-29,6.33-43.59,9.48-5.12,1.11-10.24,2.28-15.49,3.45.27.43.32.59.41.63.79.32,1.59.65,2.41.93a68.87,68.87,0,0,1,29.22,19.16c12,13.35,17.48,29.43,19.2,47a153.15,153.15,0,0,1-1.55,39.66c-3.2,19.7-9.83,38.11-21.15,54.7-.53.77-.94,1.62-1.4,2.44,20.15-6.1,39.55-13.75,59-21.6-.21-1.31-.43-2.27-.5-3.23-.28-4.44-.88-8.9-.7-13.33a79.77,79.77,0,0,1,4.91-23.2,63.52,63.52,0,0,1,8.27-16.58c.83-1.14,1.54-2.48,3.12-2.83.19.42.38.63.38.84-.21,10.56,3,20.27,7.39,29.69a43.78,43.78,0,0,0,7.95,12.05c2.76,2.87,2.8,2.9,6.36,1.3q8.82-4,17.61-8C697.6,227.34,698.56,226.81,699.42,226.38Zm70.25-29.82c4.79-1.82,9.48-3.65,14.21-5.4s9.57-3.4,14.32-5.2,9.49-3,14.26-5.21c-7.31-5.51-10.45-9.14-14.24-17-8.25-17.22-10.13-35.36-7.2-54a84.1,84.1,0,0,1,20.22-43.18c.75-.84,1.37-1.8,2-2.7a390.54,390.54,0,0,0-43.21,3.49c0,1.24-.07,2,0,2.71a108.52,108.52,0,0,1-.28,25.6,146.53,146.53,0,0,1-3.42,16.69,17,17,0,0,1-3.33,6.14c-2.15,2.67-4.62,2.38-6.18-.67a29.76,29.76,0,0,1-2.62-7.3,99.71,99.71,0,0,1-.54-37.68c.17-1,.18-2.06.27-3.16-11.75.91-41.57,6-44.31,7.64.74,1,1.45,2,2.2,2.94a89.67,89.67,0,0,1,19.37,50.95c1.09,16.54-1.41,32.62-6,48.43a239.58,239.58,0,0,1-15.34,38.65c-.61,1.23-1.7,2.39-1.27,4.26l47.06-20.23a16.6,16.6,0,0,0-.17-2,97.25,97.25,0,0,1-2-29.56,54,54,0,0,1,3.28-16.33,19.9,19.9,0,0,1,2.45-4.57c2.18-2.9,4.22-2.83,6,.27a29.32,29.32,0,0,1,2.62,6.12,69,69,0,0,1,3.06,22C770.81,184.11,770.14,190,769.67,196.56ZM518,199.7a105.68,105.68,0,0,0-3.51-27.84c-2.6-9.17-6.35-17.74-13.51-24.39s-15.24-8.44-24.43-5.67c-9.79,3-17.12,9.26-23,17.38C447,168.24,443,178.47,440.3,189.25c-3.44,13.66-4.65,27.6-4.69,41.63a87.92,87.92,0,0,0,7.51,35.74c2.91,6.65,6.68,12.73,12.23,17.54,7.39,6.41,15.75,7.94,24.95,4.64,9.53-3.42,16.35-10.09,21.67-18.43a80.72,80.72,0,0,0,8.92-20C515.82,234.41,517.49,217.93,518,199.7Zm65.64-47.18c-6.62,5.25-13.83,7.36-21.31,8.75-3.77.7-4.94.17-6.49-3.25-7.62-16.86-25.17-31-50.14-28.4-2.27.24-4.6.34-6.92,1.67a10.71,10.71,0,0,0,1.46,1c6.47,2.86,11.14,7.72,14.93,13.54a71.47,71.47,0,0,1,9.12,21.87,131.8,131.8,0,0,1,3.91,44.59c-1.08,11.61-2.1,23.22-5.43,34.45-1.83,6.17-4.09,12.22-6.09,18.34a38.36,38.36,0,0,0-2,7.14c-.58,4.76,1.6,7,6.34,6.93a20.38,20.38,0,0,0,4.39-.62c12.37-3.08,22.18-10.28,30.63-19.46,12.49-13.56,20-29.68,23.92-47.6.5-2.29.85-4.61,1.27-6.91a15.93,15.93,0,0,0-2.46,3.44,89.29,89.29,0,0,1-6.38,8.62,15.86,15.86,0,0,1-9.32,5.07c-3.29.55-4.67-.88-4.28-4.13,1.1-9.22,2.25-18.44,3.24-27.67a7,7,0,0,1,3.64-5.67c1.92-1.14,3.86-2.24,5.69-3.52a29.18,29.18,0,0,0,11.15-14A23.2,23.2,0,0,0,583.68,152.52ZM857,131.39l-.86-.45-2.69,3.82c-3,4.15-6.13,8.12-10.34,11.09s-8.66,3.23-11.75.86-4-6.94-2.29-11.6a21.08,21.08,0,0,1,6-8.4c5.66-5.19,11.37-10.34,16.89-15.67A47,47,0,0,0,866.05,84.2a27.92,27.92,0,0,0,.07-9.21c-1.22-6.81-7.81-12.15-15.34-13.18a30.27,30.27,0,0,0-19.32,3.85,50.9,50.9,0,0,0-18.82,18.12c-11.91,19.52-15.67,40.77-12,63.21a42.45,42.45,0,0,0,10,21.69c4.26,4.81,9.58,7.38,16.12,6.9a26.92,26.92,0,0,0,21.09-12.24C854.42,153.71,856.63,142.79,857,131.39Zm62.15-8-.82-.54a19.54,19.54,0,0,1-1.58,2c-4.22,4.21-8.6,8.21-14.06,10.83a13.58,13.58,0,0,1-7.56,1.4,5.92,5.92,0,0,1-5.64-6.19,11.26,11.26,0,0,1,2.5-7.24,34.52,34.52,0,0,1,4-4.37c3.16-3,6.44-5.81,9.62-8.74,8-7.37,13.65-16,14.71-27.12.77-8.2-3.25-13.9-11.31-15.82-6.56-1.56-12.55.21-18.09,3.62A46,46,0,0,0,873.8,90.37,77.94,77.94,0,0,0,866,134.75,38.81,38.81,0,0,0,872.86,153c3.93,5.51,9.23,8,16,7.19s12.17-4,16.7-8.83C913,143.42,916.63,133.66,919.17,123.39Zm9.6-51.61c4.82,29.64,2.84,58-13,84.5,17.23-1.76,34.26-2.07,51.69.45.32-10.75.64-21,1-31.34a7.22,7.22,0,0,0-2.57,2.39,25.48,25.48,0,0,1-9.48,8.16c-5.45,2.57-9.71.61-10.84-5.32a39.54,39.54,0,0,1-.53-10c.61-9.33,3.05-18.32,5.71-27.24,1.37-4.61,2.91-9.18,4.35-13.71C951.38,77.45,935.16,72.57,928.77,71.78ZM977,157.66c6.38,2.47,12.61,5.26,19.35,6.49a20.59,20.59,0,0,0,5.92.14c4-.46,7.45-2.32,9.22-6.07,3.32-7,3.89-14.2-.79-20.83-2.33-3.3-5.43-6.07-8.3-9-2.53-2.54-5.31-4.84-7.83-7.39a10.55,10.55,0,0,1-2.37-3.71,3,3,0,0,1,3.07-4.26,11,11,0,0,1,4.81,1.65,34.78,34.78,0,0,1,9.44,9.37c.54.73,1.15,1.41,2.14,2.62.39-9-2.9-15.85-8.42-21.79-4.69-5-10.39-8-17.36-8-6.34,0-10.79,3.58-12.31,9.75a16.77,16.77,0,0,0,1.59,12.27,74.48,74.48,0,0,0,7.23,10.74c2.69,3.38,5.92,6.33,8.79,9.58a12.61,12.61,0,0,1,2.56,4c1.06,3-.73,4.94-3.81,4.38a6.66,6.66,0,0,1-2.76-1c-2.65-2-5.21-4.13-7.76-6.25-.69-.57-1.27-1.26-2.41-2.42Zm51.78,14.53c-1.73-1.51-.81-4.65-3.67-5.18-1.11,3.43-1,6.6.34,8.8.22-1.79.4-3.34.59-4.89l.49,0,2.31,5.51,2.81-6.28c.3,2.36.5,3.91.7,5.46l.89-.13c-.16-2.8.63-5.65-.57-8.58C1029.74,167.66,1030.8,170.9,1028.78,172.19Zm-12.1-5.23c1.82,1,1.94,2.62,2,4.42,0,1.4-.72,3.1,1,4.49,1.14-3.05-1-6.62,3-8.91Z"/><path d="M488.39,213.46c-.66,10-1.12,20-2.09,30a83.82,83.82,0,0,1-3,14.12,14.88,14.88,0,0,1-3.32,5.7c-3,3.28-6.57,3-9.06-.58a15.8,15.8,0,0,1-2.58-5.7c-1.11-5.82-2.41-11.69-2.68-17.58-.84-18.33-.69-36.66,2.79-54.78a80.31,80.31,0,0,1,3.43-11.73,15,15,0,0,1,3.15-5c2.65-2.89,5.6-2.65,7.69.63a19.07,19.07,0,0,1,2.63,6.1,98.39,98.39,0,0,1,2.34,15c.39,7.9.1,15.84.1,23.76Z"/><path d="M825.74,116.11a12.45,12.45,0,0,1-.18-1.86c.57-9.9,2.91-19.3,8.38-27.7a31.3,31.3,0,0,1,5.12-5.79c1.79-1.64,4-2.53,6.48-1.25a5.93,5.93,0,0,1,3.28,6.5,21.46,21.46,0,0,1-2,6.66,29.59,29.59,0,0,1-4.66,6.65C836.84,105,831.35,110.39,825.74,116.11Z"/><path d="M887.4,109.8c.14-1.37.28-3.78.65-6.16a38.86,38.86,0,0,1,6.85-17.41,16.69,16.69,0,0,1,4.21-4.09c3.14-2,6.59-.18,7,3.57a10.77,10.77,0,0,1-2.18,7.69,87.53,87.53,0,0,1-8.11,9.58A98.59,98.59,0,0,1,887.4,109.8Z"/></svg>