<svg id="Layer_1" data-name="Layer 1" xmlns="http://www.w3.org/2000/svg" viewBox="0 0 1226.79 376.75"><path d="M321.41,219.88c.4-3.53.83-7.06,1.18-10.6,1.92-19.26,8.35-37,18.06-53.64,9.88-16.92,22.67-31.45,37.11-44.59.5-.45,1.1-.79,2.06-1.47,0,4.51.05,8.58-.06,12.65,0,.67-.72,1.39-1.23,2-17.21,19.87-28.89,42.54-33.88,68.38-5.48,28.37-1.92,55.17,15.47,79.09,10.44,14.37,24.47,24.42,40.28,32.16,17.72,8.69,36.53,13.8,55.88,17.16a307.14,307.14,0,0,0,49.8,4.84c14.57.13,29.17.48,43.72-.16A531,531,0,0,0,729,285.88c13-5.34,25.42-12.23,38.11-18.41l1.95-1c.09,1,.22,1.7.22,2.45,0,11.54,0,23.08.05,34.62a3.89,3.89,0,0,1-2.37,4c-22.67,12-46.52,21.1-71,28.64A547.71,547.71,0,0,1,613.86,355c-13.59,2-27.26,3.39-40.93,4.79a431.74,431.74,0,0,1-59,1.5c-35.88-1.26-71.11-6.41-104.72-19.79-21.86-8.7-41.7-20.55-57.8-38a105.19,105.19,0,0,1-27.09-54.7c-1.13-6.67-1.58-13.45-2.36-20.18-.11-1-.38-1.9-.57-2.85Z"/><path d="M677,6.2a31.06,31.06,0,0,0,3.92.55c28.35.57,56.25,4.18,83.4,12.56,22.42,6.92,43.35,16.78,61.13,32.43C844.2,68.23,856,88.58,859.55,113.49c4.83,33.87-4.33,63.85-25.38,90.39a125.08,125.08,0,0,1-50.47,38.46c-.82.34-1.66.65-2.5.94-.15.05-.34,0-.7-.09,0-.74-.12-1.51-.12-2.29,0-7.78.06-15.56,0-23.34a4.13,4.13,0,0,1,2.28-4.06c18-11.32,32.43-26.07,42-45.24,7-13.93,10.5-28.72,9.32-44.29-1.75-23.1-11.36-42.58-28.44-58.29C789.33,50.82,770,41.84,749.23,35.57A253,253,0,0,0,706,26.87a341.74,341.74,0,0,0-45.21-2.39A464.33,464.33,0,0,0,602.87,29,523.91,523.91,0,0,0,461.46,69.33c-6.37,2.83-12.59,6-18.89,9l-3.17,1.51c0-3.25-.16-6.07.11-8.85.07-.75,1.36-1.52,2.23-2A421.54,421.54,0,0,1,523,31.64a460.47,460.47,0,0,1,77.3-19.2c12.59-2,25.31-3.2,38-4.42,7.82-.75,15.7-.83,23.55-1.25a33,33,0,0,0,3.4-.57Z"/><path d="M696.83,212.94l16.36,15.6a56.47,56.47,0,0,1-15.48,11.54,53.71,53.71,0,0,1-22.2,5.39c-7.63.3-15.18-.06-22.54-2.34-13.76-4.26-23.78-12.9-28.79-26.38-6.83-18.34-7.17-37,.74-55.08,7.53-17.19,21.34-26.24,40-28.11,12.66-1.27,24.19,1.39,34,9.71,8.83,7.46,13.47,17.39,16,28.45,1.83,7.92,1.64,15.95,1.66,24,0,2.35-1.55,2-2.93,2H650.87c-.81,0-1.62.05-2.42,0-1.59-.11-2.32.54-2.2,2.18.88,11.9,7.79,21.66,21.51,22.92,7.44.69,14.68,0,21.2-4C691.68,217.16,694.1,215,696.83,212.94Zm-28.93-33.3c5.36,0,10.72.05,16.08,0,5.68-.07,6.32,1.18,5-6-3.11-17.43-17.52-21.5-30.32-15.9-8,3.53-11.22,10.46-12.32,18.72-.32,2.39.34,3.24,2.76,3.21C655.39,179.57,661.64,179.63,667.9,179.64Z"/><path d="M453.17,189.55c0-17.09.05-34.18-.06-51.27,0-2.53.79-3.15,3.21-3.14,18.35.1,36.7,0,55.05.1,18,.08,30.35,11.75,30.61,29.65.37,25.5.15,51,.22,76.5,0,1.84-.61,2.52-2.5,2.5-7.07-.09-14.14-.15-21.21,0-2.58.07-3.14-.84-3.14-3.22q.1-35.16,0-70.33a35.11,35.11,0,0,0-.35-4.8c-.7-5.25-4-8.49-9.27-8.63-7.87-.21-15.76,0-23.63-.1-2.15,0-1.93,1.29-1.93,2.65v47.78c0,11.19-.06,22.37,0,33.55,0,2.28-.47,3.16-2.94,3.1q-10.6-.24-21.22,0c-2.46.06-3-.82-3-3.09C453.2,223.73,453.17,206.64,453.17,189.55Z"/><path d="M590.85,157.13V164q0,23.36,0,46.71c0,7.25,2.39,9.92,9.52,10.47,3,.24,6.08.22,9.12.22,1.57,0,2.28.59,2.27,2.21,0,6.08,0,12.17-.08,18.25,0,.65-1,1.84-1.57,1.83-8.47-.13-17,.93-25.35-1.41a28.29,28.29,0,0,1-20.86-26.9c-.11-35.88,0-71.76-.1-107.64,0-2,.54-2.66,2.58-2.63q10.88.16,21.75,0c2.11,0,2.8.56,2.77,2.73-.12,8.23,0,16.46-.09,24.69,0,2,.64,2.68,2.61,2.64,5.28-.08,10.57,0,15.85-.05,1.86,0,2.54.61,2.51,2.48-.08,5.63-.07,11.27,0,16.91,0,1.72-.6,2.35-2.36,2.33-5.73-.08-11.46,0-17.19,0A9.81,9.81,0,0,0,590.85,157.13Z"/><path d="M760.46,242.3c-14.93,0-26.77-11.31-26.81-25.84-.11-41.4,0-82.8-.1-124.2,0-1.9.43-2.71,2.53-2.68,7.42.11,14.85.09,22.27,0,1.76,0,2.34.59,2.34,2.33q-.06,74.7-.05,149.41A5.89,5.89,0,0,1,760.46,242.3Z"/><path d="M427.63,190.23V241.5c0,3.51,0,3.54-3.53,2.92-11.55-2-19.82-7.89-22.7-19.81a31.26,31.26,0,0,1-.83-7.15c-.06-26.48,0-53-.08-79.46,0-2.26.74-2.89,2.92-2.85,7.07.11,14.15.13,21.22,0,2.34,0,3.07.63,3.05,3C427.59,155.51,427.63,172.87,427.63,190.23Z"/><path d="M414.34,93.38c3.58,0,7.16.07,10.74,0,1.78,0,2.58.41,2.55,2.38-.09,7.06-.07,14.13,0,21.2,0,1.69-.47,2.39-2.28,2.37q-11.28-.1-22.55,0c-1.82,0-2.3-.69-2.28-2.38.06-7.06.08-14.13,0-21.2,0-2,.79-2.41,2.56-2.37C406.82,93.45,410.58,93.38,414.34,93.38Z"/><path d="M802,100.36a10.86,10.86,0,0,1-10.64,10.85,10.79,10.79,0,1,1-.09-21.58A10.83,10.83,0,0,1,802,100.36Zm-10.67-9.53a9.73,9.73,0,0,0-9.7,9.42,9.83,9.83,0,0,0,9.67,9.75,9.59,9.59,0,0,0,0-19.17Z"/><path d="M793.43,101.59l2.41,4.48-.46.61a9.43,9.43,0,0,1-2.06-1.25c-.6-.63-.83-1.61-1.43-2.25a13.45,13.45,0,0,0-2.21-1.55c-.32.76-.68,1.5-.93,2.28-.14.41,0,.93-.12,1.32a4.91,4.91,0,0,1-.88,1.14c-.31-.35-.9-.7-.91-1.05-.07-3.4-.05-6.8,0-10.2a1.43,1.43,0,0,1,.42-.93c1-1,6.61-.31,7.64.85,1.35,1.53.93,4-1,5.89A7.33,7.33,0,0,0,793.43,101.59Zm-2-1.24c.78-.93,2.05-1.78,2.22-2.8.29-1.83-1.44-1.91-2.78-2.07-1.62-.19-2.24.57-2.23,2.17S789.11,100.08,791.41,100.35Z"/></svg>