<svg id="Layer_1" data-name="Layer 1" xmlns="http://www.w3.org/2000/svg" viewBox="0 0 1226.79 376.75"><path d="M107,104.74c1.19-8.48-.12-16.86,4.33-23.93,5.83.37,5.83.37,15.94,9.76,12.72-4.72,26-8.09,39.91-6.79,4.38-6.21,5.13-14.42,13.5-18.35,8,7.37,8.34,18.12,10.39,23.8,7.08,10.1,12,17.16,16.95,24.16a25.94,25.94,0,0,0,3.64,4.24c14.18,12.94,13,28.69-3,39.12l-5.76,16.61,12.71-6c.49-.23,1-.45,1.49-.64,6.71-2.55,13.42-7.1,20.29-.48,6.47,6.22,7.88,17.11,3,27.41l-27.05,8.18c10.68,12.86,7.29,27,3.08,42.35,4.18-2.11,7.52-4,11-5.53,14.81-6.41,26.52-2.69,24.47,17.26-.3,2.93-1,5.83-1.57,9.33-17.33,6-34.63,9.95-53.56,4.95,0-4.52,0-8.51,0-12.49-.06-5.68.39-11.44-.43-17-1.39-9.47-6.19-16.54-17.19-19.19.72,8.7,2.24,17.08-3.43,24.29s-13.81,7.62-22.23,7.32c1.44,18.41,8.52,34.76,11.94,51.78-10.69,6.07-48.84,8.63-64.09,4.18-1.05-3.63-2.59-7.67-3.35-11.86-2-10.92,4.27-18.08,15.43-17.48,4.53.25,9,1.69,13.49,2.69a25.18,25.18,0,0,0,4.94,1.06c-8.17-10.57-13.17-22.15-13.36-36.52-13.39-.7-26.44-3.11-39.08,2.42-3.82-.51-6.3-2.35-6.41-6.21s2.67-5.92,5.94-6.76c5-1.26,10-2.68,15-2.82,8.88-.26,17.78.41,27,.7l7.27-14.6c-6,1.1-11.15,2.09-16.3,2.94-5.61.93-11.21,2.08-16.85,2.49-6.28.45-10.68-2.61-12.09-8.59-2-8.46-1.68-16.68,5.32-23.67,15.19-2.81,30.6-.83,46.27-.52l-18.78-19.19c-12.79,1-20.62-3.35-23.82-14.27a25.49,25.49,0,0,1-.69-10.36c.83-6.11,2.46-12.11,3.66-18.18C97,120,99,115.72,107,104.74Zm19.77,56c4.78,9.27,8.41,18,15.7,24.83l5.68-4.09V169.63l7.38,8.09,22.41-5c1-3.55,1.89-6.88,3.14-11.4l5.56,11.63h6.69a90.29,90.29,0,0,0,3.88-30.19h-15c-.83,3.37-1.52,6.16-2.41,9.8l-5.86-8.83c-10.27,1.85-20.26,3.53-29.62,8.21.39,3.92.72,7.29,1.13,11.47l-8.88-8.48Zm9.1-56.75,27.05-5.7,1.88-7c-11-1.45-25,1.42-33.05,6.69Zm28.65,117.6c-8.43,2.92-10.5,9.82-11.63,18.22h11.37C168.26,232.94,168.25,229.35,164.47,221.57Zm-56.11-90.2c-.39-4.48-.71-8-1-11.61l-1.77-.15c-1.22,4-2.44,8-3.95,12.91ZM200,117.25c-.25-2.59-.1-3.64-.5-4.41-.52-1-1.46-1.85-3.05-3.75a45.18,45.18,0,0,0,.54,5.69C197.11,115.33,198,115.69,200,117.25Z"/><path d="M303,156.18h22l2.12,5.16c16.56-13.57,31.41-12.09,44.76,5.75,1.52-1.4,3-2.73,4.49-4.14a35.61,35.61,0,0,1,26.39-10.59c17.92.35,30.53,12.16,31.07,29.8.55,17.86.16,35.74.15,53.61a11.57,11.57,0,0,1-.74,2.61h-22c-.15-3.07-.37-5.71-.38-8.34,0-11.38.05-22.75-.05-34.12a63.42,63.42,0,0,0-.82-10.49c-1.51-8.55-5.23-12.2-12.31-12.62-8.17-.48-15.35,4.21-17.18,11.9a59,59,0,0,0-1.19,12.89c-.14,13.26,0,26.51,0,40.51H355.92v-8.06c0-12.19,0-24.37,0-36.56a48.54,48.54,0,0,0-.38-8.1c-.95-5.44-2.36-10.73-8.84-12.27s-13.83.84-17,6.69a30.79,30.79,0,0,0-3.35,13.05c-.44,12.17-.16,24.36-.16,36.55v8.43c-7.9,1.82-15.29.82-23.17.8Z"/><path d="M858.13,203.86H798.07c3.65,16.51,22.25,19.91,40.41,7.52L851,225a42.06,42.06,0,0,1-25.19,13,53.91,53.91,0,0,1-24.91-2c-18.79-6.11-28.92-21.17-28.49-42.43.39-19.3,11.92-34.46,30.32-39.53a49.34,49.34,0,0,1,24.91-.72c18.14,4.3,29.22,16.91,30.48,35.31C858.39,193.21,858.13,197.82,858.13,203.86Zm-24.29-17.53c-2.14-10.22-7.37-14.73-16.59-14.78-9.72-.06-16.47,5.15-18.62,14.78Z"/><path d="M1088.34,238.42h-20.28c-.45-3-.87-5.83-1.39-9.28a33.34,33.34,0,0,0-3.36,2.45c-10.24,9.77-26.71,7.8-35.68,2.61a27.25,27.25,0,0,1-12.4-32.92c2.09-6,6.19-10.52,12-12.42a99,99,0,0,1,19.68-4.08c6.1-.67,12.33-.14,18.53-.14-.68-9.94-3.64-13.66-12.15-13.37-6.07.2-12.12,2.13-18.07,3.68-2.52.66-4.77,2.33-7.84,3.89l-9.92-14.4c9.38-7.76,20-11.18,31.46-12.05a62.23,62.23,0,0,1,17.69,1.27c14,3.08,21.91,11.77,22.45,26.08.7,18.93.17,37.9.13,56.85C1089.24,237.06,1088.79,237.53,1088.34,238.42Zm-23.52-37.72c-7.38.6-14.3.93-21.16,1.82-3.42.44-5.73,2.84-6.15,6.54-.44,3.95,1.14,7.07,4.69,8.56,6,2.51,12.11,2.37,17.71-1.32C1065,213,1066.5,208.13,1064.82,200.7Z"/><path d="M490.38,238.69c-25.29.08-44.4-18.44-44.35-43s19.22-43.39,44.21-43.43,44.35,18.84,44.37,43.29A42.6,42.6,0,0,1,490.38,238.69Zm20.41-43.26c-.07-11.41-5.93-20-15.11-22.27-12-2.89-22.8,4-25.53,16.3-3,13.43,4,26.43,15.55,28.95a19,19,0,0,0,2.4.31C501.47,219.92,510.89,210.25,510.79,195.43Z"/><path d="M601.08,238.24c0-13.56.06-26.51,0-39.47a105.37,105.37,0,0,0-.76-14.56c-1.3-8.72-5-12.41-12-13-7.89-.6-14.95,3.49-17.22,10.73a43,43,0,0,0-1.63,12c-.19,11.92,0,23.84,0,35.76v8.54H546.67v-82.1H568.4l1.74,5.22A15.91,15.91,0,0,0,572.9,160c7.34-5.83,15.57-8.77,25-7.26,14.66,2.35,25.33,13.36,26,29,.86,18.61.2,37.29.2,56.55Z"/><path d="M645.22,211.49c20.43,10.84,28.93,12.06,37.17,5.57,1.47-3.76-.17-6.42-3.35-8.07-3.58-1.85-7.38-3.27-11.09-4.86-5.46-2.33-11.14-4.24-16.33-7-15.55-8.43-12.64-27.27-4-35.28,7.87-7.28,17.39-9.62,27.68-9.45A45.65,45.65,0,0,1,703,162.75a23.27,23.27,0,0,1-1.15,2.92c-2.11,3.76-4.29,7.48-6.7,11.66-9.84-4.17-19.46-10.05-30.49-4.9-2.35,5.87-2.23,7.14,2.09,9.34A107.27,107.27,0,0,0,678,186.18c4.55,1.7,9.3,3,13.66,5.07,15.65,7.56,18.54,27.3,5.46,38.9a31.4,31.4,0,0,1-13.37,7.17c-17.62,3.88-33.52-.61-48.45-11.67Z"/><path d="M993,207.07l12.45,13.9c-16.46,22.09-46.81,21.66-64.52,7.24-18.88-15.37-18.46-47.35-3.11-62.52,18.72-18.49,49.47-18.11,66.9,1.68-3.64,4.8-7.36,9.69-11.43,15-2.06-1.6-3.81-3.11-5.7-4.4-7.35-5-15.44-6.76-23.91-3.89-12.6,4.28-17.18,16.62-12.86,30,3.64,11.26,17.43,16.82,28.81,11.73C984.15,213.79,988.08,210.33,993,207.07Z"/><path d="M1153.15,170.8h-19.64c1.35,15.81-2.27,30.89,2.82,46.48l17.52,1.54v19.47c-9.32.65-18.69,2-27.55-2.15-9.88-4.65-15.32-12.76-15.67-23.74-.34-10.27-.16-20.56-.2-30.84,0-3.23,0-6.46,0-10.31l-12.12-1.1V152.86l12.08-1.1V129.38h23V151.9h19.71Z"/><path d="M724.91,171.21l-12.36-1.06V152.77l12.07-.88V129.53h23.25v22.62h19.06v18.08l-18,.79c-2.45,17.82-1.22,39,3.14,46.31l14.88,1.42v19.47c-7.38,1.09-14.9,1.34-22.19-.52-11.31-2.89-19.21-13-19.65-25-.39-10.54-.14-21.1-.17-31.65C724.9,178.05,724.91,175.09,724.91,171.21Z"/><path d="M872.06,152.77h22.23c.31,3.33.57,6.24.92,10,4.07-2.57,7.62-5.29,11.58-7.16,3.79-1.8,8-2.71,12.87-4.28v22.18c-1.74.26-3.3.53-4.87.71-10.87,1.21-16.73,6.24-18.66,16.93a101,101,0,0,0-1.24,16.14c-.18,10.19,0,20.39,0,31H872.06Z"/></svg>