<svg id="Layer_1" data-name="Layer 1" xmlns="http://www.w3.org/2000/svg" viewBox="0 0 1226.79 376.75"><path d="M209.42,315.81a2.32,2.32,0,0,1,2.67.56,29.49,29.49,0,0,0,3.7,2.43,70,70,0,0,0,7.33,3.95c4.06,1.73,8.22,3.27,12.4,4.68,2.32.78,4.77,1.15,7.16,1.7,1.57.35,3.12.73,4.7,1,1,.16,2,.09,3,.16,2,.16,4,.65,6,.43,2.62-.3,5.4-.14,7.8-1.62a7.09,7.09,0,0,0,2.51-2.15c.8-1.27.85-2.55-.31-3.45a12.08,12.08,0,0,0-3.37-1.9c-2.89-1-5.83-1.92-8.8-2.73-3.31-.9-6.68-1.6-10-2.48-2.58-.69-5.13-1.51-7.69-2.31a57.4,57.4,0,0,1-9.81-4,36.13,36.13,0,0,1-8.78-6.34,24,24,0,0,1-4.21-5.52,12.89,12.89,0,0,1-1.1-2.73,15.92,15.92,0,0,1-1-4.68c0-1.44.06-2.88,0-4.31-.17-3.18,1.19-5.87,2.84-8.38a29.66,29.66,0,0,1,12.18-10.25,91.11,91.11,0,0,1,8.39-3.58,49.32,49.32,0,0,1,5.69-1.43l4-.95c.21-.05.43-.11.65-.14a104.39,104.39,0,0,1,17.59-.57c2.5.08,5,.28,7.48.57,1.9.21,3.77.65,5.65,1,1.36.24,2.75.37,4.09.69,2.73.64,5.43,1.4,8.16,2.05a4.1,4.1,0,0,0,2.21.12c3-1.11,6-2.38,8.95-3.58.67-.26,1.35-.49,2-.7a1,1,0,0,1,1.41.81,4.91,4.91,0,0,1,0,.94v23.58a5.9,5.9,0,0,1,0,.94c-.11.8-.48,1.06-1.29.8a16.05,16.05,0,0,1-2.09-.9c-2.12-1-4.2-2.17-6.35-3.15a59.12,59.12,0,0,0-6.1-2.43c-2.46-.79-5-1.45-7.49-2s-5-.64-7.38-1.21a37.87,37.87,0,0,0-6.28-.48,32.07,32.07,0,0,0-5.05-.38c-2.74.25-5.57.4-8,1.95a7.91,7.91,0,0,0-2.15,2,2.15,2.15,0,0,0,.79,3.49,32.65,32.65,0,0,0,5.41,2.32c3.38,1,6.81,1.86,10.24,2.67,2.26.53,4.57.81,6.82,1.33,2.08.48,4.13,1.11,6.18,1.7,2.36.69,4.73,1.36,7.06,2.15a53.19,53.19,0,0,1,14.26,7.07,21.19,21.19,0,0,1,3.68,3.11c2.33,2.68,4.35,5.59,5.08,9.16a28.26,28.26,0,0,1,.85,5.26,17.46,17.46,0,0,1-2.87,10.27,37.64,37.64,0,0,1-5.11,5.5,20.54,20.54,0,0,1-4.41,3,51.9,51.9,0,0,1-12,5c-2.93.77-5.85,1.6-8.82,2.2-2,.42-4.18.38-6.24.75-5.8,1-11.64.31-17.45.49a13.19,13.19,0,0,1-5.33-.48,3,3,0,0,0-.8,0c-3-.21-6-.35-9-.66a60.84,60.84,0,0,1-6.73-1.08c-2.7-.6-5.34-1.44-8-2.09a4.22,4.22,0,0,0-2.23,0c-1.9.64-3.73,1.48-5.6,2.21s-3.6,1.35-5.39,2a1.78,1.78,0,0,1-1.74-.41Z"/><path d="M714.57,82.2a36.68,36.68,0,0,1-4.15.59c-1.69.06-3.39-.12-5.08-.2-.22,0-.43-.14-.65-.15a41.68,41.68,0,0,1-11.81-2.78c-3.77-1.4-7.48-2.94-11.19-4.48-3-1.24-5.9-2.58-8.85-3.86-2.63-1.14-5.22-2.36-7.9-3.37-5.08-1.94-10.19-3.84-15.34-5.59a58.47,58.47,0,0,0-7.4-1.86c-2.58-.52-5.23-.68-7.78-1.28-2.23-.53-4.54,0-6.67-.58-2.82-.71-5.61-.27-8.4-.43a8.41,8.41,0,0,0-1.82.33,6,6,0,0,1-1.18.18,43.41,43.41,0,0,0-9.3,1.06c-2.4.53-4.83.95-7.18,1.65a85.31,85.31,0,0,0-13.7,5.44,127.72,127.72,0,0,0-14.11,8.29c-2.52,1.69-4.88,3.61-7.33,5.41-1.86,1.37-3.86,2.59-5.61,4.1a62.55,62.55,0,0,1-6,4A40.34,40.34,0,0,1,548,91.34a18.9,18.9,0,0,1-2.71,1.13,60.11,60.11,0,0,1-8.63,1.8c-2.78.43-5.56.13-8.29.51-4.53.64-9,.31-13.56.32q-42.25.09-84.52,0c-.35,0-.72,0-1.07,0-1.17-.06-1.58-.65-1.05-1.67,1.48-2.86,3-5.69,4.53-8.55,1.14-2.18,2.22-4.4,3.35-6.59,1.53-2.94,3.09-5.87,4.65-8.79s3.06-5.67,4.58-8.51l4-7.59c1.45-2.73,2.89-5.47,4.37-8.18,1.81-3.3,3.66-6.57,5.47-9.86.75-1.38,1.42-2.81,2.13-4.2A7.89,7.89,0,0,1,462,30c.72-.94,1.29-.88,2,0a16.79,16.79,0,0,0,5.9,5.16,34.55,34.55,0,0,0,7.72,2.59,62.41,62.41,0,0,0,9,1.12c12.24.86,24.49.17,36.74.36,6.42.1,12.87.33,19.27-.05,11.71-.68,23.42-.19,35.13-.32s23.36,0,35,0l51.08-.07a25.15,25.15,0,0,1,4.84.12c2.81.53,5.71,0,8.43.57,2.46.57,5,.2,7.42.91a34.59,34.59,0,0,0,5,.66c1.33.19,2.65.41,4,.68s2.6.59,3.89,1c2.1.59,4.21,1.16,6.28,1.84A56.94,56.94,0,0,1,714.14,49c2.44,1.4,4.77,3,7.13,4.51,3.41,2.18,5.84,5.41,8.74,8.12a3,3,0,0,0,2,.87c2.27.15,4.56.29,6.81.62,2.89.42,5.76,1.05,8.65,1.55,2.46.43,5,.73,7.39,1.22,3,.6,6,1.33,9,2,2,.45,4,.89,6,1.39,1.34.34,2.65.75,4,1.16,2.82.86,5.65,1.71,8.44,2.64,2.46.82,4.92,1.66,7.3,2.67q5.63,2.37,11.13,5a41.11,41.11,0,0,1,7.95,5c2.17,1.72,4.59,3.16,6.34,5.33,2.7,3.34,5.35,6.75,6.94,10.79.85,2.15,1.5,4.38,2.15,6.6a36.07,36.07,0,0,1,1,12.37,43.24,43.24,0,0,1-.94,6.19c-.48,2.26-1.08,4.5-1.71,6.73a63.82,63.82,0,0,1-5.49,13.1c-1.91,3.49-3.93,6.91-6,10.29-1.36,2.2-3,4.25-4.46,6.37-1.15,1.64-2.25,3.32-3.46,4.92-1,1.35-2.15,2.6-3.21,3.92-.56.7-1,1.5-1.59,2.16-2.21,2.45-4.41,4.92-6.71,7.29-3.12,3.22-6.33,6.37-9.51,9.54a14.37,14.37,0,0,1-1.37,1.07l-1.46,1.16a14.3,14.3,0,0,1-4.42,2.94c-.92.3-1.14.09-.91-.85a3.76,3.76,0,0,1,.27-.9c1-1.81,2-3.58,3-5.41a17.27,17.27,0,0,0,1.75-9.78,9.68,9.68,0,0,0-2.25-5.09c-2.79-3.39-6.49-5.22-10.69-6.28a75.3,75.3,0,0,0-9.07-1.65c-1.49-.18-2.95-.62-4.42-.94a2.74,2.74,0,0,0-.39-.09c-2.09-.19-4.18-.34-6.26-.58-2.7-.3-5.39-.72-8.09-1-1.52-.16-3.08.05-4.57-.2-3-.49-6.14-.05-9.09-.61-3.32-.63-6.61-.41-9.9-.42q-34.37-.15-68.73-.15c-17.34,0-34.68.1-52,.09a69.19,69.19,0,0,1-9.1-.6c-2.67-.35-5.24-1.16-7.11-3.38a9.91,9.91,0,0,1-2.71-6.38,17,17,0,0,1,3.06-9.81c2.63-4,5.19-8.05,7.79-12.06.91-1.39,1.85-2.74,2.81-4.09s1.06-1.89-.31-3-3-2.35-4.52-3.53c-1.06-.82-2.11-1.64-3.14-2.51-1.46-1.23-2.87-2.54-4.35-3.75s-2.83-2.18-4.24-3.25c-.15-.11-.31-.19-.45-.31-1.32-1.12-2.61-2.28-4-3.37s-2.78-2.08-4.15-3.15c-1-.79-2-1.59-3-2.42a1.6,1.6,0,0,1-.23-2.4c1.82-1.84,3.76-3.57,5.64-5.34,1.08-1,2.12-2.07,3.24-3,1.73-1.47,3.5-2.89,5.29-4.29s3.51-2.76,5.33-4c2.39-1.71,4.78-3.44,7.28-5,2.85-1.76,5.75-3.47,8.76-4.95a74,74,0,0,1,13.41-5,49.71,49.71,0,0,1,14.6-1.73c3.28.09,6.56-.07,9.84.1a59.53,59.53,0,0,1,6.88.94c2.11.36,4.2.82,6.28,1.31,1.44.34,2.85.78,4.25,1.23,2.8.9,5.6,1.8,8.36,2.8,2,.73,4,1.63,6,2.42,3.65,1.45,7.32,2.86,11,4.34,1.7.68,3.32,1.57,5,2.21,2.63,1,5.31,1.85,8,2.69,1.48.47,3,.79,4.52,1.19a35.43,35.43,0,0,0,11,1A23.21,23.21,0,0,0,714,82.9a6.62,6.62,0,0,0,.63-.45ZM595.63,154.29a2.41,2.41,0,0,0,.58.23c3.86,0,7.72,0,11.59,0a1.71,1.71,0,0,0,1.07-.64c.66-.78,1.21-1.66,1.82-2.48.81-1.07,1.63-2.12,2.45-3.17,1.29-1.65,2.52-3.35,3.91-4.91a40.76,40.76,0,0,1,5-4.6,34.2,34.2,0,0,1,5-3.34,39,39,0,0,1,10.12-4.2c1.7-.39,3.35-1,5-1.29,2.36-.45,4.74-.82,7.13-1.08a69.22,69.22,0,0,1,7.88-.54c6.18,0,12.36.26,18.54.42l.4,0,7.75.58c.58,0,1.17,0,1.74.07,2.61.31,5.22.66,7.83,1,2.21.26,4.42.48,6.63.73,1.06.13,2.11.3,3.17.46l1.19.2c1.57.29,3.14.6,4.73.85s3.36.45,5,.71c1,.15,2,.37,3,.59,1.48.33,2.95.69,4.43,1,2.13.46,4.29.83,6.41,1.34,2.51.6,5,1.3,7.49,2,3.88,1,7.78,2,11.63,3.14,3,.9,6,2,9,3,5,1.77,9.9,3.61,14.84,5.43,1.18.44,2.33.92,3.48,1.41,2.51,1.08,5,2.13,7.5,3.27,2.16,1,4.27,2.09,6.39,3.17.64.32,1.1.26,1.47-.37.57-1,1.23-1.89,1.72-2.89a114.3,114.3,0,0,0,6.52-14.55,60.15,60.15,0,0,0,3-12.9,31,31,0,0,0-.92-10.91,24.22,24.22,0,0,0-4.91-9.76,40.55,40.55,0,0,0-8.05-7.48,49.14,49.14,0,0,0-10.66-5.62c-1.47-.52-2.91-1.14-4.39-1.64-1.26-.42-2.56-.76-3.85-1.11-2.41-.65-4.81-1.35-7.24-1.9-2.26-.51-4.57-.85-6.86-1.25-3-.52-6.07-1-9.08-1.58a16,16,0,0,1-4.16-1.41c-2.12-1.11-3-2.71-2.48-4.58a9.38,9.38,0,0,1,1.31-2.45c.29-.46.86-.79.57-1.43-.12,0-.17-.09-.2-.08a28.39,28.39,0,0,0-12.12,6.09,33.64,33.64,0,0,0-7.21,7.56c-1.38,2.19-2.79,4.37-4.06,6.62-.76,1.36-1.19,2.9-1.93,4.27q-2.24,4.13-4.68,8.14a24.19,24.19,0,0,1-7.9,8.42,26.57,26.57,0,0,1-14.21,4.25c-12.71.08-25.43,0-38.14,0a76,76,0,0,0-12.07.49c-.8.12-1.63,0-2.41.16-2.27.46-4.51,1.08-6.78,1.51a28.9,28.9,0,0,0-6.9,2.5A36.67,36.67,0,0,0,618,128a22,22,0,0,0-3.85,2.64c-4.28,4.2-8.75,8.24-12.13,13.24-2,3-3.92,6.2-5.86,9.31A11.68,11.68,0,0,0,595.63,154.29Zm39-76.27a7.37,7.37,0,0,0-1.31-.15c-1.37.12-2.73.41-4.1.42a37.28,37.28,0,0,0-7,1.15A44.07,44.07,0,0,0,612.12,83c-2.62,1.24-5.08,2.82-7.58,4.3a35.09,35.09,0,0,0-7.53,6c-1,1.09-1,1.1,0,2.14,2.26,2.29,4.83,4.22,7.29,6.28a40.56,40.56,0,0,0,7.8,5.16c.28.14.52.36.79.52a13.58,13.58,0,0,0,1.74,1c1.41.57,2.87,1,4.26,1.6a39.42,39.42,0,0,0,9.71,2.39,54.35,54.35,0,0,0,8.55.56c12.6-.17,25.21.54,37.8-.4a61.47,61.47,0,0,0,7.31-.83,51.28,51.28,0,0,0,7.07-2,23.35,23.35,0,0,0,8.73-5.1c1.11-1.09,2.18-2.21,3.3-3.26,1.46-1.37,2.12-3.21,3.28-4.73.06-.09,0-.32,0-.35-2.31.07-4.52.17-6.74.2a15.79,15.79,0,0,1-3.08-.15c-1.59-.28-2.35,0-3.19,1.38a11.54,11.54,0,0,1-1.07,1.52,20.06,20.06,0,0,1-6.24,4.59,25,25,0,0,1-8.33,2.79,65.07,65.07,0,0,1-6.74,1c-6,.18-12,.56-18-.34-2.29-.34-4.63-.16-7-.55a41.07,41.07,0,0,1-6.41-1.27c-2.52-.85-5.08-1.54-7.32-3.18a7.83,7.83,0,0,1-3.26-5.83c-.37-3.3.9-6.24,2.33-9.09.53-1,1.21-2,1.76-3C632.41,82.25,633.42,80.26,634.59,78Zm-10.14,76.29c.73.1,1.19.22,1.65.23,2.29,0,4.58,0,6.87,0a2.14,2.14,0,0,0,2.39-1.29,2.72,2.72,0,0,1,.75-.94c1.7-1.43,2.95-3.38,5-4.41,1.8-.9,3.49-2,5.35-2.76a34,34,0,0,1,7.35-2,58.64,58.64,0,0,1,9.16-1c2.69.05,5.39,0,8.08,0,3.89.11,7.77-.2,11.67.46,2.75.48,5.61.17,8.42.6s5.87.46,8.81.66a1.29,1.29,0,0,1,.4.06c2.14,1,4.49.38,6.72.95a48,48,0,0,0,6.51.73c1.06.13,2.1.36,3.16.53,1.32.22,2.64.41,4,.67,1.52.29,3,.69,4.56,1,2.46.44,4.93.79,7.4,1.21,1.1.18,2.19.4,3.27.65,2.21.51,4.41,1.05,6.61,1.58,1.7.4,3.4.75,5.08,1.21,2.41.65,4.8,1.37,7.2,2.08,4.41,1.29,8.8,2.64,13.23,3.85,1.65.45,7.74,2.86,9,2.86-1.22-.6-5.29-2.56-5.77-2.78-1.42-.65-2.86-1.26-4.3-1.86-2.31-1-4.6-2-7-2.86-3.56-1.3-7.16-2.51-10.76-3.71-2.67-.9-5.35-1.76-8-2.55s-5.24-1.41-7.87-2.1c-1.68-.43-3.36-.86-5-1.27-1.3-.32-2.61-.6-3.9-.92-1.6-.4-3.18-.89-4.8-1.22-2.35-.48-4.73-.88-7.1-1.29-1.19-.21-2.4-.32-3.57-.58a32.42,32.42,0,0,0-6.56-1.14,7.34,7.34,0,0,1-.77-.21c-1.63-.27-3.24-.57-4.88-.76-2.3-.28-4.61-.46-6.92-.71-2.74-.3-5.48-.69-8.23-.92-1.79-.14-3.59-.06-5.39-.12a9.47,9.47,0,0,1-1.56-.28,6.11,6.11,0,0,0-1.44-.24c-4.59.24-9.21-.54-13.79.49-1.46.32-3.07,0-4.57.19a78.15,78.15,0,0,0-7.72,1.56,41.91,41.91,0,0,0-6.85,2.25,45.25,45.25,0,0,0-6.22,3.66,23.76,23.76,0,0,0-3.58,3,48.63,48.63,0,0,0-3.31,3.85C626.28,151.76,625.5,152.9,624.45,154.31Z"/><path d="M498.46,162c-21.65,0-43.31,0-65,0a28.77,28.77,0,0,1-7.64-1c-1-.29-2.1-.35-3.13-.62-1.32-.36-2.61-.84-3.92-1.25a23,23,0,0,1-4.32-2.32c-1.83-1-2.77-2.74-4-4.28a14.33,14.33,0,0,1-2.63-6.11c-.44-2.18-1.14-4.41-.31-6.73.39-1.11.35-2.36.63-3.52.4-1.64.87-3.27,1.38-4.88,2.16-6.77,5.65-13,8.81-19.27.68-1.35,1.49-2.64,2.24-4a3,3,0,0,1,2.85-1.61q53.29,0,106.61,0a72,72,0,0,1,7.49.41,28.13,28.13,0,0,1,4.68,1,58.86,58.86,0,0,1,6,1.88,14.33,14.33,0,0,1,3.21,1.91c2.46,1.78,4.87,3.63,7.28,5.47s4.56,3.45,6.79,5.23c1.6,1.28,3.11,2.67,4.68,4,.92.77,1.86,1.53,2.81,2.26a1.69,1.69,0,0,1,.46,2.47c-.82,1.43-1.63,2.88-2.45,4.31-1.35,2.32-2.71,4.64-4,7-.75,1.31-1.46,2.66-2.19,4a14,14,0,0,0-1.85,8.89,11.61,11.61,0,0,0,1.44,3.43,20.45,20.45,0,0,0,1.45,2.08c.45.67.29,1.09-.5,1.22a8.67,8.67,0,0,1-1.35,0h-65.5Z"/><path d="M753.6,312.52c-.41.63-.7,1-.91,1.42-1.64,3.3-3.29,6.58-4.89,9.89-1.84,3.79-3.6,7.62-5.45,11.39a3,3,0,0,0,.13,2.93c.88,1.72,1.73,3.45,2.57,5.19a3.24,3.24,0,0,1,.33,1c.12.86-.22,1.27-1.06,1.36a7.3,7.3,0,0,1-.81,0H718c-1.76,0-1.94-.29-2.68-2-1.11-2.54-2.43-5-3.64-7.5q-4.43-9.06-8.82-18.14c-2.18-4.51-4.32-9.05-6.49-13.57s-4.29-8.87-6.41-13.31c-1.35-2.83-2.65-5.68-4-8.53a3.52,3.52,0,0,1-.3-.88,1.11,1.11,0,0,1,1.11-1.47c.27,0,.54,0,.81,0,8.49,0,17,0,25.47,0a2.25,2.25,0,0,1,2.3,1.44c1.65,3.38,3.38,6.73,5,10.12,2.28,4.67,4.52,9.36,6.76,14.06,1,2.18,2,4.39,3,6.58.18.39.39.76.68,1.31a7,7,0,0,0,.65-.88c1.4-2.85,2.81-5.71,4.19-8.58,2.13-4.39,4.23-8.8,6.35-13.2a2.8,2.8,0,0,0,0-2.58c-1-2.06-1.93-4.13-2.87-6.21-.58-1.26-.11-2,1.28-2,8.81,0,17.62,0,26.42,0a1.68,1.68,0,0,1,1.68,1.08c1.45,3.08,2.89,6.16,4.36,9.23,1,2.07,2,4.11,3,6.17,2.22,4.6,4.42,9.21,6.64,13.8.48,1,1,1.95,1.68,3.23a18.17,18.17,0,0,0,1-1.62c1.91-4,3.79-8,5.71-12,1.16-2.43,2.4-4.82,3.57-7.24,1.71-3.56,3.43-7.1,5.06-10.69a2.87,2.87,0,0,1,3.06-2c5.57.11,11.14,0,16.71,0,1.87,0,2.32.73,1.49,2.44Q816.95,290.89,813,299q-3.57,7.38-7.11,14.76-3.37,7-6.71,14.07c-1.17,2.46-2.29,4.95-3.48,7.41a2.79,2.79,0,0,0,0,2.69c.89,1.76,1.75,3.53,2.61,5.31a4.26,4.26,0,0,1,.41,1.13c.14.85-.21,1.27-1,1.36a7.3,7.3,0,0,1-.81,0c-8.54,0-17.07,0-25.61,0a2.48,2.48,0,0,1-2.57-1.66c-2.5-5.31-5.11-10.56-7.65-15.85-1.79-3.71-3.53-7.45-5.29-11.17Z"/><path d="M596,313v30.71c0,1.87-.16,2-2,2H567.5c-1.82,0-2-.18-2-2V322.14c0-1.73,0-1.75-1.71-1.75H543.71c-1.56,0-1.6,0-1.6,1.58,0,7.28,0,14.55,0,21.83,0,1.73-.19,1.92-1.94,1.92H507a3.67,3.67,0,0,1-.94,0c-.55-.16-1.06-.47-.71-1.15.72-1.43,1.45-2.86,2.27-4.24,1.09-1.84,2.33-3.6,3.39-5.46a4.87,4.87,0,0,0,.54-2.3c0-12.7,0-25.41.07-38.12a8,8,0,0,0-1.57-4.68c-1.36-2.05-2.6-4.17-3.9-6.25-.33-.53-.7-1-1-1.56-.5-.78-.23-1.42.67-1.58a6.47,6.47,0,0,1,1.08,0H540c1.9,0,2.07.18,2.07,2.08,0,7.18,0,14.37,0,21.55,0,1.58,0,1.6,1.57,1.61h20.21c1.54,0,1.61-.07,1.61-1.59V282.3c0-1.84.13-2,2-2h26.55c1.72,0,1.95.23,1.95,1.93Z"/><path d="M868.59,308.52c.29,0,.45,0,.53-.09,1.4-1.18,2.78-2.39,4.19-3.56,1.88-1.57,3.79-3.11,5.69-4.66.21-.17.43-.32.64-.5,1.76-1.58,3.5-3.19,5.3-4.72,1.53-1.29,3.15-2.49,4.72-3.73.21-.17.41-.35.61-.54,1.18-1.12,1.22-1.18.36-2.6-1.12-1.83-2.33-3.61-3.42-5.45a2.34,2.34,0,0,1-.36-1.6c.17-.67.88-.75,1.55-.75q15.92,0,31.81,0c.61,0,1.32,0,1.45.67a1.79,1.79,0,0,1-.59,1.35c-1.94,1.72-3.94,3.36-5.93,5-.14.12-.3.2-.44.31-1.8,1.61-3.57,3.25-5.41,4.81-1.63,1.38-3.35,2.66-5,4l-.41.35q-2.76,2.44-5.5,4.91a5.23,5.23,0,0,1-.64.5c-1.16.77-1.21.79-.34,2,1.11,1.51,2.31,3,3.46,4.45.71.92,1.4,1.85,2.11,2.77,1.22,1.6,2.48,3.17,3.68,4.78,1.38,1.85,2.7,3.76,4.09,5.61.86,1.14,1.8,2.22,2.69,3.33s1.56,1.95,2.31,2.95c1.38,1.87,2.69,3.79,4.11,5.63,2.3,3,4.69,5.85,7,8.81a20.12,20.12,0,0,1,1.31,2.27c-.29,1.05-1.06.9-1.77.9-9.43,0-18.87,0-28.3,0-2.06,0-3.79,0-5-2.12a39.18,39.18,0,0,0-3.65-4.62l-3.3-4c-.88-1.07-1.79-2.11-2.64-3.2-1.07-1.38-2.08-2.81-3.14-4.18-.9-1.17-1.85-2.3-2.78-3.45-.53-.65-1.08-1.3-1.61-2s-1-.81-1.68-.22c-1.6,1.37-3.15,2.79-4.74,4.16a2.78,2.78,0,0,0-1,2.35c0,5.08,0,10.15,0,15.23,0,1.84-.19,2-2,2H831.76c-.61,0-1.45.2-1.63-.55a2.76,2.76,0,0,1,.35-1.88c1.78-2.84,3.67-5.61,5.45-8.46a3.58,3.58,0,0,0,.31-1.8q0-15.9,0-31.8c0-2.6,0-5.21,0-7.81a4.51,4.51,0,0,0-.74-2.67q-2.82-4.32-5.65-8.64c-.63-1-.32-1.64.82-1.77.31,0,.63,0,.94,0h34.64c.32,0,.63,0,1,0a1.21,1.21,0,0,1,1.27,1.27c0,.35,0,.71,0,1.07v24.25C868.51,307.45,868.56,308,868.59,308.52Z"/><path d="M356.36,280.33H395c1.33,0,1.67.36,1.68,1.69,0,3.55,0,7.1,0,10.64,0,.36,0,.72,0,1.08,0,1-.37,1.36-1.38,1.42-.36,0-.72,0-1.08,0H356c-.59,0-.93.3-.93.91v8.49a.86.86,0,0,0,1,1h38.41c2.11,0,2.27.16,2.27,2.32v10.64c0,1.65-.22,1.86-1.87,1.86h-38c-1.79,0-1.79,0-1.79,1.81v7c0,1.91.22,2.12,2.19,2.12h37.47c1.83,0,2,.18,2,2v10.51c0,1.64-.24,1.88-1.86,1.88H318.31c-.58,0-1.34.13-1.5-.56a2.59,2.59,0,0,1,.28-1.77c1.39-2.29,2.93-4.49,4.33-6.77a8.59,8.59,0,0,0,1.49-4.65c-.08-12.71-.05-25.42,0-38.12a4.92,4.92,0,0,0-.86-3c-1.68-2.47-3.16-5.09-4.72-7.64a9.2,9.2,0,0,1-.66-1c-.18-.41-.48-1-.32-1.28s.78-.45,1.23-.57a4.32,4.32,0,0,1,1.08,0Z"/><path d="M937.28,334.67c0-3.68,0-7.37,0-11.05,0-1.39.48-1.7,1.73-1.13a11.81,11.81,0,0,1,1.2.84c2.32,1.35,4.57,2.85,7,4,3.15,1.48,6.41,2.75,9.69,3.94a44.74,44.74,0,0,0,5.32,1.25c1.56.35,3.12.69,4.68,1a12.06,12.06,0,0,0,1.34.09l4.38.48a3.94,3.94,0,0,0,1.08.05c2-.35,4-.64,5.89-1.14a4.68,4.68,0,0,0,2-1.36,2.31,2.31,0,0,0-.61-3.83,14.57,14.57,0,0,0-3-1.19c-2.19-.63-4.4-1.16-6.6-1.76-3.19-.87-6.35-1.85-9.56-2.62a48.24,48.24,0,0,1-12.65-5.08,36.35,36.35,0,0,1-4-2.89,17,17,0,0,1-4.32-4.89,14.41,14.41,0,0,1-1.89-5.24,29.21,29.21,0,0,1-.46-3,14.89,14.89,0,0,1,2.44-8.62,13,13,0,0,1,1.6-1.81,29.05,29.05,0,0,1,9.85-7.09,39.79,39.79,0,0,1,8.5-2.81c2.41-.47,4.84-.77,7.25-1.16a58.14,58.14,0,0,1,11.26-.31c2.66.09,5.3.59,8,.92,1.86.23,3.75.36,5.57.76,2.26.5,4.47,1.25,6.71,1.83a2.74,2.74,0,0,0,1.53-.05c2.76-1.05,5.48-2.18,8.23-3.27,1.17-.46,1.78-.05,1.78,1.25q0,9.57,0,19.13c0,1.33-.65,1.7-1.81,1.07-1.5-.8-2.93-1.74-4.48-2.44a57.54,57.54,0,0,0-11.51-3.95A75.23,75.23,0,0,0,985.1,293a70.51,70.51,0,0,0-8.48-.09,22.2,22.2,0,0,0-3.69.54,5.19,5.19,0,0,0-2.9,1.83,1.92,1.92,0,0,0,.59,3.12,27.59,27.59,0,0,0,8.09,2.77c2.78.62,5.55,1.35,8.32,2s5.41,1.18,8.08,1.91c2,.55,3.89,1.31,5.82,2a30.45,30.45,0,0,1,3.58,1.51c1.57.85,3.09,1.79,4.57,2.79a28.69,28.69,0,0,1,2.92,2.36,15.05,15.05,0,0,1,4.32,6.55c1.55,4.76,1.63,9.43-1.47,13.84a25.58,25.58,0,0,1-7.25,6.43c-3.11,2.08-6.61,3.15-10.05,4.34a42.71,42.71,0,0,1-6.28,1.32c-1.83.35-3.67.67-5.52.94a18.37,18.37,0,0,1-2.68.16c-4.76,0-9.53.06-14.28-.1-2.57-.1-5.12-.6-7.68-.93-1.41-.18-2.84-.33-4.24-.6a46.72,46.72,0,0,1-6.78-1.46,7.35,7.35,0,0,0-5.33.47c-2,.76-4,1.61-6,2.41-.94.37-1.43,0-1.51-1,0-.31,0-.63,0-.94Q937.28,339.92,937.28,334.67Z"/><path d="M448,280.33c4.72,0,9.43,0,14.15,0a2.48,2.48,0,0,1,2.54,1.55c1.38,2.82,2.77,5.63,4.21,8.42,2,3.86,4,7.69,6.06,11.54,2.56,4.93,5.1,9.87,7.67,14.79,2,3.81,4,7.59,6,11.4,2.2,4.2,4.38,8.43,6.58,12.63.52,1,1.12,1.94,1.67,2.91.72,1.28.24,2.22-1.39,2.21-9.52-.07-19-.05-28.57,0a2.15,2.15,0,0,1-2.21-1.35c-.83-1.74-1.71-3.45-2.61-5.15a23.67,23.67,0,0,0-1.86-3.11,2.12,2.12,0,0,0-1.49-.62c-2.51-.06-5,0-7.54,0-4.76,0-9.52,0-14.29,0a1.91,1.91,0,0,0-2,1.18c-1.33,2.63-2.76,5.22-4.13,7.84a2.07,2.07,0,0,1-2,1.25c-7.1,0-14.2,0-21.3,0-1.46,0-1.95-.73-1.29-2.09.84-1.72,1.84-3.37,2.73-5.07,1-1.87,1.87-3.78,2.87-5.64a2.34,2.34,0,0,0,0-2.41c-1.1-2.11-2.17-4.22-3.2-6.36-.61-1.28-.23-1.84,1.18-1.85,2.11,0,4.22,0,6.33,0a1.88,1.88,0,0,0,1.92-1.15q3.76-7.37,7.58-14.69,3.19-6.14,6.44-12.24c.88-1.66,1.78-3.31,2.72-4.94a2,2,0,0,0,0-2.14c-.86-1.62-1.68-3.27-2.49-4.92-.66-1.34-.32-1.89,1.22-1.89C438.31,280.32,443.16,280.33,448,280.33Zm.16,32.19c-1,.68-5.18,8.47-5.3,9.58,1.45.36,9.06.27,10.05-.2C451.34,318.78,449.76,315.67,448.17,312.52Z"/><path d="M646.28,280.33c4.72,0,9.44,0,14.16,0a2.5,2.5,0,0,1,2.54,1.54q4.42,8.68,8.93,17.34c2.16,4.17,4.35,8.34,6.53,12.51l6.48,12.39q3.36,6.44,6.72,12.86c1.14,2.18,2.32,4.33,3.47,6.51a3.19,3.19,0,0,1,.33,1.15,1,1,0,0,1-.92,1.1,9.73,9.73,0,0,1-1.08,0c-9.16,0-18.33,0-27.5,0a3.31,3.31,0,0,1-3.29-2c-1.18-2.32-2.38-4.63-3.49-7a1.93,1.93,0,0,0-2-1.28q-10.92.06-21.84,0a2,2,0,0,0-2.08,1.28c-1.24,2.59-2.61,5.11-3.85,7.7a2,2,0,0,1-2.11,1.29c-7.14,0-14.29,0-21.43,0-1.6,0-1.9-.53-1.17-2,1.32-2.65,2.63-5.3,4-7.94.57-1.11,1.31-2.13,1.85-3.26a2,2,0,0,0,0-1.49c-.85-1.73-1.83-3.39-2.73-5.08q-.51-1-.93-1.95c-.47-1.11-.1-1.68,1.15-1.71a41.35,41.35,0,0,1,5,0c2.31.26,3.5-.69,4.39-2.78,1.26-3,2.84-5.79,4.32-8.66,2.06-4,4.15-7.95,6.23-11.91,1.71-3.26,3.39-6.52,5.16-9.74a2.3,2.3,0,0,0-.06-2.61c-.82-1.33-1.56-2.71-2.3-4.09-.87-1.64-.53-2.2,1.32-2.2Zm.13,32.15H646c-.81,1.58-1.69,3.13-2.42,4.75s-1.84,3.1-2.29,4.9c2.51.37,9.19.22,10-.21Q648.85,317.2,646.41,312.48Z"/><path d="M452.36,223.63h18.2c1.67,0,1.86.19,1.87,1.85,0,1.3,0,2.61,0,3.91,0,1.45-.28,1.72-1.73,1.73H454c-.35,0-.71,0-1.07,0a1.12,1.12,0,0,0-1.2,1.18c0,1,0,2,0,3a1.2,1.2,0,0,0,1.18,1.23,9.73,9.73,0,0,0,1.08,0h16.58c1.75,0,1.89.15,1.9,1.94,0,1.12,0,2.25,0,3.37,0,1.49-.53,2-2,2H453.27c-1.5,0-1.58.09-1.59,1.62,0,.63,0,1.26,0,1.88.06,1.13.45,1.49,1.59,1.55.32,0,.63,0,1,0,5.43,0,10.87,0,16.31,0,1.75,0,1.89.15,1.9,1.94v3.37c0,2-.11,2.08-2,2.08H434.54c-.32,0-.63,0-.94,0-1-.1-1.24-.49-.79-1.34a37.31,37.31,0,0,1,2.28-3.79,3.52,3.52,0,0,0,.65-2.12c0-5.7-.1-11.41,0-17.11a6.84,6.84,0,0,0-1.53-4.42c-.55-.76-1.09-1.52-1.6-2.31a.94.94,0,0,1,.71-1.57,7.62,7.62,0,0,1,1.07,0Z"/><path d="M845.49,256.32H827.84a9.51,9.51,0,0,1-1.07,0c-.94-.1-1.22-.5-.77-1.34.73-1.38,1.61-2.67,2.38-4a3.55,3.55,0,0,0,.54-1.59c0-6.24,0-12.48,0-18.72,0-1.38-1.13-2.08-1.63-3.15-.39-.85-.94-1.63-1.33-2.48s-.17-1.28.89-1.35c.27,0,.54,0,.81,0h35.84c1.93,0,2.05.12,2.05,2.07,0,1.26,0,2.51,0,3.77s-.32,1.64-1.69,1.65H847.06c-.36,0-.72,0-1.08,0a1.09,1.09,0,0,0-1.12,1.11c-.05,1,0,2.07,0,3.1A1.16,1.16,0,0,0,846,236.5a6.47,6.47,0,0,0,1.08,0h16.71c1.67,0,1.83.17,1.84,1.86,0,1.08,0,2.15,0,3.23,0,1.78-.46,2.24-2.21,2.25H845.86c-.64,0-1,.28-1,1,0,.9,0,1.8,0,2.7a1.29,1.29,0,0,0,1.34,1.38c.35,0,.72,0,1.08,0h16.43c1.75,0,1.9.15,1.9,1.95,0,1.21,0,2.42,0,3.63,0,1.61-.19,1.8-1.77,1.8Z"/><path d="M393.38,233.83c-1.74-.71-3.29-1.29-4.79-2a14.13,14.13,0,0,0-5.14-1.27,1.77,1.77,0,0,1-.66-.07c-2.14-1.09-4.42-.45-6.63-.57a3.07,3.07,0,0,0-1.38.47c-1.5.79-1.58,1.7-.06,2.49a18.9,18.9,0,0,0,3.77,1.31c2.14.59,4.31,1,6.45,1.63,2,.55,3.91,1.16,5.83,1.85a15.61,15.61,0,0,1,2.05,1.25c3.13,1.72,4.33,4.55,4.28,7.91a7,7,0,0,1-3.15,5.74,23.91,23.91,0,0,1-8.17,3.6,22.29,22.29,0,0,1-4.88.64c-2.6.1-5.21,0-7.82,0a30.59,30.59,0,0,1-7.38-1,17.16,17.16,0,0,0-2.19-.56,4.68,4.68,0,0,0-1.82.19c-1,.33-2,.81-3,1.19s-1.53,0-1.54-1c0-3.37,0-6.74,0-10.1a1.36,1.36,0,0,1,.61-1.05,1.43,1.43,0,0,1,1.18.3,27.33,27.33,0,0,0,9.37,4.53c3,.93,6.19.73,9.32.63a1.23,1.23,0,0,0,.27,0c.68-.16,1.73-1.09,1.54-1.49a3.07,3.07,0,0,0-1.31-1.55,44.38,44.38,0,0,0-4.49-1.25c-.77-.2-1.55-.36-2.3-.61-2.49-.83-5-1.59-7.43-2.58a9.22,9.22,0,0,1-4.48-3.53,9.86,9.86,0,0,1-1.13-7.26,7.18,7.18,0,0,1,3.34-4.7,26.47,26.47,0,0,1,8.14-3.28,23.71,23.71,0,0,1,9.44-.55c2.65.46,5.37.51,8,1.42a4.32,4.32,0,0,0,3.41-.28,11.3,11.3,0,0,1,2-.71c.76-.23,1.14.16,1.15.88q0,4.17,0,8.35A3,3,0,0,1,393.38,233.83Z"/><path d="M529.73,223.63c2.15,0,4.31,0,6.46,0a1.9,1.9,0,0,1,1.92,1.18c1.18,2.37,2.33,4.75,3.55,7.11,2.22,4.3,4.49,8.58,6.74,12.86,1.66,3.18,3.36,6.33,5,9.52.79,1.54.46,2-1.28,2-4.17,0-8.35,0-12.53,0a1.77,1.77,0,0,1-1.82-1.06c-.59-1.15-1.3-2.24-1.93-3.38a1.33,1.33,0,0,0-1.3-.75q-4.92,0-9.84,0a1.89,1.89,0,0,0-1.78,1.19c-.56,1.07-1.19,2.1-1.82,3.13a1.66,1.66,0,0,1-1.56.86c-3.14,0-6.29,0-9.43,0-1.19,0-1.54-.58-1-1.65.68-1.46,1.38-2.92,2.14-4.34a2,2,0,0,0,0-2.16c-.39-.7-.74-1.43-1.07-2.17-.43-1-.08-1.53,1-1.59.72,0,1.44,0,2.16,0a1.53,1.53,0,0,0,1.62-.94,4.37,4.37,0,0,1,.25-.48c2.41-4.61,4.8-9.22,7.23-13.81a2.73,2.73,0,0,0,0-3c-1.3-1.85-.72-2.62,1.55-2.5C525.86,223.71,527.79,223.63,529.73,223.63Zm-.1,20.73.08.21c.58-.24,1.62-.41,1.66-.72.08-.6-.4-1.27-.66-1.9,0-.08-.12-.13-.18-.2-1-1-1.49-1.33-2.12.17a6.32,6.32,0,0,1-.54.77,1,1,0,0,0,.69,1.66A6.37,6.37,0,0,0,529.63,244.36Z"/><path d="M605.51,223.63H627.2c1.83,0,2,.14,2,2,0,1.62,0,3.23,0,4.85,0,1.29-.38,1.66-1.7,1.67-4,0-8,0-12,0-1.54,0-1.6.06-1.6,1.58V254c0,2-.37,2.36-2.34,2.37H596.44a5.91,5.91,0,0,1-.94,0c-.76-.13-1-.53-.7-1.24a17.54,17.54,0,0,1,1.55-2.82,5.78,5.78,0,0,0,1.16-3.48c0-4.94,0-9.87,0-14.81,0-1.76,0-1.77-1.82-1.77-3.86,0-7.72,0-11.58,0-1.83,0-2.32-.5-2.33-2.31,0-1.53,0-3.05,0-4.58s.27-1.64,1.66-1.64Z"/><path d="M688.63,223.63h21.56c1.95,0,2,.09,2,2.09v4c0,1.91-.48,2.41-2.36,2.41-3.82,0-7.63,0-11.45,0h-.95a.8.8,0,0,0-.9.91c0,.36,0,.72,0,1.08v20.21c0,1.78-.15,1.93-1.91,1.93h-15.5a5.83,5.83,0,0,1-.94,0,.93.93,0,0,1-.69-1.51c.71-1.19,1.45-2.36,2.2-3.53a5.2,5.2,0,0,0,1-3c0-4.85,0-9.7,0-14.55,0-1.43-.09-1.52-1.53-1.52h-12.4c-1.59,0-1.85-.28-1.86-1.9s0-3.23,0-4.84.23-1.8,1.8-1.8Z"/><path d="M769.18,256.32H750.86c-.36,0-.72,0-1.08,0-1-.09-1.39-.61-1-1.53a18.17,18.17,0,0,1,1.49-2.7,6.32,6.32,0,0,0,1.23-3.88c0-5.34-.11-10.69,0-16a8,8,0,0,0-1.82-5.42,7.66,7.66,0,0,1-1-1.61c-.37-.83,0-1.39.89-1.5a7.3,7.3,0,0,1,.81,0H766c1.69,0,1.84.16,1.84,1.86V246.1c0,1.76,0,1.8,1.84,1.8h17.92c.31,0,.63,0,.94,0,1.17.07,1.63.51,1.65,1.67,0,1.53,0,3.05,0,4.58,0,1.72-.44,2.16-2.13,2.16Z"/></svg>