<svg id="Layer_1" data-name="Layer 1" xmlns="http://www.w3.org/2000/svg" viewBox="0 0 1226.79 376.75"><path d="M317.81,62.16c69.18-.5,126.46,56.48,126.38,126.41-.07,68-55.85,127.47-129.25,126A126.21,126.21,0,0,1,191.4,188.16C191.43,117.79,249.16,61.65,317.81,62.16Zm-18.54,66.17a220.94,220.94,0,0,0-37.16,2.93c-8,1.34-15.82,3.3-23.64,5.32A11.53,11.53,0,0,0,230,148.34a12,12,0,0,0,15.68,11.19c16.74-5,33.95-6.64,51.3-6.94a201.6,201.6,0,0,1,22.78,1c8.39.79,16.79,1.82,25.07,3.39,16.94,3.24,33.21,8.55,48.16,17.38a11.25,11.25,0,0,0,8.79,1c5.53-1.47,8.6-5.36,9-11a11.17,11.17,0,0,0-5.92-11c-4.41-2.51-8.89-4.92-13.51-7-22.19-10.06-45.7-14.89-69.84-17C314.13,128.75,306.69,128.67,299.27,128.33ZM295,172c-2.17.1-5.92.09-9.64.48-8.08.85-16.18,1.69-24.2,3a131.52,131.52,0,0,0-15.11,3.69,10,10,0,0,0-6.72,13.62c2,5,7.29,7.32,13,5.61a147.5,147.5,0,0,1,36.51-5.93,174,174,0,0,1,37.51,2.44c18.12,3.18,35.33,8.8,51.22,18.26a11.77,11.77,0,0,0,6,1.58,10.06,10.06,0,0,0,4.58-18.7c-4.88-2.78-9.78-5.57-14.88-7.9C348.94,177,323.27,172.18,295,172Zm73.83,76.52c4.07-.27,7.06-2.52,8.13-6.33a8.1,8.1,0,0,0-3.74-9c-21-12.76-43.9-18.87-68.31-19.68a159.46,159.46,0,0,0-30.72,1.43c-8.15,1.3-16.29,2.72-24.37,4.37-4.41.91-6.78,5.35-5.74,9.81a8.09,8.09,0,0,0,9.67,5.83,203.71,203.71,0,0,1,35.23-5.1,153.15,153.15,0,0,1,31.8,1.42,121,121,0,0,1,44.05,15.83A21.88,21.88,0,0,0,368.87,248.53Z"/><path d="M961.46,219.26c1.12-3.17,2.27-6.32,3.38-9.49,5.67-16.17,11.36-32.34,17-48.54A2.88,2.88,0,0,1,985,159c5.74.06,11.49,0,17.24,0,2.58,0,3,.68,2.13,3.06-11.25,29.05-22.43,58.13-33.83,87.12a72,72,0,0,1-7.2,13.54c-4.27,6.4-10.57,9.59-18.31,10.23a42.86,42.86,0,0,1-23.11-4.57c-1.49-.74-1.93-1.5-1.15-3.11,2-4.18,3.92-8.43,5.79-12.68.63-1.43,1.36-1.64,2.82-1.08a53.54,53.54,0,0,0,8.24,2.59,10.89,10.89,0,0,0,12.48-8.06,3.71,3.71,0,0,0-.39-2.05q-10.65-25.59-21.35-51.15c-1.82-4.35-3.65-8.68-5.42-13a2.24,2.24,0,0,0-2.44-1.6c-4.78.08-9.56,0-14.34,0-2.59,0-2.6,0-2.6,2.54v63.09c0,2.85,0,2.9-3,2.91H885.15c-3.43,0-3.43,0-3.43-3.36V181.62c0-.6,0-1.21,0-1.81,0-1.17-.52-1.59-1.67-1.56-2.36.05-4.72,0-7.07,0-1.59.05-2.14-.6-2.12-2.15q.09-7.44,0-14.87c0-1.62.51-2.33,2.19-2.26,2.18.08,4.36-.08,6.54.05,1.73.1,2.2-.65,2.15-2.24-.15-5.14.1-10.24,1.79-15.19,3.09-9,9.45-14.06,18.72-15.59a51.53,51.53,0,0,1,21.67,1.36c1.53.41,2.22,1.08,2.19,2.74-.09,4.71,0,9.43,0,14.14,0,2.24-.44,2.55-2.63,1.88a33.63,33.63,0,0,0-11.23-1.63c-4.27.17-7.28,2.34-8.28,6.49a51.2,51.2,0,0,0-.71,6.08c-.17,1.49.41,2,1.93,2,9.74-.06,19.48,0,29.22,0,3.35,0,3.34,0,4.54,3.14q10.64,27.74,21.28,55.45c.21.55.46,1.07.69,1.6Z"/><path d="M603,236.51v33.35c0,2.56-.16,2.73-2.63,2.73-5.63,0-11.25,0-16.88,0-1.66,0-2.37-.42-2.37-2.23q.06-54.48,0-109c0-2.18.22-2.39,2.39-2.4h16.88c2.2,0,2.55.36,2.57,2.5,0,2.77,0,5.54,0,8.88,1-.86,1.6-1.34,2.13-1.91,5.49-5.93,12.15-9.88,20.2-10.81,15.16-1.75,27.71,3.35,37.16,15.4,5.32,6.78,8,14.67,8.83,23.21.9,9.07.31,18-3.2,26.49-5.84,14.19-16.34,22.9-31.53,25.32-12,1.91-22.63-1.27-31.36-10-.43-.42-.87-.84-1.32-1.24A4.83,4.83,0,0,0,603,236.51Zm-.4-33.74c0,6,.76,9.59,3.39,14.27,4.49,8,11.43,12.32,20.58,12.19,9.35-.12,16.34-4.67,20.15-13.25a30.46,30.46,0,0,0-.59-27.11c-6.69-13.33-23.34-15.58-33.62-7.63C605.55,186.64,602.6,194.07,602.63,202.77Z"/><path d="M531.14,248.67a72.63,72.63,0,0,1-47-17.91c-1.2-1-1.49-1.82-.36-3.12,3.56-4.12,7-8.32,10.53-12.47,1.54-1.82,1.74-1.83,3.64-.23,6.49,5.46,13.55,9.93,21.88,12a41.42,41.42,0,0,0,19.91.5c5.41-1.3,9.69-4.18,10.78-10.17.83-4.61-.41-8.51-4.41-11.25-4.67-3.2-10.07-4.62-15.46-6-8.31-2.11-16.69-4-24.52-7.62-8.34-3.87-15.1-9.35-17.41-18.68-4.81-19.52,4.39-36,23.56-41.92a54.61,54.61,0,0,1,21.14-1.91,61.54,61.54,0,0,1,23.91,6.63c3.82,2,7.34,4.63,11,7,1.41.89,1.38,1.83.43,3.13q-4.86,6.66-9.56,13.43c-.93,1.35-1.75,1.31-3,.41-6.3-4.6-13.07-8.25-20.78-9.9-5.75-1.24-11.49-1.57-17.13.5-3.35,1.23-6.18,3.16-7.64,6.54-2,4.54-1.28,10.91,4.37,14.2,4.77,2.76,10,4.28,15.24,5.65,7.54,2,15.14,3.67,22.29,6.88,5.12,2.3,9.86,5.14,13.65,9.36,4.4,4.9,6.34,10.75,6.68,17.2.41,7.47-.95,14.56-5.09,20.92-5.66,8.69-14.07,13.23-23.94,15.26C539.68,248,535.38,248.17,531.14,248.67Z"/><path d="M724.44,248.83c-19.06-.84-34.08-9.08-42.13-27.17a45.36,45.36,0,0,1,33.13-63.32c17.62-3.44,32.93,1.34,45.16,14.68,6.38,6.95,9.82,15.35,10.91,24.76,2.79,24.34-13.7,46.3-38.88,50.39C730.08,248.58,727.46,248.6,724.44,248.83Zm4-19.46c4.14-.05,10.63-2.54,15.31-8.46,7.12-9,8-19.11,3.55-29.48-3.73-8.71-10.74-13.63-20.14-14.5-9-.83-16.59,2.28-21.94,9.76-4.42,6.19-5.53,13.18-4.63,20.67C702.13,219.9,712.56,229.37,728.48,229.37Z"/><path d="M784.8,203.14c0-7.56,0-15.11,0-22.66,0-1.75-.57-2.35-2.31-2.25-2.17.13-4.35,0-6.53.05-1.44,0-2.11-.51-2.09-2q0-7.61,0-15.22c0-1.48.64-2.07,2.09-2,2.18,0,4.36-.09,6.53,0,1.74.1,2.33-.49,2.31-2.25-.08-6.22,0-12.44,0-18.66,0-2.31.07-2.37,2.33-2.38,5.74,0,11.49,0,17.23,0,1.77,0,2.33.61,2.31,2.33-.07,6.34,0,12.68-.06,19,0,1.49.46,2,2,2,6.17-.07,12.34,0,18.51,0,2.19,0,2.43.24,2.44,2.36,0,4.9,0,9.79,0,14.68,0,1.67-.62,2.23-2.25,2.22-6.23-.06-12.46,0-18.69,0-1.46,0-2,.37-2,1.92.06,13.23,0,26.46,0,39.69,0,5.53,3,8.33,8.61,8.47a25.22,25.22,0,0,0,11.76-2.4c1.5-.71,2.14-.28,2.15,1.42,0,4.89.07,9.79-.05,14.68a2.89,2.89,0,0,1-1.29,2.09,39.06,39.06,0,0,1-28.46,2.52c-8.61-2.79-12.83-9.2-14.15-17.8a49.89,49.89,0,0,1-.42-7C784.77,215.58,784.81,209.36,784.8,203.14Z"/><path d="M861.11,203v41.14c0,2.54-.13,2.67-2.66,2.67-5.63,0-11.25,0-16.88,0-1.75,0-2.31-.62-2.3-2.34q0-41.5,0-83c0-2.17.25-2.42,2.38-2.43h17.06c2.12,0,2.37.27,2.38,2.44Z"/><path d="M864,133.91a13.7,13.7,0,0,1-13.68,13.89c-7.55,0-14.07-6.3-13.89-13.78a13.79,13.79,0,0,1,27.57-.11Z"/><path d="M1021.74,185.93a13.1,13.1,0,0,1-13.35-13.42,13.38,13.38,0,0,1,13.5-13.54,13.48,13.48,0,1,1-.15,27Zm0-.79a12.68,12.68,0,1,0-12.55-12.76A12.68,12.68,0,0,0,1021.75,185.14Z"/><path d="M1024.8,173.91l3.31,4.91a2.68,2.68,0,0,1-3.53-1.3,7.58,7.58,0,0,0-1.91-2.6,5.45,5.45,0,0,0-3.08-.77c-.32,0-.7,1.28-.89,2-.14.57.11,1.26-.09,1.79a1.77,1.77,0,0,1-1.14,1c-.29,0-1-.59-1-.92-.07-3.93-.08-7.85,0-11.77,0-.36.73-1,1.14-1a60.94,60.94,0,0,1,6.34,0,4.31,4.31,0,0,1,4,3.19,4.24,4.24,0,0,1-2.09,4.77C1025.56,173.38,1025.27,173.59,1024.8,173.91Zm-3.19-1.79c.72-.05,1.58.14,2.13-.18a4,4,0,0,0,1.84-2c.19-.6-.35-2-.79-2.13a35,35,0,0,0-5.44-.65c-.17,0-.45.38-.55.63C1017.75,170.36,1018.9,172.08,1021.61,172.12Z"/></svg>