<svg id="Layer_1" data-name="Layer 1" xmlns="http://www.w3.org/2000/svg" viewBox="0 0 1226.79 376.75"><path d="M778.36,151.72v12H758.83v62.73H744.57V163.7H725v-12Z"/><path d="M789.1,226.43V151.82h49.4v12H803.35v17.78h25.54v12H803.35v20.86h36.28v12Z"/><path d="M852.21,226.43V151.82h49.4v12H866.49v17.78H892v12H866.49v20.86h36.27v12Z"/><path d="M914.71,226.43V151.82H929V185.2h-.2l25.12-33.38h16.43l-21.17,28,24.58,46.6H957.91L939.42,191,929,204v22.43Z"/><path d="M998.41,151.72h17.79l21.17,74.71h-14.15l-4.15-16.12H995.51l-4.43,16.12H976.93Zm.2,46.81H1016l-8.36-32.44h-.2Z"/><path d="M1061.75,181.36l12.82-29.54h14.87l-20.56,44.85v29.76h-14.25V196.67l-20.56-44.85h14.86Z"/><rect x="642.67" y="52.99" width="3.11" height="272.22"/><path d="M440.54,67.3,312.24,251.62V135.17h32.15c4.95-7.24,31.47-45.85,46.6-67.87H153.11v67.87h82V304.28H359.4l43.9-64.55s37.38,54.22,44.48,64.55h86.84L453.53,168.57S503.09,98.2,524.88,67.3Zm114.7-15.76c-2.74,3.86-82.93,117.72-82.93,117.72L562.39,320H439.51c-.75-1.07-36.11-52.41-36.11-52.41S368.49,318.93,367.74,320H219.34V150.92h-82V51.54H420.89c-2.62,3.82-67.45,98.32-68.2,99.38H328v50.5L432.32,51.54Z"/></svg>