<svg id="Layer_1" data-name="Layer 1" xmlns="http://www.w3.org/2000/svg" viewBox="0 0 1226.79 376.75"><path d="M430.32,188.33c-.11-45,36.34-80.73,81.9-80.4,44.09.32,79.73,36.63,79.62,81.11-.1,43.24-36.51,79.39-80.3,79.72A80.8,80.8,0,0,1,430.32,188.33Zm40.15-20.92c-10.72,16.15-6.73,40.21,8.43,54.28,13.08,12.14,38.21,18.44,52.09,7ZM551.24,209c11.21-13.29,7.3-40.25-8.06-54.25-16.06-14.64-41.78-17.41-51.87-7Z"/><path d="M856.09,187.73c-.2-44.22,36.15-80,81.2-79.88,43.42.11,79.55,35.8,79.71,78.75.17,45.81-34.76,81.76-79.84,82.17C892.52,269.17,856.29,233,856.09,187.73Zm121.19-20-61.81,60.81c17.08,10.88,41.63,6.58,56.28-10C984.91,203.66,987.39,177.53,977.28,167.74Zm-21.41-20.39c-14-10.34-38.8-6.07-53.79,9.93-13.74,14.68-16.51,38.39-6.6,50.29Z"/><path d="M731.67,265.63V109.31c12.93,0,25.23-.32,37.51.09,13.45.44,27.72-1.07,40.15,2.88,35.29,11.21,42.66,54.52,14.42,78.27a25.48,25.48,0,0,0-2.41,3.32l14.34-2.11c16.49,17.56,10.45,52.32-12,66.56-6.79,4.3-15.33,7.62-23.25,8.06-21,1.17-42.09.54-63.15.53C735.65,266.91,734,266.19,731.67,265.63Zm34.06-32.83c11.63,0,22.56.75,33.32-.27,7.28-.68,11.38-6.42,11.67-13.91.3-7.9-3.8-14.28-11.21-15.18-10.92-1.33-22.13-.35-33.78-.35Zm-.56-64.75c11.57,0,21.72,1,31.44-.52,3.9-.63,9.57-7,9.54-10.78,0-4.36-4.89-11.8-8.59-12.43-10.18-1.73-20.84-.6-32.39-.6v24.33Z"/><path d="M315.72,110.7c21.35,0,42.1-2.49,61.94.68,21.18,3.37,34.38,19,38.74,40.4,4.26,21-2.07,38.51-18.86,52.1a16.06,16.06,0,0,0-1.58,1.46c4.28,4.11,8.93,7.73,12.51,12.2,12.39,15.42,24.4,31.15,37.86,48.43H403.1l-39.2-50H349.24V266H315.72ZM349.5,180c15.22,3.64,25.67,1.11,31-7.46,4.76-7.66,4.06-15.31-1.27-22.42-5.52-7.37-17-9.38-29.73-5.22Z"/><path d="M571.82,109.63h40.32l36.52,57.82L685,109.88h40.26c-10,16-19.19,30.74-28.41,45.48-8.69,13.89-17.77,27.56-25.88,41.77a41.26,41.26,0,0,0-5.13,17.62c-.78,13.75-.3,27.57-.4,41.37,0,3.08-.38,6.16-.64,10h-33c0-8.48-.74-16.75.14-24.84,2.73-25.2-4.23-46.9-19.47-67.28-13.56-18.13-24.71-38.06-36.89-57.22C574.43,115,573.55,113,571.82,109.63Z"/><path d="M214.51,266.16V143H160.77V110.14H300.51v32.68H248.93V266.16Z"/><path d="M1066,266.42h-32.18V110.21H1066Z"/><path d="M591.61,99.34c-8.56-.14-14.45-6.15-14.51-14.8-.06-8.14,6.63-14.36,15.11-14.06,8.1.29,14.07,6.32,14.12,14.26A14.41,14.41,0,0,1,591.61,99.34Z"/><path d="M246,291.94a14.5,14.5,0,0,1-15.06,14.28,14.28,14.28,0,0,1-14-14.37,14.5,14.5,0,0,1,14.53-14.74A14.69,14.69,0,0,1,246,291.94Z"/><path d="M719.71,85.09c0,8.64-5.91,14.32-14.79,14.15-8.13-.16-14-6-14.06-14.14-.07-8.59,6-14.77,14.43-14.7C713.91,70.48,719.68,76.35,719.71,85.09Z"/><path d="M1050.32,306.34a14.45,14.45,0,0,1-14.74-14.58,14.63,14.63,0,0,1,14.7-14.67,14.63,14.63,0,0,1,0,29.25Z"/></svg>