<svg id="Layer_1" data-name="Layer 1" xmlns="http://www.w3.org/2000/svg" viewBox="0 0 1226.79 376.75"><path d="M559.5,59.52V292.43H53.06V59.52ZM197.28,119.07c-1.52,16.69-2.81,32.82-4.52,48.9-1,9.64-1.64,19.54-4.4,28.73-3.25,10.79-15.06,16.32-25.9,14-10.3-2.15-15.37-9-14.85-21.78s2-25.89,3-38.83c.84-10.24,1.72-20.48,2.63-31.21H132.21c-1,10-2.08,19.59-2.78,29.22-1.16,15.86-2.91,31.74-2.85,47.6.08,18.83,12.76,32.41,31.13,35.63,27.09,4.73,51-13.4,54.37-41.53,1.52-12.56,2.6-25.19,3.7-37.8.95-10.84,1.64-21.7,2.48-33Zm114.56,79.68c-5.23,3.27-8.89,6-12.89,8-15.84,7.92-34.56,4.62-43.46-7.44-15.05-20.37-2.21-54.82,22.43-60.46,14-3.19,26.33-.2,38.1,10.55.73-9.36,1.34-17.29,2-25.89-6.4-2.15-11.75-4.65-17.38-5.74-38.94-7.52-72,20.41-72.68,61.17-.34,19.85,5.66,36.9,24,46.74,19.19,10.3,38.57,8.67,57.35-1.76C310.15,215.59,310.92,207.88,311.84,198.75Zm184,30.39c-13.69-39.09-26.92-76.86-41-117L395.47,228c17.38,4.23,20,3,27.88-10.67,1.36-2.36,4.59-5,7.06-5.11,12.29-.52,24.6-.24,37.16-.24,2.13,6,4.06,11.42,6.11,17.18Zm-104.81.05c.35-7,.65-12.92,1-20.2H349.92c2.54-30.66,5-60,7.47-89.86H336.21c-3.23,37-6.41,73.29-9.63,110.06Z"/><path d="M613.61,106.23H670.8c.4.58.81,1.15,1.21,1.72-1.61,1.36-3,3.55-4.85,4C653,115,652.07,116,652,130.66c0,12,0,24,0,36.81h60c0-15.41.28-30.6-.13-45.77-.19-7-6.1-8.3-11.72-9.54-2.47-.55-4.77-1.9-7.15-2.89.24-.9.49-1.81.73-2.72h56.52l1.12,1.62c-1.74,1.3-3.29,3.31-5.23,3.79-11.81,2.89-13.35,4.25-13.41,16.34q-.24,46.81,0,93.63c.07,11.56,1.62,12.87,13,15.68,2.28.57,4.22,2.49,6.31,3.79-.36.82-.72,1.64-1.09,2.45H695.19c-2.3-5.3,1.2-5.57,4.54-6.36,11.81-2.82,12.47-3.64,12.52-15.71.08-14.89,0-29.78,0-45.44H652.39c0,17.2-.23,34.31.14,51.41.11,4.91,3.55,8.19,8.78,9,3.46.55,6.89,1.26,13,2.39-3.12,2.74-4.59,5.14-6.09,5.17-16.91.27-33.83.25-50.74,0-1.59,0-3.17-1.9-6.41-4,4.1-1.46,6-2.39,8.09-2.84,10.92-2.37,12.71-4.34,12.77-15.79.1-20.81,0-41.62,0-62.43,0-10.72.12-21.46-.05-32.18s-2.21-12.87-12.67-15C615,111.32,615,111.32,613.61,106.23Z"/><path d="M1064.4,240.24c14.65-7.09,14.65-7.09,14.65-24.73,0-29.6-.12-59.21.07-88.82.05-7.43-1.29-12.87-10.21-13.34-1.46-.08-2.78-2.66-4.16-4.09,1.49-1,3-2.76,4.47-2.81,9-.26,18-.13,27.78-.13v59.09c3.19-3.67,4.81-5.67,6.56-7.54,8.75-9.36,19.39-12.65,31.88-9.72,12.28,2.89,18.94,11.26,20.62,23.18,1.31,9.27,1.29,18.75,1.58,28.15.23,7.8,0,15.61,0,23.42,0,11,.07,10.87,10.41,15.06,1.55.63,2.56,2.58,3.82,3.92l-1,1.8h-31.32c-.2-3.52-.56-7-.57-10.41-.06-16.92,0-33.84-.07-50.75a83.22,83.22,0,0,0-.94-12.63c-2.37-14.63-16.16-19.79-27.6-10.24-9.12,7.61-12.48,18.11-12.85,29.51-.39,12.35.06,24.72-.15,37.08-.12,6.65,2.43,10.32,9.26,11.28,2.4.34,4.57,2.32,6.84,3.56-.31,1-.61,2-.92,3-15.38,0-30.76,0-46.14-.16C1065.8,244,1065.11,241.55,1064.4,240.24Z"/><path d="M908.58,185V174.51c0-15.49-4.59-20.59-20.07-20.71-5.93,0-11.87,1.75-19.21,2.93,2.93,3.53,5.68,5.34,5.87,7.39.4,4.2.87,9.75-1.4,12.46s-8.46,4.41-11.84,3.29-7.51-6.49-7.26-9.68a23.32,23.32,0,0,1,6.79-14.09c12.14-11.26,42.6-12.29,56.27-2.75,7.08,4.93,9.4,12.19,9.45,20.36.08,15.61,0,31.22.05,46.83,0,2.6-.47,5.42.36,7.75s3.29,6.33,4.6,6.16c2.59-.32,5.42-2.59,7.14-4.83,1.95-2.53,2.79-5.91,4.9-8.56,3.48,10.5-1.76,20.57-11,23.46-11.25,3.54-17.83-.3-23.61-14.4-8.37,14-21.28,17.65-36,16.41a36.75,36.75,0,0,1-13-3.6c-13.53-6.74-16.53-23-5.44-33.2,6.3-5.79,14.28-10.15,22.17-13.7C887.07,191.66,897.47,188.8,908.58,185Zm.49,8-2.45-1.69c-7.72,3.65-15.76,6.75-23,11.13-4.24,2.56-7.89,6.75-10.66,11-4.46,6.78-3.27,17,1.59,21.61,5.1,4.87,14.73,5.47,21.42-.17,4.47-3.79,9.07-9.07,10.46-14.49C908.66,211.52,908.32,202.08,909.07,192.93Z"/><path d="M836.55,222.81c-.76,2.39-.93,5.23-2.36,7.11-16.77,22.09-51.87,22.65-69.92,1.26-16.27-19.29-16.12-50.29.72-69.13,10.44-11.69,23.54-17,39.36-14.18,16.33,2.91,26.71,12.74,31.6,28.28,1.91,6.07,2.67,12.51,4.29,20.43H775.39c-3,16.2,3.46,33.85,15,39.44,18.42,8.95,31.67-.52,43.19-14.43Zm-17.31-33.46c-1.35-13.29-.8-26.45-13.73-33.44-7.27-3.93-15.5-3.54-22,2.21-9.38,8.34-9.48,19.64-9.55,31.23Z"/><path d="M994.3,244H947.2c-2.39-5.55,1.22-6.15,4.53-6.43,7.54-.62,9.64-5.13,9.61-11.93q-.15-50.22,0-100.44c0-6.79-2.13-11.23-9.83-11.72-2-.12-3.9-2.31-5.85-3.56.29-.94.58-1.88.88-2.82H980V117q0,53.15,0,106.29c0,11.36.07,11.27,10.82,14.62,1.85.58,3.36,2.27,5,3.44Z"/><path d="M1056.87,213.4c2,1.76,4,2.68,4.33,4,3.16,13.37-6.07,27.22-19.13,29.1-19.09,2.75-30.39-4.75-30.89-21.51-.57-18.83-.19-37.68-.22-56.52V157.18l-15.62-1.91c1.89-2.8,2.93-5.88,4.19-6,15-1.06,18.77-11.74,21.51-23.77.75-3.33.42-8.55,8.17-6.88v30h27.45c2.18,5.32.65,7.45-4.1,7.48-7.1,0-14.21,0-21,0-.84,1.72-1.61,2.56-1.62,3.4q-.17,34.59-.16,69.18c0,5.69,2.08,10.16,8.39,11.38a13,13,0,0,0,14.6-8.78C1054.66,226,1055.37,220.18,1056.87,213.4Z"/><path d="M452.22,158c3.31,11.37,6.62,22.74,10.19,35H435c5.36-12,10.42-23.38,15.49-34.73Z"/></svg>