<?xml version="1.0" encoding="utf-8"?>
<!-- Generator: Adobe Illustrator 25.3.1, SVG Export Plug-In . SVG Version: 6.00 Build 0)  -->
<svg version="1.1" id="Layer_1" xmlns="http://www.w3.org/2000/svg" xmlns:xlink="http://www.w3.org/1999/xlink" x="0px" y="0px"
	 viewBox="0 0 1226.8 376.7" style="enable-background:new 0 0 1226.8 376.7;" xml:space="preserve">
<style type="text/css">
	.st0{fill:#FFFFFF;}
</style>
<g>
	<path d="M749.6,145.9c4.5,2.2,9,4.3,13.4,6.6c13.6,7,26.2,15.3,37.4,25.7c8.8,8.2,16.4,17.4,21.7,28.3c3.8,7.8,6.1,15.9,6.7,24.5
		c0.1,0.9-0.2,1.4-0.9,1.8c-7.5,4.9-15.5,8.7-23.7,12.4c-21,9.3-42.4,17.2-64.8,22.3c-7.9,1.8-16,3.1-24,4.7c-0.3,0.1-0.7,0-1.1,0.1
		c0-0.5,0-1,0-1.5c0-24.6,0-49.2,0.1-73.7c0.1-10.9-3.2-20.6-9.2-29.5c-1.1-1.7-2.4-3.3-3.7-4.9c-0.2-0.3-0.8-0.5-1.2-0.4
		c-9.2,1.8-18.3,3.8-27.5,5.3c-7.9,1.3-15.9,2.1-23.8,2.9c-13.6,1.4-27.3,1.8-41,1.6c-12.6-0.2-25.2-1-37.7-2.4
		c-14.1-1.6-28.1-4-41.9-7.3c-0.9-0.2-1.4-0.1-2,0.6c-6.2,7.7-10.6,16.3-12,26.2c-0.4,2.5-0.5,5-0.5,7.5c0,24.8,0.1,49.5,0.1,74.3
		c0,0.4,0,0.9,0,1.5c-2.1-0.3-4-0.6-5.9-0.9c-25.5-4.2-50-12.1-73.9-22c-10.3-4.3-20.5-8.8-30.2-14.4c-1.3-0.8-2.6-1.7-4-2.5
		c-0.6-0.3-0.7-0.8-0.7-1.4c0.6-8.6,2.9-16.8,6.7-24.6c4.9-10,11.6-18.7,19.6-26.4c11.1-10.8,23.8-19.4,37.5-26.7
		c4.8-2.6,9.8-4.8,14.7-7.2c0.3-0.1,0.5-0.3,1-0.5c-0.6-0.3-1-0.5-1.5-0.7c-13-5.8-25.3-12.6-36.8-21.1
		c-11.9-8.8-22.5-18.9-30.4-31.6c-5.5-8.9-9.2-18.4-10.5-28.9c0-0.3,0-0.6-0.1-0.9c-0.8-2.6,0.5-3.8,2.6-5.1
		c7.4-4.4,15.1-8.2,22.9-11.6C443.5,38,462.4,31,482,25.9c10-2.6,20.1-4.8,30.3-6.2c0.4-0.1,0.9-0.1,1.5-0.1c0,0.6,0,1.1,0,1.6
		c0,24.8-0.1,49.7-0.1,74.5c0,12.9,4.9,23.9,13,33.7c0.2,0.3,0.9,0.4,1.4,0.3c4.7-1,9.4-2.2,14.1-3c9.9-1.6,19.8-3.2,29.7-4.4
		c16.6-2.1,33.3-2.6,50.1-2.3c12.8,0.2,25.6,1.1,38.3,2.7c13.4,1.6,26.6,3.9,39.7,7.1c0.8,0.2,1.3,0,1.8-0.6
		c6.1-7.6,10.5-16.1,12-25.8c0.4-2.5,0.6-5.1,0.6-7.7c0-24.8-0.1-49.5-0.1-74.3c0-0.5,0-1,0-1.7c1.2,0.2,2.3,0.3,3.4,0.4
		c14.8,2.3,29.4,5.8,43.7,10.4c20,6.4,39.5,14,58.1,23.7c2.8,1.4,5.4,3.2,8.1,4.7c1.2,0.7,1.4,1.5,1.3,2.8
		c-0.8,9.6-3.7,18.5-8.3,26.9c-5.4,9.9-12.6,18.4-20.9,26c-13,11.9-27.8,20.9-43.6,28.5c-2.1,1-4.2,2-6.3,2.9
		C749.6,145.8,749.6,145.9,749.6,145.9z M545.9,145.7c0,0.1,0,0.3,0.1,0.4c1.2,0.7,2.3,1.4,3.5,2.1c15,8.4,31.3,12.7,48.3,14.3
		c12,1.1,24,1,36-0.4c11.7-1.4,23.1-4.2,33.9-8.7c4.9-2.1,9.7-4.5,14.3-7.4c-0.5-0.3-0.8-0.5-1.2-0.8c-14.3-8.6-29.8-13.2-46.2-15.3
		c-13-1.6-26-1.7-39-0.3c-13.1,1.4-25.7,4.5-37.7,9.9C553.9,141.4,549.9,143.6,545.9,145.7z"/>
	<path d="M723.9,344.6c0.9-1.6,1.8-3.1,2.6-4.6c2.1-4.1,4.1-8.2,6.2-12.3c0.4-0.7,0.7-1.4,1.1-2.1c1.4-2.5,3.3-3.8,6.3-3.6
		c3.5,0.2,7.1,0,10.6,0c1.8,0,2.3,0.5,2.3,2.2c0,10.4,0,20.9,0,31.3c0,1.4-0.4,1.9-1.8,2c-2.3,0.1-4.6,0.1-7,0
		c-1.5,0-1.9-0.6-1.9-2.1c0-7,0-13.9,0-20.9c0-0.4,0-0.8,0-1.6c-0.4,0.6-0.6,0.9-0.8,1.3c-4.1,7.4-8.1,14.8-12.1,22.3
		c-0.4,0.8-0.9,1-1.8,1c-2.5-0.1-5-0.1-7.5,0c-0.8,0-1.3-0.3-1.7-1c-4-7.5-8-14.9-12.1-22.3c-0.2-0.3-0.4-0.7-0.7-1.2
		c0,0.7-0.1,1-0.1,1.4c0,6.8,0,13.7,0,20.5c0,2.1-0.5,2.6-2.6,2.6c-1.9,0-3.9,0-5.8,0c-1.8,0-2.3-0.6-2.3-2.3c0-10.3,0-20.5,0-30.8
		c0-1.9,0.5-2.4,2.4-2.4c3.8,0,7.7,0,11.5,0c1.7,0,3.1,0.6,4.1,1.9c0.9,1.1,1.6,2.4,2.3,3.7c2.7,5.3,5.4,10.5,8.1,15.8
		C723.4,343.7,723.6,344.1,723.9,344.6z"/>
	<path d="M421.7,357.6c-1.1,0-2.2,0-3.2,0c-3.7,0-7.4,0-11.1,0c-2.4,0-4.2-1-5.7-2.9c-5.8-7.2-11.6-14.4-17.4-21.7
		c-0.1-0.2-0.3-0.3-0.6-0.7c0,0.6,0,1,0,1.4c0,7.1,0,14.3,0,21.4c0,1.9-0.5,2.4-2.3,2.4c-2.1,0-4.1,0-6.2,0c-1.7,0-2.2-0.5-2.2-2.3
		c0-10.2,0-20.4,0-30.5c0-2.4,0.5-2.8,2.8-2.8c3.6,0,7.2,0.1,10.8,0c1.9-0.1,3.5,0.5,4.8,1.8c2.1,2.2,4.1,4.5,6,6.8
		c4.2,5.3,8.3,10.6,12.5,16c0.1,0.1,0.2,0.2,0.5,0.3c0-0.4,0-0.8,0-1.2c0-7,0-13.9,0-20.9c0-2.4,0.5-2.8,2.8-2.8c2.1,0,4.3,0,6.4,0
		c1.7,0,2.2,0.6,2.2,2.3c0,10.8,0,21.6,0,32.4C421.8,356.9,421.7,357.2,421.7,357.6z"/>
	<path d="M781.2,357.6c-4.3,0-8.6-0.1-12.9,0c-7.5,0.3-9.9-3.9-10.6-8.7c-1-6.1-1-12.3-0.1-18.4c0.9-5.6,4.8-8.7,10.9-8.7
		c6.9-0.1,13.9,0,20.9,0c2,0,4.1-0.1,6.1,0.2c5.7,0.8,8.7,3.7,9.3,9.3c0.7,5.8,0.6,11.7-0.2,17.5c-0.1,0.9-0.4,1.7-0.6,2.5
		c-1.4,4.1-4.2,6.2-8.5,6.2C790.8,357.7,786,357.6,781.2,357.6C781.2,357.6,781.2,357.6,781.2,357.6z M781.3,348.5
		c2.2,0,4.5,0,6.7,0c3,0,4.7-1.3,5.1-4.2c0.3-2.8,0.4-5.6,0.3-8.4c-0.1-3.1-1.7-4.7-4.9-4.9c-2.5-0.2-4.9-0.1-7.4-0.1
		c-2.4,0-4.9,0-7.3,0.2c-2.4,0.2-4,1.6-4.1,4c-0.2,3.2-0.2,6.4,0.1,9.5c0.3,2.8,2,4,4.9,4C776.9,348.5,779.1,348.5,781.3,348.5z"/>
	<path d="M686.4,343.6c3,0.7,4.3,2.8,4.6,5.3c0.3,2.4,0.2,4.8,0.3,7.3c0,0.9-0.5,1.4-1.5,1.4c-2.8,0-5.7,0-8.5,0
		c-1.3,0-1.7-0.4-1.9-1.6c-0.1-0.8,0-1.7-0.1-2.5c0-0.8,0-1.6-0.2-2.4c-0.4-1.7-1.2-2.4-3-2.4c-4.3,0-8.6,0-12.9,0
		c-0.7,0-1.2-0.2-1.5-0.9c-1-2-2.1-4-3.3-6.3c0,0.6-0.1,0.9-0.1,1.2c0,4.3,0,8.5,0,12.8c0,1.5-0.5,2-1.9,2c-2.8,0-5.7,0-8.5,0
		c-1,0-1.5-0.5-1.5-1.5c0-10.3,0-20.6,0-30.9c0-2.2,1.1-3.2,3.3-3.2c10.9,0,21.8,0,32.7,0c1,0,2.1,0.1,3,0.3c3.2,0.7,4.8,3,5.5,6
		c0.7,3.1,0.7,6.3,0.2,9.5c-0.3,1.9-1.2,3.4-2.9,4.5C687.6,342.7,687.1,343.1,686.4,343.6z M658,339.2c0.4,0,0.7,0.1,0.9,0.1
		c4.8,0,9.6,0,14.4,0c1.3,0,2.7-0.2,3.9-0.4c1.8-0.4,2.4-1.2,2.4-3.1c0-3.6-0.6-4.3-4.2-4.3c-5,0-10,0-15,0c-0.5,0-1-0.1-1.3,0.1
		c-0.4,0.3-1,0.8-1,1.2C658,334.8,658,336.9,658,339.2z"/>
	<path d="M870.6,341.9c0,0.4,0,0.8,0,1.2c0,4.1,0,8.2,0,12.3c0,1.6-0.5,2.1-2.1,2.1c-2.8,0-5.6,0-8.4,0c-1,0-1.5-0.5-1.5-1.5
		c0-10.3,0-20.7,0-31c0-2,1.1-3,3-3c11.1,0,22.3,0,33.4,0c4.8,0,7.6,2.4,8.2,7.2c0.3,2.5,0.3,5.1,0.2,7.6c-0.1,2.5-1.2,4.5-3.5,5.8
		c-0.3,0.2-0.6,0.4-0.9,0.6c-0.1,0-0.1,0.1-0.2,0.3c3.4,0.9,4.3,3.5,4.6,6.5c0.2,2,0.1,4,0.1,6c0,1-0.5,1.4-1.5,1.4
		c-2.9,0-5.8,0-8.7,0c-1.1,0-1.7-0.5-1.8-1.5c-0.1-0.8-0.1-1.5-0.1-2.3c0-0.8,0-1.5-0.1-2.3c-0.2-2-1.2-2.8-3.2-2.8
		c-4.2,0-8.4,0-12.5,0c-1,0-1.5-0.3-1.9-1.2c-0.9-1.9-2-3.8-3-5.7C870.8,341.9,870.7,341.9,870.6,341.9z M870.4,339.2
		c0.4,0,0.6,0.1,0.8,0.1c4.8,0,9.6,0,14.5,0c1.4,0,2.9-0.3,4.3-0.5c1-0.2,1.8-0.8,1.9-1.9c0.1-1.6,0.5-3.3-0.8-4.7
		c-0.2-0.3-0.7-0.4-1-0.5c-0.6-0.1-1.1-0.2-1.7-0.2c-5.4,0-10.7,0-16.1,0c-0.4,0-0.8,0-1.1,0.2c-0.3,0.2-0.8,0.6-0.8,0.9
		C870.4,334.7,870.4,336.9,870.4,339.2z"/>
	<path d="M532.7,341.9c0,3,0,6.1,0,9.1c0,1.6,0,3.2,0,4.8c0,1.1-0.6,1.7-1.6,1.7c-3.1,0.1-6.2,0.1-9.2,0c-0.9,0-1.2-0.7-1.2-1.6
		c0-4.1,0-8.1,0-12.2c0-6.1,0-12.2,0-18.3c0-2.5,1-3.5,3.4-3.5c10.8,0,21.5,0,32.3,0c0.8,0,1.5,0,2.3,0.1c3.9,0.6,6.1,2.8,6.7,7
		c0.4,2.9,0.2,5.9,0.1,8.8c-0.1,1.8-1.1,3.3-2.7,4.3c-0.6,0.4-1.1,0.8-1.8,1.3c4,1.2,4.6,4.4,4.8,7.8c0.1,1.6,0,3.2,0,4.8
		c0,1-0.4,1.5-1.4,1.5c-2.9,0-5.9,0-8.8,0c-1,0-1.6-0.5-1.7-1.5c-0.1-0.8-0.1-1.6-0.1-2.4c0-0.8,0-1.6-0.1-2.4
		c-0.3-1.8-1.2-2.6-3.1-2.6c-4.2,0-8.4,0-12.5,0c-1,0-1.5-0.2-1.9-1.1c-0.9-1.9-2-3.8-3-5.7C532.9,341.9,532.8,341.9,532.7,341.9z
		 M532.5,339.2c0.4,0,0.6,0.1,0.9,0.1c4.8,0,9.6,0,14.5,0c1.1,0,2.1-0.1,3.2-0.3c2.4-0.4,3-1.2,3-3.6c0-3.3-0.6-3.9-3.9-4
		c-4.6,0-9.1,0-13.7,0c-0.9,0-1.7,0-2.6,0.1c-0.8,0.1-1.4,0.4-1.4,1.3C532.5,334.9,532.5,337,532.5,339.2z"/>
	<path d="M437.2,350.8c0,2.2,0,4.4,0,6.7c-3.7,0-7.4,0-11,0c0-11.8,0-23.5,0-35.5c0.4,0,0.8,0,1.2,0c10.2,0,20.4-0.1,30.5,0
		c2.1,0,4.3,0.3,6.4,1c4.7,1.5,7.6,4.9,7.8,9.9c0.3,5.1,0.2,10.3-0.2,15.5c-0.5,5.3-3.5,8-8.8,8.8c-1.7,0.3-3.4,0.4-5.1,0.4
		c-5.4,0.1-10.7,0-16.1,0c-0.8,0-1.2-0.3-1.5-1c-0.9-2-1.9-3.9-2.9-5.9C437.4,350.7,437.3,350.7,437.2,350.8z M437.2,331.6
		c0,5.5,0,11,0,16.6c1,0,1.8,0,2.7,0c5.5,0,11.1,0,16.6-0.1c2.5-0.1,4-1.4,4.4-3.8c0.6-3.1,0.5-6.3-0.3-9.4
		c-0.6-2.3-1.6-3.3-3.9-3.3c-6.5-0.1-12.9-0.1-19.4-0.1C437.3,331.5,437.3,331.6,437.2,331.6z"/>
	<path d="M487.9,338.3c0,3,0,5.9,0,8.9c0,1.3,0.6,1.7,2,1.7c7.8,0,15.7,0,23.5,0c2.5,0,3,0.5,3,3c0,1.3,0,2.6-0.1,3.9
		c-0.1,1.5-0.6,1.9-2,1.9c-10.2,0-20.4,0.1-30.5,0c-4.2,0-6.8-2.6-6.9-7c-0.2-7.3-0.1-14.6,0-21.9c0.1-3.7,3.1-6.4,6.9-6.5
		c3-0.1,5.9,0,8.9,0c6.9,0,13.8,0,20.6,0c2.1,0,2.5,0.4,2.6,2.5c0,1.5,0,3,0,4.4c-0.1,1.3-0.5,1.8-1.9,1.9c-0.6,0-1.3,0-1.9,0
		c-7.2,0-14.4,0-21.5,0c-1.8,0-2.2,0.5-2.3,2.2c0,0.2,0,0.3,0,0.5c0,2,0.1,2.2,2.2,2.2c6.3,0,12.5,0,18.8,0c0.8,0,1.3,0.2,1.6,1
		c0.8,1.8,1.8,3.5,2.6,5.3c0.6,1.4,0.3,1.9-1.2,1.9c-1.2,0-2.4,0-3.6,0c-5.4,0-10.9,0-16.3,0c-0.8,0-1.2-0.3-1.5-1
		c-0.8-1.7-1.7-3.3-2.5-4.9C488,338.3,488,338.3,487.9,338.3z"/>
	<path d="M809.2,334.6c0-3.4,0-6.8,0-10.3c0-1.8,0.5-2.4,2.4-2.4c2.3-0.1,4.6,0,6.8,0c1.7,0,2.2,0.6,2.2,2.3c0,6.2,0,12.3,0,18.5
		c0,3.9,1.6,5.5,5.5,5.5c3.7,0,7.4,0,11.1,0c3.8,0,5.4-1.6,5.4-5.4c0-6,0-12,0-18c0-2.5,0.4-2.9,2.9-2.9c2,0,4,0,6,0
		c2,0,2.5,0.6,2.5,2.6c0,6.2,0.1,12.4,0,18.6c0,2-0.2,4.1-0.7,6.1c-1.2,4.8-5.1,7.9-10.5,8.2c-5.9,0.3-11.8,0.2-17.7,0.2
		c-2,0-4.1-0.1-6.1-0.4c-5.7-1-9.2-4.7-9.6-10.5c-0.3-4-0.1-8-0.1-12.1C809.3,334.6,809.2,334.6,809.2,334.6z"/>
	<path d="M323.8,335.1c0-3.5,0-6.9,0-10.4c0-2.3,0.5-2.8,2.7-2.8c2.1,0,4.1,0,6.2,0c2,0,2.5,0.5,2.5,2.5c0,5.4,0,10.7,0,16.1
		c0,0.8,0,1.6,0,2.4c0,3.7,1.6,5.3,5.4,5.3c3.8,0,7.5,0,11.3,0c0.2,0,0.3,0,0.5,0c3.3-0.2,4.8-1.8,4.9-5.1c0-6,0-12,0-18
		c0-0.5,0-1,0-1.5c0.1-1,0.6-1.6,1.5-1.7c2.8,0,5.5,0,8.3,0c1,0,1.6,0.7,1.6,1.7c0,7.3,0.1,14.6-0.1,21.9c0,1.7-0.5,3.6-1.2,5.2
		c-1.8,4.3-5.5,6.2-9.9,6.5c-3.5,0.3-7.1,0.2-10.6,0.2c-3.9,0-7.8,0.1-11.6-0.2c-6.8-0.4-11-4.8-11.3-11.6c-0.2-3.6,0-7.1,0-10.7
		C323.9,335.1,323.9,335.1,323.8,335.1z"/>
	<path d="M643.2,357.7c-4.1,0-7.9,0-11.7,0c-0.3,0-0.7-0.4-0.9-0.7c-0.9-1.5-1.8-3.1-2.6-4.7c-0.3-0.6-0.7-0.8-1.4-0.8
		c-4.2,0-8.4,0-12.6,0c-0.8,0-1.1-0.3-1.4-0.9c-0.8-2-1.8-4-2.7-6.2c-0.6,1-1,1.8-1.5,2.7c-1.8,3.3-3.6,6.6-5.4,9.9
		c-0.2,0.3-0.6,0.8-0.9,0.8c-3.8,0.1-7.6,0-11.6,0c0.2-0.6,0.2-1,0.4-1.4c6.2-11.2,12.3-22.3,18.5-33.4c0.2-0.3,0.7-0.7,1.1-0.7
		c3.3-0.1,6.7,0,10,0c1.7,0,3.2,0.6,4.3,1.8c1,1.1,1.8,2.3,2.6,3.6c5.1,9.3,10.2,18.6,15.3,28C642.7,356.2,642.9,356.9,643.2,357.7z
		 M622.8,342.9c-1.8-3.5-3.5-6.8-5.2-10.1c-0.1-0.3-0.4-0.5-0.6-0.7c-0.2,0.2-0.6,0.5-0.7,0.8c-1.7,3-3.3,6-5,9.1
		c-0.6,1.1-0.4,1.4,0.7,1.4c3.2,0,6.4,0,9.6,0C621.9,343.2,622.3,343,622.8,342.9z"/>
</g>
</svg>
