<svg width="924.8" height="140" viewBox="0 0 924.8 140" xmlns="http://www.w3.org/2000/svg"><g id="svgGroup" stroke-linecap="round" fill-rule="evenodd" font-size="9pt" stroke="#000" stroke-width="0.25mm" fill="none" style="stroke:#000;stroke-width:0.25mm;fill:none"><path d="M 44.8 140 L 44.8 26.4 L 0 26.4 L 0 0 L 122 0 L 122 26.4 L 77.2 26.4 L 77.2 140 L 44.8 140 Z" id="0" vector-effect="non-scaling-stroke"/><path d="M 235.4 0 L 267.8 0 L 267.8 140 L 235.4 140 L 235.4 82.6 L 171.8 82.6 L 171.8 140 L 139.4 140 L 139.4 0 L 171.8 0 L 171.8 55.2 L 235.4 55.2 L 235.4 0 Z" id="1" vector-effect="non-scaling-stroke"/><path d="M 333.2 114 L 409.4 114 L 409.4 140 L 301 140 L 301 0 L 406.8 0 L 406.8 26 L 333.2 26 L 333.2 56.4 L 398.2 56.4 L 398.2 81.6 L 333.2 81.6 L 333.2 114 Z" id="2" vector-effect="non-scaling-stroke"/><path d="M 597.6 26 L 524.2 26 L 524.2 63 L 589 63 L 589 89 L 524.2 89 L 524.2 140 L 491.8 140 L 491.8 0 L 597.6 0 L 597.6 26 Z" id="4" vector-effect="non-scaling-stroke"/><path d="M 718.4 140 L 706 110 L 641 110 L 628.6 140 L 595.4 140 L 657.8 0 L 689.8 0 L 752.4 140 L 718.4 140 Z M 651.4 85.4 L 695.8 85.4 L 673.6 31.8 L 651.4 85.4 Z" id="5" vector-effect="non-scaling-stroke"/><path d="M 924.8 140 L 894.4 140 L 894.2 56 L 853 125.2 L 838.4 125.2 L 797.4 57.8 L 797.4 140 L 767 140 L 767 0 L 793.8 0 L 846.2 87 L 897.8 0 L 924.4 0 L 924.8 140 Z" id="6" vector-effect="non-scaling-stroke"/></g></svg>