<svg width="1463.8" height="144.804" viewBox="0 0 1463.8 144.804" xmlns="http://www.w3.org/2000/svg"><g id="svgGroup" stroke-linecap="round" fill-rule="evenodd" font-size="9pt" stroke="#000" stroke-width="0.25mm" fill="none" style="stroke:#000;stroke-width:0.25mm;fill:none"><path d="M 192.8 2.402 L 223.8 2.402 L 178 142.402 L 143.2 142.402 L 112.4 47.602 L 80.6 142.402 L 46 142.402 L 0 2.402 L 33.6 2.402 L 65.2 100.802 L 98.2 2.402 L 128.2 2.402 L 160.2 101.602 L 192.8 2.402 Z" id="0" vector-effect="non-scaling-stroke"/><path d="M 340.8 2.402 L 373.2 2.402 L 373.2 142.402 L 340.8 142.402 L 340.8 85.002 L 277.2 85.002 L 277.2 142.402 L 244.8 142.402 L 244.8 2.402 L 277.2 2.402 L 277.2 57.602 L 340.8 57.602 L 340.8 2.402 Z" id="1" vector-effect="non-scaling-stroke"/><path d="M 449.828 141.488 A 87.119 87.119 0 0 0 474.2 144.802 A 95.761 95.761 0 0 0 482.22 144.471 A 78.704 78.704 0 0 0 513.4 135.402 Q 530.8 126.002 540.8 109.502 A 67.764 67.764 0 0 0 546.39 97.953 A 72.799 72.799 0 0 0 550.8 72.402 A 83.332 83.332 0 0 0 550.761 69.843 A 69.59 69.59 0 0 0 540.8 35.302 Q 530.8 18.802 513.4 9.402 A 75.614 75.614 0 0 0 498.461 3.294 A 86.783 86.783 0 0 0 474.2 0.002 A 96.294 96.294 0 0 0 466.833 0.28 A 79.543 79.543 0 0 0 434.9 9.402 Q 417.4 18.802 407.5 35.302 Q 397.6 51.802 397.6 72.402 Q 397.6 93.002 407.5 109.502 Q 417.4 126.002 434.9 135.402 A 76.452 76.452 0 0 0 449.828 141.488 Z M 474.2 117.202 A 46.411 46.411 0 0 0 489.272 114.805 A 42.37 42.37 0 0 0 496.6 111.502 Q 506.6 105.802 512.3 95.602 A 44.991 44.991 0 0 0 517.727 77.955 A 55.434 55.434 0 0 0 518 72.402 A 50.649 50.649 0 0 0 516.196 58.663 A 43.309 43.309 0 0 0 512.3 49.202 Q 506.6 39.002 496.6 33.302 Q 486.6 27.602 474.2 27.602 A 46.411 46.411 0 0 0 459.128 29.999 A 42.37 42.37 0 0 0 451.8 33.302 Q 441.8 39.002 436.1 49.202 A 44.991 44.991 0 0 0 430.673 66.848 A 55.434 55.434 0 0 0 430.4 72.402 A 50.649 50.649 0 0 0 432.204 86.141 A 43.309 43.309 0 0 0 436.1 95.602 Q 441.8 105.802 451.8 111.502 Q 461.8 117.202 474.2 117.202 Z" id="2" vector-effect="non-scaling-stroke"/><path d="M 812.4 2.402 L 843.4 2.402 L 797.6 142.402 L 762.8 142.402 L 732 47.602 L 700.2 142.402 L 665.6 142.402 L 619.6 2.402 L 653.2 2.402 L 684.8 100.802 L 717.8 2.402 L 747.8 2.402 L 779.8 101.602 L 812.4 2.402 Z" id="4" vector-effect="non-scaling-stroke"/><path d="M 896.6 116.402 L 972.8 116.402 L 972.8 142.402 L 864.4 142.402 L 864.4 2.402 L 970.2 2.402 L 970.2 28.402 L 896.6 28.402 L 896.6 58.802 L 961.6 58.802 L 961.6 84.002 L 896.6 84.002 L 896.6 116.402 Z" id="5" vector-effect="non-scaling-stroke"/><path d="M 1159.8 142.402 L 1147.4 112.402 L 1082.4 112.402 L 1070 142.402 L 1036.8 142.402 L 1099.2 2.402 L 1131.2 2.402 L 1193.8 142.402 L 1159.8 142.402 Z M 1092.8 87.802 L 1137.2 87.802 L 1115 34.202 L 1092.8 87.802 Z" id="7" vector-effect="non-scaling-stroke"/><path d="M 1332.4 142.402 L 1297.6 142.402 L 1270.6 103.402 L 1269 103.402 L 1240.8 103.402 L 1240.8 142.402 L 1208.4 142.402 L 1208.4 2.402 L 1269 2.402 A 94.323 94.323 0 0 1 1284.337 3.589 Q 1293.594 5.114 1301.3 8.602 A 52.244 52.244 0 0 1 1314.24 16.797 A 44.895 44.895 0 0 1 1322.4 26.202 A 45.653 45.653 0 0 1 1329.247 44.985 A 59.229 59.229 0 0 1 1329.8 53.202 A 54.454 54.454 0 0 1 1328.152 66.882 A 43.364 43.364 0 0 1 1322.3 80.102 A 45.971 45.971 0 0 1 1305.954 94.966 A 57.534 57.534 0 0 1 1301 97.402 L 1332.4 142.402 Z M 1267.2 28.802 L 1240.8 28.802 L 1240.8 77.602 L 1267.2 77.602 A 53.254 53.254 0 0 0 1275.593 76.985 Q 1279.877 76.3 1283.328 74.854 A 23.354 23.354 0 0 0 1289.4 71.202 A 20.869 20.869 0 0 0 1296.623 58.11 A 30.671 30.671 0 0 0 1297 53.202 A 29.228 29.228 0 0 0 1296.102 45.739 A 20.105 20.105 0 0 0 1289.4 35.102 A 24.456 24.456 0 0 0 1281.41 30.795 Q 1275.413 28.802 1267.2 28.802 Z" id="8" vector-effect="non-scaling-stroke"/><path d="M 1387.6 116.402 L 1463.8 116.402 L 1463.8 142.402 L 1355.4 142.402 L 1355.4 2.402 L 1461.2 2.402 L 1461.2 28.402 L 1387.6 28.402 L 1387.6 58.802 L 1452.6 58.802 L 1452.6 84.002 L 1387.6 84.002 L 1387.6 116.402 Z" id="9" vector-effect="non-scaling-stroke"/></g></svg>