<svg xmlns="http://www.w3.org/2000/svg" viewBox="0 0 22.28 20.17"><defs><style>.a{fill:#e2e8e8;}</style></defs><title>heart_Filter-inactive</title><path class="a" d="M11.14,20.17a1.25,1.25,0,0,1-.88-.36L1.9,11.45l-.06,0A6.76,6.76,0,0,1,6.75,0a6.68,6.68,0,0,1,4.38,1.62A6.75,6.75,0,0,1,22.28,6.75a6.69,6.69,0,0,1-1.84,4.63L12,19.81a1.25,1.25,0,0,1-.88.36ZM3.64,9.65l7.5,7.51,7.51-7.52a4.25,4.25,0,0,0-6-6L12,4.25a1.26,1.26,0,0,1-1.76,0l-.61-.6a4.18,4.18,0,0,0-2.9-1.15A4.26,4.26,0,0,0,2.5,6.76,4.2,4.2,0,0,0,3.64,9.65Z"/></svg>