<svg xmlns="http://www.w3.org/2000/svg" viewBox="0 0 138.52 142"><defs><style>.a{fill:#f90060;}</style></defs><title>icon-postProduction</title><path class="a" d="M49.34,35.38,33.11,25.29a.94.94,0,0,0-.55-.17.92.92,0,0,0-.51.15,1.29,1.29,0,0,0-.63,1.09V46.58a1.26,1.26,0,0,0,.6,1.08.87.87,0,0,0,.45.07.66.66,0,0,0,.48-.17l.16-.11L49.37,37.34a1.24,1.24,0,0,0,.6-.88A1.58,1.58,0,0,0,49.34,35.38ZM33.71,44.31V28.21l12.94,8Z"/><path class="a" d="M7.3,1.05h0A7.3,7.3,0,0,0,0,8.34V102a7.31,7.31,0,0,0,7.29,7.3H49.76l-5.18,19.46H29.93a1,1,0,0,0-1,.77l-3.53,11a2,2,0,0,0,.13,1.12,1,1,0,0,0,.79.36h85.75a1.68,1.68,0,0,0,.92-.48,1.07,1.07,0,0,0,.08-.94l-3.54-11.05a1.07,1.07,0,0,0-1-.81H93.94l-5.18-19.46h42.47a7.3,7.3,0,0,0,7.29-7.29V8.35a7.3,7.3,0,0,0-7.28-7.3v0ZM107.84,130.79l2.61,8.7H28l2.9-8.7ZM91.49,128.5H47L52.19,109H86.56ZM136.24,102a5,5,0,0,1-5,5H7.49a5,5,0,0,1-5-5V91.67H136.24Zm-1.7-97.17A5,5,0,0,1,136,8.31V89.39H2.29v-81a5,5,0,0,1,5-5H131A4.93,4.93,0,0,1,134.54,4.79Z"/><path class="a" d="M61.13,100.47H77.39a1.1,1.1,0,0,0,.8-.34,1.13,1.13,0,0,0,.34-.81,1.14,1.14,0,0,0-1.14-1.14H61.13a1.06,1.06,0,0,0-.8.25,1,1,0,0,0-.34.71.24.24,0,0,0,0,.12A1.17,1.17,0,0,0,61.13,100.47Z"/><path class="a" d="M12.17,60.69h114a1.07,1.07,0,0,0,.81-.25,1,1,0,0,0,.34-.71V13.18a1,1,0,0,0-1-1.14H12.13a1,1,0,0,0-.8.25A1.05,1.05,0,0,0,11,13V59.55A1.3,1.3,0,0,0,12.17,60.69ZM70.4,14.33h54.85V58.41H70.4Zm-57.13,0H68.12V58.41H13.27Z"/><path class="a" d="M116.5,51.15H104l2.2-1.86a16.9,16.9,0,0,0,6-13A17.19,17.19,0,1,0,94.67,53.45h21.84a1.16,1.16,0,0,0,1.14-1.14A1.16,1.16,0,0,0,116.5,51.15ZM95,51.37h0a14.9,14.9,0,1,1,0-29.79h0a14.92,14.92,0,0,1,14.89,14.9A14.9,14.9,0,0,1,95,51.37Z"/><path class="a" d="M95,41.36a4.88,4.88,0,1,0-4.88-4.88,4.87,4.87,0,0,0,4.83,4.88m-2.54-4.88a2.5,2.5,0,0,1,.7-1.8,2.54,2.54,0,0,1,1.79-.8H95a2.6,2.6,0,1,1-2.59,2.6Z"/><path class="a" d="M17.63,74h-5.5A1.13,1.13,0,0,0,11,75.15a1.14,1.14,0,0,0,1.14,1.14h5.49a1.14,1.14,0,1,0,0-2.28Z"/><path class="a" d="M63.55,74H52.12a1.14,1.14,0,1,0,0,2.28H63.55a1,1,0,0,0,1.14-1v-.12A1.16,1.16,0,0,0,63.55,74Z"/><path class="a" d="M40.69,74H29.27a1.14,1.14,0,1,0,0,2.28H40.7a1.07,1.07,0,0,0,.8-.25,1,1,0,0,0,.34-.7v-.12A1.17,1.17,0,0,0,40.69,74Z"/><path class="a" d="M86.4,74H75a1.14,1.14,0,0,0,0,2.28H86.4a1.13,1.13,0,0,0,1.14-1.14A1.14,1.14,0,0,0,86.4,74Z"/><path class="a" d="M109.25,74H97.83a1.15,1.15,0,0,0-1.15,1.14,1.14,1.14,0,0,0,1.14,1.14h11.44a1.14,1.14,0,0,0,1.14-1.14A1.15,1.15,0,0,0,109.25,74Z"/><path class="a" d="M126.39,74H120.9a1.15,1.15,0,0,0-1.15,1.14,1.13,1.13,0,0,0,.34.81,1.14,1.14,0,0,0,.81.33h5.49a1,1,0,0,0,1.15-1v-.12A1.17,1.17,0,0,0,126.39,74Z"/></svg>