<svg xmlns="http://www.w3.org/2000/svg" viewBox="0 0 144.45 150.75"><defs><style>.a{fill:#f90060;}</style></defs><title>icon-concept</title><path class="a" d="M144.45,75.17c0-.64,0-1.32-.11-2.15l-.06-.61c-.07-.57-.16-1.14-.26-1.7l-.08-.42c-.13-.62-.29-1.26-.49-1.9-.06-.21-.12-.4-.21-.65-.16-.5-.33-.95-.5-1.38l-.12-.29c0-.11-.08-.22-.13-.33-.27-.63-.55-1.2-.84-1.75-.06-.11-.13-.22-.19-.34l-.05-.09c-.3-.53-.58-1-.86-1.41-.11-.18-.21-.32-.3-.46-.37-.54-.78-1.08-1.21-1.62l-.11-.14c-.37-.44-.84-1-1.36-1.49l-.22-.21A23.53,23.53,0,0,0,134,55.47l-.26-.18h0c-.51-.33-1.05-.66-1.56-1l-.29-.16-.25-.14-1.46-.83.7-1.52a22.13,22.13,0,0,0-9.75-29.75,22.24,22.24,0,0,0-10-2.38h-1.45l-.26-1.43A22.1,22.1,0,0,0,73.36,5.29l-1.13,1-1.14-1A22.1,22.1,0,0,0,35,18.12l-.26,1.43H33.3A22.14,22.14,0,0,0,11.2,41.72a22.29,22.29,0,0,0,2.39,10l.77,1.53-2,1.11c-.59.33-1.13.65-1.64,1l-.24.16A23.74,23.74,0,0,0,7.1,58.23l-.23.23c-.54.55-1,1-1.39,1.53s-.87,1.1-1.29,1.72L4,62,4,62.08c-.33.5-.61,1-.87,1.41L3,63.64c-.07.12-.14.23-.2.35-.32.6-.6,1.19-.84,1.75-.07.15-.12.29-.2.49l0,.11c-.18.44-.34.89-.49,1.34l-.05.13L1,68.38c-.22.73-.37,1.33-.49,1.91l0,.16-.06.31c-.09.51-.18,1.07-.25,1.65L.11,73C0,73.81,0,74.51,0,75.16a23.94,23.94,0,0,0,11.52,20.4l1.4.85-.76,1.46a22.14,22.14,0,0,0,9.35,29.87A22.36,22.36,0,0,0,31,130.25l1.47.05.2,1.46a21.93,21.93,0,0,0,21.64,19c6.59,0,12.38-1.95,16.77-5.65l1.13-.94,1.12.94c4.39,3.7,10.19,5.65,16.77,5.65a21.93,21.93,0,0,0,21.64-19l.2-1.46,1.47-.05a22.15,22.15,0,0,0,21.37-22.89,22.31,22.31,0,0,0-2.51-9.49l-.76-1.46,1.41-.84A24,24,0,0,0,144.45,75.17ZM127.76,95.39l.89,1.22a19.67,19.67,0,0,1-15.07,31.16l-1.61.08-.2-1.6a22.25,22.25,0,0,0-1-4.22,21.72,21.72,0,0,0-7.32-10.34l-1.34-1,1-1.36a21.86,21.86,0,0,0,3.77-8.85,1.23,1.23,0,0,0-2.42-.39,19.41,19.41,0,0,1-15.06,15.51,1.25,1.25,0,0,0-1.1,1.43,1.22,1.22,0,0,0,1.43,1l.14,0a21.74,21.74,0,0,0,9.45-4.62l1-.88,1.11.81a19.37,19.37,0,0,1-11.39,35c-6.46,0-12.19-2.09-16.14-5.9l-.54-.51V82.05l1.81.07c1.76.06,3.5.09,5.3.09,2,0,4.06-.09,6.06-.28l1.57-.15.31,1.55a17.54,17.54,0,0,0,2.6,6.36,1.23,1.23,0,0,0,2.22-.43,1.3,1.3,0,0,0-.19-.94l-.1-.13c-3-4.07-3.56-13.33-2.24-16.63a1.16,1.16,0,0,0-.09-.85,1.69,1.69,0,0,0-.15-.22l-.08-.11a1.19,1.19,0,0,0-.46-.29,1.75,1.75,0,0,0-.42-.07,1.26,1.26,0,0,0-1.08.69,18.28,18.28,0,0,0-.84,5.18c0,.59,0,1.18.06,1.76l.15,1.76-1.76.13a93.9,93.9,0,0,1-11,.13l-1.67-.07V8.5L74,8a19.67,19.67,0,0,1,33,10.24l.33,1.63-1.62.4a22,22,0,0,0-11.48,7.19,1.21,1.21,0,0,0,.29,1.63,1.25,1.25,0,0,0,1.66-.15,19.45,19.45,0,0,1,12.63-6.79c.8-.09,1.59-.14,2.38-.15a19.68,19.68,0,0,1,17.19,29.24l-.66,1.18-1.3-.34a23.42,23.42,0,0,0-16.75,2l-1.11.59-.91-.87a23.7,23.7,0,0,0-8-5,1.3,1.3,0,0,0-1,0,1.2,1.2,0,0,0-.67.65,1.24,1.24,0,0,0,0,.94,1.22,1.22,0,0,0,.67.68l.16,0A21.21,21.21,0,0,1,112.4,68.51a1.22,1.22,0,0,0,1.25,1.07h0a1.38,1.38,0,0,0,.93-.49,1.16,1.16,0,0,0,.24-.88,23.87,23.87,0,0,0-3.61-10l-1.1-1.71,1.86-.83a21.4,21.4,0,0,1,16.57-.3l.13,0,.42.17a21,21,0,0,1,3.39,1.85l.28.19c.48.33.91.66,1.31,1l.28.23c.42.36.83.73,1.25,1.14l.21.21a21.48,21.48,0,0,1,2.43,2.93l.27.41c.28.44.51.8.72,1.18l.06.11.27.49c.2.38.38.75.55,1.13l.07.15.21.48c.23.54.43,1.1.61,1.67.05.15.09.31.14.47l0,.18c.12.39.23.8.32,1.21l.12.63,0,.12c.07.41.13.83.19,1.28,0,.24.06.44.08.64s0,.57.06.84,0,.77,0,1.12a21.36,21.36,0,0,1-12.86,19.6ZM40.58,116.06a20.48,20.48,0,0,1,13.34-5h.43a1.33,1.33,0,0,0,.95-.32,1.15,1.15,0,0,0,.41-.83,1.24,1.24,0,0,0-1.24-1.29h-.14a25,25,0,0,0-7.33,1.1l-2.69.83.46-2.77a21.81,21.81,0,0,0-1.88-13A1.23,1.23,0,0,0,40.74,96a19.34,19.34,0,0,1,.1,16.49l-.18.4-.35.26c-.36.27-.88.67-1.36,1.09a19.19,19.19,0,0,0-6.24,12l-.2,1.61-1.61-.07A19.67,19.67,0,0,1,15.8,96.62l.89-1.23-1.39-.6A21.39,21.39,0,0,1,2.44,75.17c0-.62,0-1.26.1-2,0-.15,0-.3,0-.46l0-.18c.06-.43.12-.85.2-1.27,0-.25.09-.5.14-.73.1-.43.21-.83.32-1.24l0-.14c0-.17.09-.33.14-.49.18-.58.39-1.15.62-1.7,0-.13.12-.27.18-.4l.09-.19c.17-.39.35-.76.54-1.12s.24-.44.36-.65.42-.72.65-1.08L6,63.42c.07-.12.15-.24.23-.36a21.73,21.73,0,0,1,2.44-3L8.8,60c.44-.43.85-.81,1.28-1.17l.32-.26c.39-.32.83-.64,1.3-1l.23-.16a21.56,21.56,0,0,1,3.43-1.88l.45-.18.13-.05a21.2,21.2,0,0,1,7.88-1.52v-.37h0l.16.37a19.85,19.85,0,0,1,17.1,9.85L42,65.22l-1.62.84a23.82,23.82,0,0,0-8.61,7.56,1.16,1.16,0,0,0-.1.84,1.2,1.2,0,0,0,.54.76,1.23,1.23,0,0,0,1.63-.3A21.08,21.08,0,0,1,54,66.05a1.13,1.13,0,0,0,.86-.29,1.24,1.24,0,0,0,.43-.83,1.22,1.22,0,0,0-1-1.3,23.75,23.75,0,0,0-8.69.48l-1.28.31-.65-1.15A22.39,22.39,0,0,0,23.82,51.35a23.22,23.22,0,0,0-5.74.73l-1.3.33-.65-1.17A19.66,19.66,0,0,1,35.77,22.15l1.28.16.08-1.3A19.69,19.69,0,0,1,70.47,8l.53.52V37.72l-.74.53c-3.07,2.18-7.49,1.94-10.66,1.35-5.36-1-9.65-4.11-11.48-8.34A1.35,1.35,0,0,0,47,30.39a1.63,1.63,0,0,0-.45.08,1.22,1.22,0,0,0-.7,1.6l.07.16a14.65,14.65,0,0,0,1.51,2.66,15.34,15.34,0,0,0,2,2.32A19.12,19.12,0,0,0,59.17,42a18.63,18.63,0,0,0,9.51-.63L71,40.54V141.9l-.54.52c-4,3.8-9.68,5.9-16.14,5.9A19.45,19.45,0,0,1,35,129,16.79,16.79,0,0,1,40.58,116.06Z"/></svg>