<svg xmlns="http://www.w3.org/2000/svg" viewBox="0 0 13.88 13.88"><defs><style>.a{fill:#f90060;}</style></defs><title>icon-facebook</title><path class="a" d="M9.63,6.39c0-.58,0-1.13,0-1.69a.6.6,0,0,1,.53-.57,7.52,7.52,0,0,1,.82,0h.65c.1,0,.14,0,.14-.14V2.29c0-.09,0-.16-.12-.17a10.33,10.33,0,0,0-2.08,0A2.37,2.37,0,0,0,7.46,4.24c-.07.62,0,1.26,0,1.89,0,.26,0,.26-.27.26-.45,0-.91,0-1.36,0-.14,0-.2,0-.2.19,0,.58,0,1.17,0,1.76,0,.14,0,.18.19.18H7.24l.16,0a.71.71,0,0,1,0,.14c0,1.67,0,3.35,0,5,0,.16,0,.19-.2.19H.84A.78.78,0,0,1,0,13V.84A.78.78,0,0,1,.82,0H13a.79.79,0,0,1,.86.85V13a.79.79,0,0,1-.87.87H9.6V8.7c0-.15,0-.19.18-.19h1.45c.13,0,.19,0,.21-.18.07-.59.14-1.19.22-1.78,0-.13,0-.17-.15-.17H9.63Z"/></svg>