<svg xmlns="http://www.w3.org/2000/svg" viewBox="0 0 123.98 160.97" height="100%"><defs><style>.a{fill:#f90060;}</style></defs><title>icon-branding</title><path class="a" d="M6.81,27.92a1,1,0,0,1-.76-1.65A74.11,74.11,0,0,1,57.53.14c30.91-1.94,51.52,17.08,55.34,20.91a1,1,0,0,1,0,1.41,1,1,0,0,1-1.42,0C107.74,18.74,87.71.26,57.66,2.13A72.19,72.19,0,0,0,7.57,27.56,1,1,0,0,1,6.81,27.92Z"/><path class="a" d="M1.94,58.7a1,1,0,0,1-.86-1.5c5.21-8.87,24.66-38,56.24-40.78C90,13.59,111.94,40.69,117.89,49.07a1,1,0,1,1-1.63,1.16c-5.8-8.16-27.19-34.54-58.77-31.82C26.87,21.07,7.89,49.55,2.81,58.21A1,1,0,0,1,1.94,58.7Z"/><path class="a" d="M115.65,130.1a1,1,0,0,1-.66-.25,38,38,0,0,1-11.63-19.15c-1.65-7.32-.11-12.35,1.52-17.69,1.3-4.25,2.64-8.65,2.54-14.68A47.34,47.34,0,0,0,87.91,41.81c-1.68-1.17-17-11.38-36-6.72-2.63.64-16.16,4.43-24.92,16.07a50.65,50.65,0,0,0-4,6.37,63.1,63.1,0,0,1-7.09,10.6A74.21,74.21,0,0,1,3.76,79.85a1,1,0,0,1-1.22-1.6A71.08,71.08,0,0,0,14.4,66.85a61.57,61.57,0,0,0,6.89-10.3A51.8,51.8,0,0,1,25.44,50c9.16-12.18,23.29-16.13,26-16.8,19.79-4.87,35.83,5.79,37.6,7a49.37,49.37,0,0,1,20.35,38.1c.11,6.36-1.28,10.92-2.63,15.32-1.62,5.29-3,9.86-1.49,16.63a36.13,36.13,0,0,0,11,18.13,1,1,0,0,1-.66,1.74Z"/><path class="a" d="M106.71,141.84a1,1,0,0,1-.54-.16,42.64,42.64,0,0,1-14.52-15.79c-5.9-11.56-4.05-22.38-2.25-32.84,1.71-10,3.33-19.44-2.28-28.44a32.27,32.27,0,0,0-24.9-14.42A32.22,32.22,0,0,0,42,56.77c-5.44,4-7.72,8.21-10.61,13.54a106.66,106.66,0,0,1-6.48,10.78A91,91,0,0,1,3.26,102.93,1,1,0,0,1,2.1,101.3,88.79,88.79,0,0,0,23.24,79.94,105.38,105.38,0,0,0,29.6,69.35c3-5.54,5.39-9.93,11.17-14.18a34.19,34.19,0,0,1,21.53-7A34.3,34.3,0,0,1,88.8,63.53c6,9.67,4.35,19.48,2.57,29.86C89.63,103.53,87.83,114,93.43,125a40.58,40.58,0,0,0,13.82,15,1,1,0,0,1,.3,1.38A1,1,0,0,1,106.71,141.84Z"/><path class="a" d="M23.1,151.71a1,1,0,0,1-.58-1.82c23.33-16.39,40-33.95,49.67-52.17,5.27-10,6.49-16.39,4.08-21.44A17,17,0,0,0,59.5,67.52c-7.41,1-11.8,8-16.45,15.37-.76,1.2-1.51,2.4-2.28,3.57-9.52,14.48-22.72,27.37-39.22,38.32a1,1,0,0,1-1.1-1.67c16.27-10.8,29.28-23.5,38.65-37.75.76-1.16,1.51-2.35,2.25-3.53C46,74.38,50.9,66.68,59.25,65.54a18.94,18.94,0,0,1,18.8,9.83c2.74,5.74,1.51,12.68-4.09,23.28-9.78,18.51-26.7,36.3-50.29,52.87A.93.93,0,0,1,23.1,151.71Z"/><path class="a" d="M7,141.88a1,1,0,0,1-.56-1.83,195.36,195.36,0,0,0,36.82-32.47A197.25,197.25,0,0,0,61.43,83.33,1,1,0,0,1,62.81,83a1,1,0,0,1,.31,1.38,199.56,199.56,0,0,1-18.36,24.5,197.06,197.06,0,0,1-37.2,32.81A1,1,0,0,1,7,141.88Z"/><path class="a" d="M119.26,113.42a.89.89,0,0,1-.32,0,1,1,0,0,1-.63-1.26,72.14,72.14,0,0,0-2.14-51.06,1,1,0,0,1,.52-1.32,1,1,0,0,1,1.31.53,74.08,74.08,0,0,1,2.21,52.48A1,1,0,0,1,119.26,113.42Z"/><path class="a" d="M87.27,154.4a1,1,0,0,1-.48-.12,28.24,28.24,0,0,1-12.7-35.86,1,1,0,0,1,1.31-.55,1,1,0,0,1,.54,1.31,26.23,26.23,0,0,0,11.81,33.34,1,1,0,0,1-.48,1.88Z"/><path class="a" d="M68.3,161a1,1,0,0,1-1-.8c-1.63-8.16-5.63-14-10-14.62-2.81-.37-5.59,1.38-9.78,4l-.36.23A45.35,45.35,0,0,0,39,156.54a1,1,0,1,1-1.43-1.39,47.14,47.14,0,0,1,8.6-7l.36-.23c4.4-2.79,7.58-4.81,11.12-4.33,5.26.71,9.84,7.07,11.66,16.21A1,1,0,0,1,68.5,161Z"/></svg>