<svg xmlns="http://www.w3.org/2000/svg" viewBox="0 0 120.07 108"><defs><style>.a,.b{fill:#bebebf;}.a{opacity:0.74;}</style></defs><title>client_TS-inactive</title><path class="a" d="M7.27,48.84h6.34V6.19h7.27V0H0V6.19H7.27Z"/><path class="a" d="M33.26,27.21h7V48.84h7V0h-7V20.67h-7V0H26.44V48.84h6.82Z"/><rect class="a" x="54.41" width="6.82" height="48.83"/><path class="a" d="M82.15,48.8H90V0H83.83V31.2L77,0H68.44V48.8h6.17V18.69Z"/><path class="a" d="M104,36.88l1.48-3.54,6.3,15.49h7.1L109.44,24,119.45,0h-8L104,20.71V0H96.8V48.84H104Z"/><path class="a" d="M45.71,77.58h-8v-22H30.43v51.65h7.28v-23h8v23H53V55.58H45.71Z"/><path class="a" d="M60.48,55.58l.19,51.56H67.8l-.19-51.56Z"/><path class="a" d="M78.76,55.58H75.33v51.56h7.13V84.46h9.27V77.38H82.46V62.69h10V55.58Z"/><path class="a" d="M120.07,55.41H96.8v7.11h7.48v44.71h7.06V62.52h8.73Z"/><path class="a" d="M16.35,54.88h-5.6a7.81,7.81,0,0,0-7.81,7.81v9.94s-.35,3.91,4,7.51a86.06,86.06,0,0,0,7.77,5.79s2.6,1.14,2.6,3.1V99.59h0a1.57,1.57,0,0,1-1.57,1.58H11.39a1.54,1.54,0,0,1-1.57-1.51v-13H2.94v13.51h0A7.81,7.81,0,0,0,10.75,108h5.6a7.81,7.81,0,0,0,7.81-7.81h0V87.26A8.09,8.09,0,0,0,21.09,82c-2.73-2-8.27-6.1-8.27-6.1s-3-1.74-3-3.3V63.29a1.53,1.53,0,0,1,1.5-1.57H15.7a1.57,1.57,0,0,1,1.58,1.57V74.72h6.88v-12A7.81,7.81,0,0,0,16.35,54.88Z"/><path class="b" d="M7.27,48.84h6.34V6.19h7.27V0H0V6.19H7.27Z"/><path class="b" d="M33.26,27.21h7V48.84h7V0h-7V20.67h-7V0H26.44V48.84h6.82Z"/><rect class="b" x="54.41" width="6.82" height="48.83"/><path class="b" d="M82.15,48.8H90V0H83.83V31.2L77,0H68.44V48.8h6.17V18.69Z"/><path class="b" d="M104,36.88l1.48-3.54,6.3,15.49h7.1L109.44,24,119.45,0h-8L104,20.71V0H96.8V48.84H104Z"/><path class="b" d="M45.71,77.58h-8v-22H30.43v51.65h7.28v-23h8v23H53V55.58H45.71Z"/><path class="b" d="M60.48,55.58l.19,51.56H67.8l-.19-51.56Z"/><path class="b" d="M78.76,55.58H75.33v51.56h7.13V84.46h9.27V77.38H82.46V62.69h10V55.58Z"/><path class="b" d="M120.07,55.41H96.8v7.11h7.48v44.71h7.06V62.52h8.73Z"/><path class="b" d="M16.35,54.88h-5.6a7.81,7.81,0,0,0-7.81,7.81v9.94s-.35,3.91,4,7.51a86.06,86.06,0,0,0,7.77,5.79s2.6,1.14,2.6,3.1V99.59h0a1.57,1.57,0,0,1-1.57,1.58H11.39a1.54,1.54,0,0,1-1.57-1.51v-13H2.94v13.51h0A7.81,7.81,0,0,0,10.75,108h5.6a7.81,7.81,0,0,0,7.81-7.81h0V87.26A8.09,8.09,0,0,0,21.09,82c-2.73-2-8.27-6.1-8.27-6.1s-3-1.74-3-3.3V63.29a1.53,1.53,0,0,1,1.5-1.57H15.7a1.57,1.57,0,0,1,1.58,1.57V74.72h6.88v-12A7.81,7.81,0,0,0,16.35,54.88Z"/></svg>