<svg xmlns="http://www.w3.org/2000/svg" viewBox="0 0 190.18 50.35"><defs><style>.a{fill:#fff;opacity:0.74;}.b{fill:#bebebf;}</style></defs><title>clinet_TB-inactive</title><path class="a" d="M73.57,42.34c-9.48.34-17.25-8-17.25-17a17.25,17.25,0,1,1,34.49-.12v0C90.82,34.39,83.17,42.69,73.57,42.34Zm-.14-26.51c-1-.21-2,.3-3.07.6-.7.2-.9.66-.33,1.25s1.23,1.21,1.84,1.82c3,3,6,6,9,9,1,1,1.23,1,1.65-.43a9.32,9.32,0,0,0-6-11.76,9.15,9.15,0,0,0-3.07-.46Zm.44,18.67A6.75,6.75,0,0,0,76.72,34c.85-.36.85-.69.26-1.28q-5.46-5.45-10.9-10.93c-.73-.74-1.07-.66-1.36.33-1.88,6.34,2.39,12.43,9.15,12.36Z"/><path class="a" d="M162.38,42.35c-9.37.29-17.4-7.79-17.24-17.45a17.25,17.25,0,0,1,34.49.12C179.77,34.71,171.45,42.84,162.38,42.35Zm0-7.86c5.6.35,11.08-5.08,9-12.37-.31-1.12-.72-1.21-1.59-.38-2,2-4,3.92-6,5.89-1.66,1.64-3.28,3.32-4.95,4.94-.78.74-.55,1,.33,1.41a7.45,7.45,0,0,0,3.2.5ZM153.08,25a11.57,11.57,0,0,0,.48,3.31c.13.47.34,1.1,1,.4q5.57-5.6,11.15-11.16c.6-.6.54-.94-.34-1.24A9.39,9.39,0,0,0,153.08,25Z"/><path class="a" d="M139.57,25.76c2.71-.05,3,.15,3.77,3a10.66,10.66,0,0,1-7.56,13l-.45.11c-3.14.67-6.28.26-9.42.39-1.72.07-3.45,0-5.18,0-1.11,0-1.64-.53-1.63-1.68q0-15.3,0-30.59c0-1,.27-1.72,1.43-1.7,4.57.08,9.15-.14,13.73.14,2.91.17,7.1,3.2,8.21,7.17A9.53,9.53,0,0,1,139.57,25.76Zm-9,2.79h-2.6c-.61,0-1,.24-1,.9v4a.86.86,0,0,0,.76,1h.22c1.73,0,3.47.06,5.19-.1a2.71,2.71,0,0,0,2.66-3.17,3,3,0,0,0-3-2.6c-.72,0-1.46,0-2.19,0ZM130.3,16v.07H128a.92.92,0,0,0-1,1.17c.22,1.13-.73,2.51.69,3.38a.59.59,0,0,0,.26,0c1.68,0,3.36,0,5-.05a2.27,2.27,0,0,0,2.15-2.19,2.34,2.34,0,0,0-2-2.22c-.94-.14-1.89-.14-2.84-.2Z"/><path class="a" d="M32.19,25.31v-15c0-1.73.24-2,1.92-2,3.11,0,6.22,0,9.33,0A11.6,11.6,0,0,1,54,16.74,11.09,11.09,0,0,1,51,28c-.51.53-.6.69,0,1.35,1.87,2.14,3.58,4.43,5.33,6.68,1.17,1.5,2.3,3,3.44,4.53.27.35.57.69.37,1.17s-.75.53-1.21.53c-2.16,0-4.33,0-6.49,0a2.54,2.54,0,0,1-2.07-1.13c-2.31-3-4.65-5.9-6.94-8.88a2.29,2.29,0,0,0-2-.91c-1,0-1.39.35-1.37,1.37,0,2.46,0,4.92,0,7.38,0,2.1-.06,2.16-2.21,2.16-1.3,0-2.59,0-3.88,0s-1.74-.34-1.74-1.79Q32.17,32.89,32.19,25.31ZM40,19.76v.65c0,3.2,0,3.2,3.2,2.95a3.36,3.36,0,0,0,3.36-3.15c.34-2.17-1.17-3.89-3.59-4.09-2.92-.23-3-.19-3,3,0,.21,0,.43,0,.64Z"/><path class="a" d="M15.18,8.28H28.4c1.68,0,1.93.27,1.94,2,0,1.34,0,2.68,0,4s-.56,1.81-1.78,1.81c-2.55,0-5.1,0-7.65,0-1.57,0-1.69.12-1.69,1.71V40c0,2-.25,2.28-2.34,2.3H13.27c-1.6,0-1.85-.28-1.85-1.92q0-11.08,0-22.17c0-2.07,0-2.09-2.11-2.08-2.68,0-5.35,0-8,.07-.84,0-1.24-.32-1.25-1.1,0-1.9,0-3.8,0-5.7C0,8.31.8,8.29,1.57,8.29H15.18Z"/><path class="a" d="M98.36,35a16.47,16.47,0,0,1,0-2.33c.43-2.94-.7-5.33-2.29-7.7-3.35-5-6.53-10.17-9.78-15.27-.6-.95-.45-1.38.67-1.41,2.37-.06,4.75,0,7.12,0a1.68,1.68,0,0,1,1.41,1c2,3.26,4.12,6.48,6.1,9.78.67,1.12,1,.84,1.51,0,1.91-3.14,3.9-6.22,5.79-9.37a2.56,2.56,0,0,1,2.52-1.42c1.94.06,3.88,0,5.82,0,1.34,0,1.55.43.83,1.58-3.62,5.83-7.24,11.67-10.91,17.47a6.21,6.21,0,0,0-1,3.55c.07,3.28-.14,6.57.11,9.85a1.25,1.25,0,0,1-1,1.49,1.79,1.79,0,0,1-.4,0c-1.69,0-3.37,0-5.06,0-1.08,0-1.52-.66-1.52-1.69,0-1.85,0-3.71,0-5.57Z"/><path class="a" d="M182.36,25.32V10c0-1.55.18-1.72,1.7-1.74s2.77,0,4.15,0c1.68,0,2,.29,2,2V37.72c0,1,0,2,0,3a1.45,1.45,0,0,1-1.29,1.58,1.29,1.29,0,0,1-.34,0q-2.4,0-4.8,0c-1.07,0-1.42-.52-1.41-1.54,0-5.14,0-10.28,0-15.42Z"/><path class="a" d="M90.28,0A3.79,3.79,0,0,1,93.87,3.6,3.69,3.69,0,0,1,90.55,7a3.77,3.77,0,0,1-3.61-3.43A3.81,3.81,0,0,1,90.28,0Z"/><path class="a" d="M15.18,43.58a3.39,3.39,0,1,1,.06,6.77A3.44,3.44,0,0,1,11.75,47v0A3.47,3.47,0,0,1,15.18,43.58Z"/><path class="a" d="M114.22,7a3.78,3.78,0,0,1-3.54-3.48,3.86,3.86,0,0,1,3.4-3.5,3.73,3.73,0,0,1,3.49,3.5A3.67,3.67,0,0,1,114.22,7Z"/><path class="a" d="M186.27,43.57a3.7,3.7,0,0,1,3.38,3.4,3.52,3.52,0,0,1-3.4,3.38,3.34,3.34,0,0,1-3.44-3.24V47a3.33,3.33,0,0,1,3.27-3.38Z"/><path class="b" d="M73.57,42.34c-9.48.34-17.25-8-17.25-17a17.25,17.25,0,1,1,34.49-.12v0C90.82,34.39,83.17,42.69,73.57,42.34Zm-.14-26.51c-1-.21-2,.3-3.07.6-.7.2-.9.66-.33,1.25s1.23,1.21,1.84,1.82c3,3,6,6,9,9,1,1,1.23,1,1.65-.43a9.32,9.32,0,0,0-6-11.76,9.15,9.15,0,0,0-3.07-.46Zm.44,18.67A6.75,6.75,0,0,0,76.72,34c.85-.36.85-.69.26-1.28q-5.46-5.45-10.9-10.93c-.73-.74-1.07-.66-1.36.33-1.88,6.34,2.39,12.43,9.15,12.36Z"/><path class="b" d="M162.38,42.35c-9.37.29-17.4-7.79-17.24-17.45a17.25,17.25,0,0,1,34.49.12C179.77,34.71,171.45,42.84,162.38,42.35Zm0-7.86c5.6.35,11.08-5.08,9-12.37-.31-1.12-.72-1.21-1.59-.38-2,2-4,3.92-6,5.89-1.66,1.64-3.28,3.32-4.95,4.94-.78.74-.55,1,.33,1.41a7.45,7.45,0,0,0,3.2.5ZM153.08,25a11.57,11.57,0,0,0,.48,3.31c.13.47.34,1.1,1,.4q5.57-5.6,11.15-11.16c.6-.6.54-.94-.34-1.24A9.39,9.39,0,0,0,153.08,25Z"/><path class="b" d="M139.57,25.76c2.71-.05,3,.15,3.77,3a10.66,10.66,0,0,1-7.56,13l-.45.11c-3.14.67-6.28.26-9.42.39-1.72.07-3.45,0-5.18,0-1.11,0-1.64-.53-1.63-1.68q0-15.3,0-30.59c0-1,.27-1.72,1.43-1.7,4.57.08,9.15-.14,13.73.14,2.91.17,7.1,3.2,8.21,7.17A9.53,9.53,0,0,1,139.57,25.76Zm-9,2.79h-2.6c-.61,0-1,.24-1,.9v4a.86.86,0,0,0,.76,1h.22c1.73,0,3.47.06,5.19-.1a2.71,2.71,0,0,0,2.66-3.17,3,3,0,0,0-3-2.6c-.72,0-1.46,0-2.19,0ZM130.3,16v.07H128a.92.92,0,0,0-1,1.17c.22,1.13-.73,2.51.69,3.38a.59.59,0,0,0,.26,0c1.68,0,3.36,0,5-.05a2.27,2.27,0,0,0,2.15-2.19,2.34,2.34,0,0,0-2-2.22c-.94-.14-1.89-.14-2.84-.2Z"/><path class="b" d="M32.19,25.31v-15c0-1.73.24-2,1.92-2,3.11,0,6.22,0,9.33,0A11.6,11.6,0,0,1,54,16.74,11.09,11.09,0,0,1,51,28c-.51.53-.6.69,0,1.35,1.87,2.14,3.58,4.43,5.33,6.68,1.17,1.5,2.3,3,3.44,4.53.27.35.57.69.37,1.17s-.75.53-1.21.53c-2.16,0-4.33,0-6.49,0a2.54,2.54,0,0,1-2.07-1.13c-2.31-3-4.65-5.9-6.94-8.88a2.29,2.29,0,0,0-2-.91c-1,0-1.39.35-1.37,1.37,0,2.46,0,4.92,0,7.38,0,2.1-.06,2.16-2.21,2.16-1.3,0-2.59,0-3.88,0s-1.74-.34-1.74-1.79Q32.17,32.89,32.19,25.31ZM40,19.76v.65c0,3.2,0,3.2,3.2,2.95a3.36,3.36,0,0,0,3.36-3.15c.34-2.17-1.17-3.89-3.59-4.09-2.92-.23-3-.19-3,3,0,.21,0,.43,0,.64Z"/><path class="b" d="M15.18,8.28H28.4c1.68,0,1.93.27,1.94,2,0,1.34,0,2.68,0,4s-.56,1.81-1.78,1.81c-2.55,0-5.1,0-7.65,0-1.57,0-1.69.12-1.69,1.71V40c0,2-.25,2.28-2.34,2.3H13.27c-1.6,0-1.85-.28-1.85-1.92q0-11.08,0-22.17c0-2.07,0-2.09-2.11-2.08-2.68,0-5.35,0-8,.07-.84,0-1.24-.32-1.25-1.1,0-1.9,0-3.8,0-5.7C0,8.31.8,8.29,1.57,8.29H15.18Z"/><path class="b" d="M98.36,35a16.47,16.47,0,0,1,0-2.33c.43-2.94-.7-5.33-2.29-7.7-3.35-5-6.53-10.17-9.78-15.27-.6-.95-.45-1.38.67-1.41,2.37-.06,4.75,0,7.12,0a1.68,1.68,0,0,1,1.41,1c2,3.26,4.12,6.48,6.1,9.78.67,1.12,1,.84,1.51,0,1.91-3.14,3.9-6.22,5.79-9.37a2.56,2.56,0,0,1,2.52-1.42c1.94.06,3.88,0,5.82,0,1.34,0,1.55.43.83,1.58-3.62,5.83-7.24,11.67-10.91,17.47a6.21,6.21,0,0,0-1,3.55c.07,3.28-.14,6.57.11,9.85a1.25,1.25,0,0,1-1,1.49,1.79,1.79,0,0,1-.4,0c-1.69,0-3.37,0-5.06,0-1.08,0-1.52-.66-1.52-1.69,0-1.85,0-3.71,0-5.57Z"/><path class="b" d="M182.36,25.32V10c0-1.55.18-1.72,1.7-1.74s2.77,0,4.15,0c1.68,0,2,.29,2,2V37.72c0,1,0,2,0,3a1.45,1.45,0,0,1-1.29,1.58,1.29,1.29,0,0,1-.34,0q-2.4,0-4.8,0c-1.07,0-1.42-.52-1.41-1.54,0-5.14,0-10.28,0-15.42Z"/><path class="b" d="M90.28,0A3.79,3.79,0,0,1,93.87,3.6,3.69,3.69,0,0,1,90.55,7a3.77,3.77,0,0,1-3.61-3.43A3.81,3.81,0,0,1,90.28,0Z"/><path class="b" d="M15.18,43.58a3.39,3.39,0,1,1,.06,6.77A3.44,3.44,0,0,1,11.75,47v0A3.47,3.47,0,0,1,15.18,43.58Z"/><path class="b" d="M114.22,7a3.78,3.78,0,0,1-3.54-3.48,3.86,3.86,0,0,1,3.4-3.5,3.73,3.73,0,0,1,3.49,3.5A3.67,3.67,0,0,1,114.22,7Z"/><path class="b" d="M186.27,43.57a3.7,3.7,0,0,1,3.38,3.4,3.52,3.52,0,0,1-3.4,3.38,3.34,3.34,0,0,1-3.44-3.24V47a3.33,3.33,0,0,1,3.27-3.38Z"/></svg>