<svg xmlns="http://www.w3.org/2000/svg" viewBox="0 0 179.24 64.99"><defs><style>.a{fill:#fff;opacity:0.74;}</style></defs><title>client_TED-inactive</title><path class="a" d="M0,0C.35,0,.69.05,1,.05H56.1V16.53h-18V64.92h-20V16.58H0Z"/><path class="a" d="M117.31,64.94V.1c.23,0,.45,0,.66,0,10.93,0,21.86,0,32.79,0a28.82,28.82,0,0,1,15.76,4.27A25.79,25.79,0,0,1,177,18.19,44.13,44.13,0,0,1,179.14,35a38,38,0,0,1-2.77,13.13C173,56,167.1,60.91,159,63.31A44.36,44.36,0,0,1,146.26,65q-14.08,0-28.16,0C117.86,65,117.62,65,117.31,64.94Zm19.88-16.57a1.5,1.5,0,0,0,.36.11c3.41-.06,6.83.09,10.21-.24,5-.48,8.49-3.29,10.24-8a22.1,22.1,0,0,0,1.13-10.29c-.89-7.77-5.76-12.53-13.7-13-2.53-.16-5.08-.07-7.61-.14-.7,0-.82.26-.82.88q.12,12.77.18,25.53C137.2,44.88,137.19,46.62,137.19,48.37Z"/><path class="a" d="M59.37,65V.05h.83l52.73,0c.74,0,1,.15,1,.94q0,7.35,0,14.71c0,.73-.22.9-.93.9q-16.32,0-32.64,0h-1v8.11H112.9c1,0,1,0,1,.95v13.6c0,1,0,1-1,1H79.34V48.5h33.44c1.11,0,1.11,0,1.11,1.09,0,4.83,0,9.66,0,14.49,0,.73-.21.91-.93.91q-26.4,0-52.8,0Z"/></svg>