<svg xmlns="http://www.w3.org/2000/svg" viewBox="0 0 134.48 134.48"><defs><style>.a{fill:#f90060;stroke:#f90060;stroke-miterlimit:10;stroke-width:2px;}.b{fill:#fff;}</style></defs><title>client_modo-active</title><path class="a" d="M67.19,133.48A66.24,66.24,0,0,1,67.18,1h.08a66.24,66.24,0,0,1,66.22,66.25h0A66.29,66.29,0,0,1,67.19,133.48ZM23,67.21a44.26,44.26,0,0,0,88.51.13v-.1a44.26,44.26,0,1,0-88.51,0Z"/><path class="a" d="M45.07,74.78H41.66v-.86c0-2.35,0-4.7-.11-7A1.73,1.73,0,0,0,40,65h0a2,2,0,0,0-2.16,1.42,7.46,7.46,0,0,0-.37,2.24c-.05,2,0,4,0,6.12H34.18c0-.19,0-.4,0-.6,0-3.75,0-7.49,0-11.24,0-.52.12-.73.68-.7.87,0,1.73,0,2.61,0,0,.4,0,.71.07,1.05,2.76-2,4.87-1.93,6.93.26a2.69,2.69,0,0,0,.32-.27,4.68,4.68,0,0,1,4.5-1.3,3.72,3.72,0,0,1,3.26,3.64c.1,3,0,6.08,0,9.16H49.29V74c0-2.27,0-4.53,0-6.79,0-1.39-.6-2.13-1.62-2.24a2.26,2.26,0,0,0-2.32,1.89,9.57,9.57,0,0,0-.22,2C45.06,70.81,45.07,72.77,45.07,74.78Z"/><path class="a" d="M77.68,62.93V57.11h3.18V74.77H77.75l-.1-.75a.54.54,0,0,0-.19,0,5.22,5.22,0,0,1-7.34-.84,5.35,5.35,0,0,1-.9-1.68,7.68,7.68,0,0,1,1.15-7.82A5.45,5.45,0,0,1,77.68,62.93Zm0,5.51c0-.42,0-.81-.08-1.2a2.35,2.35,0,0,0-1.56-2.14,2.78,2.78,0,0,0-2.93.48,4.28,4.28,0,0,0,.09,5.92A2.69,2.69,0,0,0,76,72a2.41,2.41,0,0,0,1.61-2.18c0-.45.07-.9.1-1.33Z"/><path class="a" d="M61,61.88a6.14,6.14,0,0,1,6.36,5.93c0,.2,0,.41,0,.61,0,4-2.61,6.73-6.4,6.74s-6.43-2.77-6.44-6.72a6.21,6.21,0,0,1,5.84-6.56C60.59,61.87,60.8,61.87,61,61.88Zm3,6.53a13.41,13.41,0,0,0-.56-2,2.61,2.61,0,0,0-2.66-1.63,2.69,2.69,0,0,0-2.56,1.79,4.94,4.94,0,0,0,0,3.57,2.93,2.93,0,0,0,2.9,2,2.83,2.83,0,0,0,2.68-2.26c.11-.43.15-.89.25-1.51Z"/><path class="a" d="M89.33,61.87c3.75,0,6.33,2.63,6.35,6.54s-2.58,6.73-6.38,6.75-6.44-2.76-6.46-6.71a6.22,6.22,0,0,1,5.85-6.57Zm3,6.51a13.44,13.44,0,0,0-.54-1.95,2.62,2.62,0,0,0-2.6-1.62,2.68,2.68,0,0,0-2.6,1.73,4.82,4.82,0,0,0-.06,3.69,3,3,0,0,0,2.88,2,2.83,2.83,0,0,0,2.68-2.26c.11-.44.14-.9.24-1.54Z"/><path class="a" d="M100.27,74.79H97.1V71.63h3.17Z"/><path class="b" d="M69.37,130.3A65.06,65.06,0,0,1,69.36.18h.08a65.05,65.05,0,0,1,65,65.07h0A65.11,65.11,0,0,1,69.37,130.3ZM25.93,65.21a43.47,43.47,0,0,0,86.93.13v-.1a43.47,43.47,0,1,0-86.93,0Z"/><path class="b" d="M47.65,72.65H44.29V71.8c0-2.31,0-4.62-.11-6.92A1.69,1.69,0,0,0,42.68,63h0a2,2,0,0,0-2.12,1.4,7.44,7.44,0,0,0-.36,2.19c-.05,2,0,4,0,6H37c0-.19,0-.39,0-.6,0-3.67,0-7.35,0-11,0-.52.12-.72.67-.69.85,0,1.7,0,2.56,0,0,.39,0,.7.07,1,2.71-2,4.78-1.9,6.8.26l.32-.27a4.57,4.57,0,0,1,4.42-1.27,3.65,3.65,0,0,1,3.2,3.57c.1,3,0,6,0,9H51.79v-.77c0-2.23,0-4.45,0-6.67,0-1.36-.59-2.1-1.59-2.19a2.21,2.21,0,0,0-2.28,1.84,10.08,10.08,0,0,0-.22,2C47.63,68.75,47.65,70.67,47.65,72.65Z"/><path class="b" d="M79.67,61V55.3h3.12V72.64H79.74l-.1-.74a.52.52,0,0,0-.18,0,5.13,5.13,0,0,1-7.22-.83,5.08,5.08,0,0,1-.87-1.64,7.51,7.51,0,0,1,1.12-7.68A5.34,5.34,0,0,1,79.67,61Zm0,5.41c0-.42,0-.8-.08-1.18a2.31,2.31,0,0,0-1.53-2.1,2.71,2.71,0,0,0-2.88.47,4.19,4.19,0,0,0,.1,5.81,2.59,2.59,0,0,0,2.7.44,2.32,2.32,0,0,0,1.58-2.13c0-.45.07-.89.11-1.31Z"/><path class="b" d="M63.31,60a6.05,6.05,0,0,1,6.25,5.83c0,.2,0,.4,0,.6C69.55,70.32,67,73,63.26,73s-6.32-2.71-6.33-6.6A6.11,6.11,0,0,1,62.67,60Zm3,6.42a14.32,14.32,0,0,0-.55-1.94,2.56,2.56,0,0,0-2.61-1.6,2.66,2.66,0,0,0-2.52,1.76,4.76,4.76,0,0,0-.05,3.5,2.91,2.91,0,0,0,2.84,2A2.8,2.8,0,0,0,66,67.87a14.82,14.82,0,0,0,.24-1.48Z"/><path class="b" d="M91.11,60c3.69,0,6.22,2.58,6.25,6.42S94.82,73,91.09,73s-6.33-2.7-6.35-6.58A6.12,6.12,0,0,1,90.49,60Zm3,6.39a12.57,12.57,0,0,0-.53-1.91A2.58,2.58,0,0,0,91,62.85a2.62,2.62,0,0,0-2.55,1.71,4.69,4.69,0,0,0-.06,3.62A2.9,2.9,0,0,0,91.2,70.1a2.78,2.78,0,0,0,2.64-2.22c.11-.43.14-.88.23-1.51Z"/><path class="b" d="M101.86,72.65H98.75v-3.1h3.11Z"/></svg>