<svg xmlns="http://www.w3.org/2000/svg" viewBox="0 0 215.17 52.1"><defs><style>.a{fill:#f90060;}.b{fill:#fff;}</style></defs><title>client_MC-active</title><path class="a" d="M0,38.38a1.88,1.88,0,0,1,1.26-1,9.38,9.38,0,0,1,3.56-.54c1.44,0,2.87.16,4.3.27a.41.41,0,0,0,.51-.3c.38-.84.82-1.65,1.24-2.47,0-.08.1-.16.17-.28-.77.17-1.49.34-2.22.47-1.36.23-2.72.49-4.08.66-1.71.21-2.56-.46-2.89-2.15a5,5,0,0,1,.43-3.18A1.76,1.76,0,0,1,4,28.69c1.58,0,3.17,0,4.75,0,1.24,0,2.48.07,3.71.11l.2,0a9.9,9.9,0,0,1-4-3.91H8.54a3,3,0,0,1-3.31-.48,4.21,4.21,0,0,1-1.34-5.06,7,7,0,0,0,.37-2,9.77,9.77,0,0,1,2.39-5.56.77.77,0,0,0,.16-.42,17.93,17.93,0,0,1,.3-3.43,2.82,2.82,0,0,1,.24-.69.65.65,0,0,1,.83-.41l.06,0a3.87,3.87,0,0,1,1,.59,6.12,6.12,0,0,1,.72.72c.23.25.44.52.6.72,1.14-.35,2.23-.72,3.34-1a13.27,13.27,0,0,1,4.52-.39.31.31,0,0,0,.38-.22c.37-.79.74-1.57,1.15-2.34a2.66,2.66,0,0,1,.63-.71.71.71,0,0,1,1,0,1.09,1.09,0,0,1,.13.17,4.77,4.77,0,0,1,.6,1.11c.4,1.23.75,2.47,1.13,3.7a.7.7,0,0,0,.2.33,10.69,10.69,0,0,1,3,4,.94.94,0,0,0,.41.47,4.55,4.55,0,0,1,2,3,4.14,4.14,0,0,1-2.35,4.69.37.37,0,0,0-.19.18,11.34,11.34,0,0,1-1.17,3.29l.28-.13c1.33-.61,2.65-1.22,4-1.81a3.2,3.2,0,0,1,1-.26,2,2,0,0,1,1.82.86,4.83,4.83,0,0,1,.92,4.24,1.39,1.39,0,0,1-1,1.14c-1.52.42-3,.86-4.55,1.29l-.38.1a1.47,1.47,0,0,0,.1.13A4.84,4.84,0,0,1,29,34.29a12.62,12.62,0,0,1-.71,4.26c0,.15-.09.3-.13.46a.43.43,0,0,1,0,.05c.55-.32,1.08-.66,1.64-1a6.84,6.84,0,0,1,2.6-.83,2.39,2.39,0,0,1,2.75,1.95l0,.24a8.33,8.33,0,0,1-.3,3.44c0,.1-.17.19-.28.24a19.74,19.74,0,0,1-3.71,1,16.6,16.6,0,0,1-4.45.28,12.52,12.52,0,0,1-1.82-.38.4.4,0,0,1-.33-.46c0-.63,0-1.26.08-1.9a12.52,12.52,0,0,0-.2-4,4.13,4.13,0,0,0-3.27-3.26h-.13c.07.4.15.77.2,1.15a5.65,5.65,0,0,1-.16,2.55,3.6,3.6,0,0,1-3.27,2.52c-.57,0-1.14,0-1.77,0,.07.46.13.92.21,1.36a65,65,0,0,0,1.75,6.86c.15.53.28,1.07.4,1.62s.05.65-.48.75c-1,.2-2.05.4-3.1.52-1.34.14-2.69.2-4,.3l-.13.05H8.11l-.27-.05L5.9,51.81a.41.41,0,0,1-.26-.17,7.43,7.43,0,0,1-.76-3.3A2.37,2.37,0,0,1,6.71,46a4.07,4.07,0,0,1,.84-.13,7.64,7.64,0,0,1,3,.52c.51.18,1,.4,1.52.6a10.09,10.09,0,0,1-3-7.46l-.11,0a26.93,26.93,0,0,0-4.75-.26,5.89,5.89,0,0,0-2.51.59,1.17,1.17,0,0,1-1.47-.46C.12,39.26.06,39.13,0,39ZM21.16,21.29l-.06,0c-.33-.59-.67-1.18-1-1.79a.39.39,0,0,0-.5-.24h0c-1.05.23-2.11.42-3.15.69-.84.21-1.65.52-2.49.79l.39,2.5-.07,0a2.15,2.15,0,0,0-.18-.24c-.45-.51-.9-1-1.37-1.51-.05-.06-.19-.12-.24-.09-.64.35-1.27.71-1.91,1.08a18.74,18.74,0,0,0,3,4.94A4.81,4.81,0,0,1,14.4,27c.5-.21.52-.55.45-1s-.13-1.23-.2-1.91a2.34,2.34,0,0,1,.19.21c.42.51.85,1,1.25,1.54a.31.31,0,0,0,.42.12c.71-.22,1.43-.44,2.15-.6S20,25.12,20.71,25c.16-.84.32-1.69.49-2.61l.15.31c.3.7.6,1.39.88,2.09a.31.31,0,0,0,.31.22c.37,0,.73,0,1.13.06a20.24,20.24,0,0,0,.8-6.23L21.35,19C21.28,19.82,21.22,20.56,21.16,21.29Zm-3-12.43a15.37,15.37,0,0,0-6.73,1.23l1.07,1.62a9.58,9.58,0,0,1,5.11-1.12ZM15.74,38.1a4,4,0,0,0,1.78.07,1.18,1.18,0,0,0,1-1.17,4.87,4.87,0,0,0,0-1c-.08-.54-.22-1.06-.33-1.59-1.49.39-2.4,1.79-2.48,3.7ZM7,16.9c0-.95-.09-1.92-.13-2.9A7.68,7.68,0,0,0,5.7,17.05Zm18.25-3.23L24.14,12l-.08,0c.14.68.27,1.35.4,2Z"/><path class="a" d="M71,37.88H66.37v-.34c0-2.9,0-5.8,0-8.7a8.44,8.44,0,0,0-.17-1.8,2.53,2.53,0,0,0-2.85-2.17,2.77,2.77,0,0,0-.48.11,3.26,3.26,0,0,0-2.56,2.87,8.74,8.74,0,0,0-.07,1v9H55.62v-.36c0-2.88,0-5.76,0-8.64a12.32,12.32,0,0,0-.14-1.83,2.33,2.33,0,0,0-3.3-2,3.24,3.24,0,0,0-2.36,2.83,5.8,5.8,0,0,0-.05.93q0,4.36,0,8.7v.36H45.18V21.65h4.57v1.4A5.56,5.56,0,0,1,54.57,21a5.46,5.46,0,0,1,4.21,3,14.08,14.08,0,0,1,1.1-1.22A7,7,0,0,1,65.5,21a6.11,6.11,0,0,1,3.74,1.7,5.87,5.87,0,0,1,1.65,3.58A11.69,11.69,0,0,1,71,27.94c0,3.18,0,6.37,0,9.55Z"/><path class="a" d="M142.29,31a3.35,3.35,0,0,0,2.15,2.6,5.18,5.18,0,0,0,5.6-.93l.25-.22.05,0,2.58,2.79c-.49.38-1,.78-1.46,1.11a9.21,9.21,0,0,1-6,1.46,9.83,9.83,0,0,1-4.32-1.3A7.41,7.41,0,0,1,137.53,31a9.66,9.66,0,0,1,.41-5,7.51,7.51,0,0,1,4.65-4.54,9.27,9.27,0,0,1,7.41.19,6.85,6.85,0,0,1,4.2,6.14c.05,1,0,2,0,2.95a1.23,1.23,0,0,1,0,.19Zm.12-3.3h7.15A3,3,0,0,0,148,25.12a3.85,3.85,0,0,0-3.84.11,3.18,3.18,0,0,0-1.73,2.47Z"/><path class="a" d="M195.36,37.88V35.62c-.14.15-.24.25-.32.35-2.62,3.08-7.76,2-9.44-.82a5.18,5.18,0,0,1-.11-5.42,4.5,4.5,0,0,1,2.63-1.95,10.38,10.38,0,0,1,3.54-.52H195a2.23,2.23,0,0,0-1.55-2.55,5.43,5.43,0,0,0-2.91.09,8.7,8.7,0,0,0-3,1.41l-2-2.95.17-.14a12,12,0,0,1,6.53-2.22,9.42,9.42,0,0,1,4,.56,5.15,5.15,0,0,1,3.44,4.76c0,.51,0,1,0,1.53V37.88ZM195,30.54h-.14c-.87,0-1.75,0-2.63,0a8.2,8.2,0,0,0-1.7.24,1.37,1.37,0,0,0-1.08,1.36,1.55,1.55,0,0,0,.9,1.59,3.43,3.43,0,0,0,2.16.28,2.8,2.8,0,0,0,2.56-3,3.5,3.5,0,0,0-.07-.45Z"/><path class="a" d="M82.48,37.88A9,9,0,0,1,76.4,36a8.14,8.14,0,0,1-3.07-6.59,8.21,8.21,0,0,1,5.68-8A8.76,8.76,0,0,1,87.75,23a8.11,8.11,0,0,1,2.89,7.3A8.27,8.27,0,0,1,85,37.43,8.62,8.62,0,0,1,82.48,37.88Zm3.59-8.43.08,0a13.54,13.54,0,0,0-.41-1.89,3.94,3.94,0,0,0-6.91-1.07,5,5,0,0,0-.64,4.6,4,4,0,0,0,4.87,2.78,3.88,3.88,0,0,0,1.66-.94A4.66,4.66,0,0,0,86.07,29.45Z"/><path class="a" d="M108.31,37.88h-4.58v-.35c0-3.11,0-6.21,0-9.32a6.28,6.28,0,0,0-.24-1.73,2.45,2.45,0,0,0-2.92-1.88l-.13,0a3.31,3.31,0,0,0-2.82,3c0,.32,0,.64,0,1v9.23H93V21.64h4.58V23a1.58,1.58,0,0,0,.22-.19,6.32,6.32,0,0,1,4.46-1.87A5.93,5.93,0,0,1,108,25.22a8.19,8.19,0,0,1,.33,2.35c0,3.36,0,6.73,0,10.09A1.77,1.77,0,0,1,108.31,37.88Z"/><path class="a" d="M183.11,23.79l-2.38,3.11c-.18-.18-.34-.36-.52-.51a5.18,5.18,0,0,0-5.39-1.15,3.93,3.93,0,0,0-2.66,3.53,4.65,4.65,0,0,0,.46,2.77,4.13,4.13,0,0,0,3.6,2.2,4.91,4.91,0,0,0,4-1.87l.36-.41,2.72,3.06A11.77,11.77,0,0,1,180,37a8.89,8.89,0,0,1-11.3-3.29,8.27,8.27,0,0,1-1.05-5.08,8.18,8.18,0,0,1,6.8-7.53A9.26,9.26,0,0,1,183,23.66Z"/><path class="a" d="M110.49,35.28l2-2.83c.63.37,1.22.76,1.85,1.08a7.41,7.41,0,0,0,4.11.81,2.37,2.37,0,0,0,1-.36,1,1,0,0,0,.33-1.33.71.71,0,0,0-.19-.23,3.5,3.5,0,0,0-1-.71c-1-.4-2-.73-3-1.1a9.09,9.09,0,0,1-2.64-1.46,3.54,3.54,0,0,1-1.33-2.6,4.83,4.83,0,0,1,3.56-5.13,9.12,9.12,0,0,1,7.18.55c.54.27,1.06.59,1.62.9l-1.72,3.06c-.5-.27-1-.56-1.47-.79a6.18,6.18,0,0,0-3.83-.55l-.19.05c-.47.14-.84.38-.89.91a1.06,1.06,0,0,0,.69,1.1c.68.29,1.36.56,2.06.8a21.68,21.68,0,0,1,3.63,1.42,3.75,3.75,0,0,1,2,3.26,5.17,5.17,0,0,1-4.26,5.5,10.42,10.42,0,0,1-5.67-.35,10.93,10.93,0,0,1-3.51-1.8A3.07,3.07,0,0,1,110.49,35.28Z"/><path class="a" d="M203.75,24.53h-2.44V21h2.45V16.33h4.63V21h3.77v3.57h-3.75c0,.13,0,.22,0,.31v7a2.52,2.52,0,0,0,.12.86A1.43,1.43,0,0,0,210,33.81c.56,0,1.13,0,1.7,0h.47v4.07l-.08,0a34.79,34.79,0,0,1-3.68-.1,5.26,5.26,0,0,1-4.6-5c-.07-1.39,0-2.78-.05-4.17s0-2.6,0-3.91A1.72,1.72,0,0,0,203.75,24.53Z"/><path class="a" d="M125.58,21h2.47V16.33h4.6V21h3.79v3.58h-3.76c0,.11,0,.19,0,.27,0,2.3,0,4.59,0,6.89a3.38,3.38,0,0,0,.15,1.05,1.4,1.4,0,0,0,1.46,1.07h2.16v4.07l-.17,0c-1,0-2,0-3.06,0a5.38,5.38,0,0,1-5.1-4.85c0-.37-.05-.74-.05-1.1q0-3.53,0-7v-.35h-2.48Z"/><path class="a" d="M161.48,37.88h-4.56V21h4.55V23.3a8.54,8.54,0,0,1,2.25-1.71,6,6,0,0,1,2.67-.7v4.29l-.35,0a12.36,12.36,0,0,0-1.71.16,3.32,3.32,0,0,0-2.26,2,7.46,7.46,0,0,0-.59,3.09v7.41Z"/><path class="b" d="M3,34.38a1.88,1.88,0,0,1,1.26-1,9.38,9.38,0,0,1,3.56-.54c1.44,0,2.87.16,4.3.27a.41.41,0,0,0,.51-.3c.38-.84.82-1.65,1.24-2.47,0-.08.1-.16.17-.28-.77.17-1.49.34-2.22.47-1.36.23-2.72.49-4.08.66-1.71.21-2.56-.46-2.89-2.15a5,5,0,0,1,.43-3.18A1.76,1.76,0,0,1,7,24.69c1.58,0,3.17,0,4.75,0,1.24,0,2.48.07,3.71.11l.2,0a9.9,9.9,0,0,1-4-3.91h-.09a3,3,0,0,1-3.31-.48,4.21,4.21,0,0,1-1.34-5.06,7,7,0,0,0,.37-2A9.77,9.77,0,0,1,9.65,7.76a.77.77,0,0,0,.16-.42,17.93,17.93,0,0,1,.3-3.43,2.82,2.82,0,0,1,.24-.69.65.65,0,0,1,.83-.41l.06,0a3.87,3.87,0,0,1,1,.59,6.12,6.12,0,0,1,.72.72c.23.25.44.52.6.72,1.14-.35,2.23-.72,3.34-1a13.27,13.27,0,0,1,4.52-.39.31.31,0,0,0,.38-.22c.37-.79.74-1.57,1.15-2.34a2.66,2.66,0,0,1,.63-.71.71.71,0,0,1,1,0,1.09,1.09,0,0,1,.13.17,4.77,4.77,0,0,1,.6,1.11c.4,1.23.75,2.47,1.13,3.7a.7.7,0,0,0,.2.33,10.69,10.69,0,0,1,3,4,.94.94,0,0,0,.41.47,4.55,4.55,0,0,1,2,3,4.14,4.14,0,0,1-2.35,4.69.37.37,0,0,0-.19.18,11.34,11.34,0,0,1-1.17,3.29l.28-.13c1.33-.61,2.65-1.22,4-1.81a3.2,3.2,0,0,1,1-.26,2,2,0,0,1,1.82.86,4.83,4.83,0,0,1,.92,4.24,1.39,1.39,0,0,1-1,1.14c-1.52.42-3,.86-4.55,1.29l-.38.1a1.47,1.47,0,0,0,.1.13A4.84,4.84,0,0,1,32,30.29a12.62,12.62,0,0,1-.71,4.26c0,.15-.09.3-.13.46a.43.43,0,0,1,0,.05c.55-.32,1.08-.66,1.64-1a6.84,6.84,0,0,1,2.6-.83,2.39,2.39,0,0,1,2.75,1.95l0,.24a8.33,8.33,0,0,1-.3,3.44c0,.1-.17.19-.28.24a19.74,19.74,0,0,1-3.71,1,16.6,16.6,0,0,1-4.45.28,12.52,12.52,0,0,1-1.82-.38.4.4,0,0,1-.33-.46c0-.63,0-1.26.08-1.9a12.52,12.52,0,0,0-.2-4,4.13,4.13,0,0,0-3.27-3.26h-.13c.07.4.15.77.2,1.15a5.65,5.65,0,0,1-.16,2.55,3.6,3.6,0,0,1-3.27,2.52c-.57,0-1.14,0-1.77,0,.07.46.13.92.21,1.36a65,65,0,0,0,1.75,6.86c.15.53.28,1.07.4,1.62s.05.65-.48.75c-1,.2-2.05.4-3.1.52-1.34.14-2.69.2-4,.3l-.13.05H11.11l-.27-.05L8.9,47.81a.41.41,0,0,1-.26-.17,7.43,7.43,0,0,1-.76-3.3A2.37,2.37,0,0,1,9.71,42a4.07,4.07,0,0,1,.84-.13,7.64,7.64,0,0,1,3,.52c.51.18,1,.4,1.52.6a10.09,10.09,0,0,1-3-7.46l-.11,0a26.93,26.93,0,0,0-4.75-.26,5.89,5.89,0,0,0-2.51.59,1.17,1.17,0,0,1-1.47-.46c-.07-.12-.13-.25-.19-.37ZM24.16,17.29l-.06,0c-.33-.59-.67-1.18-1-1.79a.39.39,0,0,0-.5-.24h0c-1.05.23-2.11.42-3.15.69-.84.21-1.65.52-2.49.79l.39,2.5-.07,0a2.15,2.15,0,0,0-.18-.24c-.45-.51-.9-1-1.37-1.51-.05-.06-.19-.12-.24-.09-.64.35-1.27.71-1.91,1.08a18.74,18.74,0,0,0,3,4.94A4.81,4.81,0,0,1,17.4,23c.5-.21.52-.55.45-1s-.13-1.23-.2-1.91a2.34,2.34,0,0,1,.19.21c.42.51.85,1,1.25,1.54a.31.31,0,0,0,.42.12c.71-.22,1.43-.44,2.15-.6S23,21.12,23.71,21c.16-.84.32-1.69.49-2.61l.15.31c.3.7.6,1.39.88,2.09a.31.31,0,0,0,.31.22c.37,0,.73,0,1.13.06a20.24,20.24,0,0,0,.8-6.23L24.35,15C24.28,15.82,24.22,16.56,24.16,17.29Zm-3-12.43a15.37,15.37,0,0,0-6.73,1.23l1.07,1.62a9.58,9.58,0,0,1,5.11-1.12ZM18.74,34.1a4,4,0,0,0,1.78.07,1.18,1.18,0,0,0,1-1.17,4.87,4.87,0,0,0,0-1c-.08-.54-.22-1.06-.33-1.59-1.49.39-2.4,1.79-2.48,3.7ZM10,12.9C9.91,12,9.87,11,9.83,10A7.68,7.68,0,0,0,8.7,13.05ZM28.21,9.67,27.14,8l-.08,0c.14.68.27,1.35.4,2Z"/><path class="b" d="M74,33.88H69.37v-.34c0-2.9,0-5.8,0-8.7a8.44,8.44,0,0,0-.17-1.8,2.53,2.53,0,0,0-2.85-2.17,2.77,2.77,0,0,0-.48.11,3.26,3.26,0,0,0-2.56,2.87,8.74,8.74,0,0,0-.07,1v9H58.62v-.36c0-2.88,0-5.76,0-8.64a12.32,12.32,0,0,0-.14-1.83,2.33,2.33,0,0,0-3.3-2,3.24,3.24,0,0,0-2.36,2.83,5.8,5.8,0,0,0-.05.93q0,4.36,0,8.7v.36H48.18V17.65h4.57v1.4A5.56,5.56,0,0,1,57.57,17a5.46,5.46,0,0,1,4.21,3,14.08,14.08,0,0,1,1.1-1.22A7,7,0,0,1,68.5,17a6.11,6.11,0,0,1,3.74,1.7,5.87,5.87,0,0,1,1.65,3.58A11.69,11.69,0,0,1,74,23.94c0,3.18,0,6.37,0,9.55Z"/><path class="b" d="M145.29,27a3.35,3.35,0,0,0,2.15,2.6,5.18,5.18,0,0,0,5.6-.93l.25-.22.05,0,2.58,2.79c-.49.38-1,.78-1.46,1.11a9.21,9.21,0,0,1-6,1.46,9.83,9.83,0,0,1-4.32-1.3A7.41,7.41,0,0,1,140.53,27a9.66,9.66,0,0,1,.41-5,7.51,7.51,0,0,1,4.65-4.54,9.27,9.27,0,0,1,7.41.19,6.85,6.85,0,0,1,4.2,6.14c.05,1,0,2,0,2.95a1.23,1.23,0,0,1,0,.19Zm.12-3.3h7.15A3,3,0,0,0,151,21.12a3.85,3.85,0,0,0-3.84.11,3.18,3.18,0,0,0-1.73,2.47Z"/><path class="b" d="M198.36,33.88V31.62c-.14.15-.24.25-.32.35-2.62,3.08-7.76,2-9.44-.82a5.18,5.18,0,0,1-.11-5.42,4.5,4.5,0,0,1,2.63-1.95,10.38,10.38,0,0,1,3.54-.52H198a2.23,2.23,0,0,0-1.55-2.55,5.43,5.43,0,0,0-2.91.09,8.7,8.7,0,0,0-3,1.41l-2-2.95.17-.14a12,12,0,0,1,6.53-2.22,9.42,9.42,0,0,1,4,.56,5.15,5.15,0,0,1,3.44,4.76c0,.51,0,1,0,1.53V33.88ZM198,26.54h-.14c-.87,0-1.75,0-2.63,0a8.2,8.2,0,0,0-1.7.24,1.37,1.37,0,0,0-1.08,1.36,1.55,1.55,0,0,0,.9,1.59,3.43,3.43,0,0,0,2.16.28,2.8,2.8,0,0,0,2.56-3,3.5,3.5,0,0,0-.07-.45Z"/><path class="b" d="M85.48,33.88A9,9,0,0,1,79.4,32a8.14,8.14,0,0,1-3.07-6.59,8.21,8.21,0,0,1,5.68-8A8.76,8.76,0,0,1,90.75,19a8.11,8.11,0,0,1,2.89,7.3A8.27,8.27,0,0,1,88,33.43,8.62,8.62,0,0,1,85.48,33.88Zm3.59-8.43.08,0a13.54,13.54,0,0,0-.41-1.89,3.94,3.94,0,0,0-6.91-1.07,5,5,0,0,0-.64,4.6,4,4,0,0,0,4.87,2.78,3.88,3.88,0,0,0,1.66-.94A4.66,4.66,0,0,0,89.07,25.45Z"/><path class="b" d="M111.31,33.88h-4.58v-.35c0-3.11,0-6.21,0-9.32a6.28,6.28,0,0,0-.24-1.73,2.45,2.45,0,0,0-2.92-1.88l-.13,0a3.31,3.31,0,0,0-2.82,3c0,.32,0,.64,0,1v9.23H96V17.64h4.58V19a1.58,1.58,0,0,0,.22-.19,6.32,6.32,0,0,1,4.46-1.87A5.93,5.93,0,0,1,111,21.22a8.19,8.19,0,0,1,.33,2.35c0,3.36,0,6.73,0,10.09A1.77,1.77,0,0,1,111.31,33.88Z"/><path class="b" d="M186.11,19.79l-2.38,3.11c-.18-.18-.34-.36-.52-.51a5.18,5.18,0,0,0-5.39-1.15,3.93,3.93,0,0,0-2.66,3.53,4.65,4.65,0,0,0,.46,2.77,4.13,4.13,0,0,0,3.6,2.2,4.91,4.91,0,0,0,4-1.87l.36-.41,2.72,3.06A11.77,11.77,0,0,1,183,33a8.89,8.89,0,0,1-11.3-3.29,8.27,8.27,0,0,1-1.05-5.08,8.18,8.18,0,0,1,6.8-7.53A9.26,9.26,0,0,1,186,19.66Z"/><path class="b" d="M113.49,31.28l2-2.83c.63.37,1.22.76,1.85,1.08a7.41,7.41,0,0,0,4.11.81,2.37,2.37,0,0,0,1-.36,1,1,0,0,0,.33-1.33.71.71,0,0,0-.19-.23,3.5,3.5,0,0,0-1-.71c-1-.4-2-.73-3-1.1a9.09,9.09,0,0,1-2.64-1.46,3.54,3.54,0,0,1-1.33-2.6,4.83,4.83,0,0,1,3.56-5.13,9.12,9.12,0,0,1,7.18.55c.54.27,1.06.59,1.62.9l-1.72,3.06c-.5-.27-1-.56-1.47-.79a6.18,6.18,0,0,0-3.83-.55l-.19.05c-.47.14-.84.38-.89.91a1.06,1.06,0,0,0,.69,1.1c.68.29,1.36.56,2.06.8a21.68,21.68,0,0,1,3.63,1.42,3.75,3.75,0,0,1,2,3.26,5.17,5.17,0,0,1-4.26,5.5,10.42,10.42,0,0,1-5.67-.35,10.93,10.93,0,0,1-3.51-1.8A3.07,3.07,0,0,1,113.49,31.28Z"/><path class="b" d="M206.75,20.53h-2.44V17h2.45V12.33h4.63V17h3.77v3.57h-3.75c0,.13,0,.22,0,.31v7a2.52,2.52,0,0,0,.12.86A1.43,1.43,0,0,0,213,29.81c.56,0,1.13,0,1.7,0h.47v4.07l-.08,0a34.79,34.79,0,0,1-3.68-.1,5.26,5.26,0,0,1-4.6-5c-.07-1.39,0-2.78-.05-4.17s0-2.6,0-3.91A1.72,1.72,0,0,0,206.75,20.53Z"/><path class="b" d="M128.58,17h2.47V12.33h4.6V17h3.79v3.58h-3.76c0,.11,0,.19,0,.27,0,2.3,0,4.59,0,6.89a3.38,3.38,0,0,0,.15,1,1.4,1.4,0,0,0,1.46,1.07h2.16v4.07l-.17,0c-1,0-2,0-3.06,0a5.38,5.38,0,0,1-5.1-4.85c0-.37-.05-.74-.05-1.1q0-3.53,0-7v-.35h-2.48Z"/><path class="b" d="M164.48,33.88h-4.56V17h4.55V19.3a8.54,8.54,0,0,1,2.25-1.71,6,6,0,0,1,2.67-.7v4.29l-.35,0a12.36,12.36,0,0,0-1.71.16,3.32,3.32,0,0,0-2.26,2,7.46,7.46,0,0,0-.59,3.09v7.41Z"/></svg>