<svg xmlns="http://www.w3.org/2000/svg" viewBox="0 0 179.21 63.94"><defs><style>.a{fill:#bebebf;}</style></defs><title>clinet_ZGM-inactive</title><path class="a" d="M140.46,63.87,126.81,23.8l-.56.08V63.67H91.9c9.45-4.29,16.08-10.57,19.53-19.84s2.67-18.24-.55-27.64L76,26.45l3.83,12.92,19.4-5.63C99.61,41,94,48.44,86.31,51.14a20.46,20.46,0,0,1-23.24-7.32,20.67,20.67,0,0,1,.47-24.9c6.87-8.62,16.93-10.6,29.29-5.63C94.5,9.53,96.11,5.72,97.91,2c.39-.81,1.45-1.83,2.22-1.84C111.87,0,123.61.07,135.5.07l10.33,36.81c.61-1.83,1-2.82,1.27-3.83,3-10.1,6-20.18,8.83-30.31C156.47.8,157.19-.06,159.4,0c6.55.18,13.11.07,19.81.07v63.6H165.45V23.92l-.51-.14c-.3.66-.66,1.31-.9,2-4,11.88-8.11,23.75-12.08,35.66-.59,1.78-1.36,2.65-3.38,2.5C146,63.73,143.32,63.87,140.46,63.87Z"/><path class="a" d="M0,63.63c0-4.14-.11-8.08.07-12a5.86,5.86,0,0,1,1.5-3.11Q14.92,32.71,28.32,17l2.87-3.42H2V.26h63.4c0,.06.09.34,0,.38-7.2,4-12.62,10-17.82,16.27C39.1,27.1,30.5,37.2,22,47.34c-.65.76-1.28,1.54-2.3,2.78,1.29.1,2.1.22,2.91.23,8.3,0,16.61.06,24.91,0a4.55,4.55,0,0,1,4.25,2.15c3.51,4.85,8.14,8.4,14.4,11.17Z"/></svg>