<svg xmlns="http://www.w3.org/2000/svg" viewBox="0 0 130.12 130.12"><defs><style>.a{fill:#bebebf;}</style></defs><title>clinet_modo-inactive</title><path class="a" d="M65,130.12A65.06,65.06,0,0,1,65,0h.08a65.05,65.05,0,0,1,65,65.07h0A65.1,65.1,0,0,1,65,130.12ZM21.57,65a43.47,43.47,0,0,0,86.93.13v-.1a43.47,43.47,0,1,0-86.93,0Z"/><path class="a" d="M43.29,72.47H39.93v-.85c0-2.31,0-4.62-.1-6.92a1.7,1.7,0,0,0-1.5-1.86h0a2,2,0,0,0-2.13,1.4,7.44,7.44,0,0,0-.36,2.19c-.05,2,0,4,0,6H32.59c0-.19,0-.39,0-.6,0-3.67,0-7.35,0-11,0-.52.12-.72.67-.69.85,0,1.7,0,2.56,0,0,.39,0,.7.08,1,2.7-2,4.78-1.9,6.8.26l.31-.27a4.6,4.6,0,0,1,4.42-1.27,3.65,3.65,0,0,1,3.2,3.57c.1,3,0,6,0,9H47.43v-.77c0-2.23,0-4.45,0-6.67,0-1.36-.59-2.09-1.6-2.19a2.21,2.21,0,0,0-2.28,1.84,10.08,10.08,0,0,0-.22,2C43.27,68.57,43.29,70.49,43.29,72.47Z"/><path class="a" d="M75.32,60.83V55.12h3.12V72.46h-3l-.1-.74a.54.54,0,0,0-.19,0,5.12,5.12,0,0,1-7.21-.82A5.26,5.26,0,0,1,67,69.28a7.51,7.51,0,0,1,1.12-7.68A5.35,5.35,0,0,1,75.32,60.83Zm0,5.41c0-.42,0-.8-.08-1.18A2.3,2.3,0,0,0,73.74,63a2.74,2.74,0,0,0-2.88.47,4.2,4.2,0,0,0,.1,5.81,2.59,2.59,0,0,0,2.7.44,2.32,2.32,0,0,0,1.58-2.13c.05-.45.08-.89.11-1.31Z"/><path class="a" d="M59,59.79a6.05,6.05,0,0,1,6.25,5.83c0,.2,0,.4,0,.6,0,3.92-2.57,6.61-6.29,6.61s-6.32-2.71-6.33-6.6a6.1,6.1,0,0,1,5.74-6.43A4.58,4.58,0,0,1,59,59.79Zm3,6.42a14.32,14.32,0,0,0-.55-1.94,2.56,2.56,0,0,0-2.61-1.6,2.65,2.65,0,0,0-2.52,1.77,4.8,4.8,0,0,0,0,3.5,2.91,2.91,0,0,0,2.85,2,2.79,2.79,0,0,0,2.63-2.23,14.51,14.51,0,0,0,.25-1.48Z"/><path class="a" d="M86.75,59.79c3.69,0,6.22,2.58,6.25,6.42s-2.53,6.61-6.27,6.62-6.33-2.7-6.35-6.58a6.11,6.11,0,0,1,5.75-6.45A4.3,4.3,0,0,1,86.75,59.79Zm3,6.4a11.36,11.36,0,0,0-.53-1.92,2.57,2.57,0,0,0-2.55-1.6,2.62,2.62,0,0,0-2.55,1.71A4.73,4.73,0,0,0,84,68a2.9,2.9,0,0,0,2.82,1.92,2.78,2.78,0,0,0,2.64-2.22c.11-.43.14-.88.23-1.51Z"/><path class="a" d="M97.5,72.47H94.39v-3.1H97.5Z"/></svg>