<svg xmlns="http://www.w3.org/2000/svg" viewBox="0 0 124.07 113"><defs><style>.a{fill:#bebebf;opacity:0.74;}.b{fill:#e6004d;}.c{fill:#fff;}</style></defs><title>client_tS-active</title><path class="a" d="M7.27,53.84h6.34V11.19h7.27V5H0v6.19H7.27Z"/><path class="a" d="M33.26,32.21h7V53.84h7V5h-7V25.67h-7V5H26.44V53.84h6.82Z"/><rect class="a" x="54.41" y="5" width="6.82" height="48.83"/><path class="a" d="M82.15,53.8H90V5H83.83V36.2L77,5H68.44V53.8h6.17V23.69Z"/><path class="a" d="M104,41.88l1.48-3.54,6.3,15.49h7.1L109.44,29,119.45,5h-8L104,25.71V5H96.8V53.84H104Z"/><path class="a" d="M45.71,82.58h-8v-22H30.43v51.65h7.28v-23h8v23H53V60.58H45.71Z"/><path class="a" d="M60.48,60.58l.19,51.56H67.8l-.19-51.56Z"/><path class="a" d="M78.76,60.58H75.33v51.56h7.13V89.46h9.27V82.38H82.46V67.69h10V60.58Z"/><path class="a" d="M120.07,60.41H96.8v7.11h7.48v44.71h7.06V67.52h8.73Z"/><path class="a" d="M16.35,59.88h-5.6a7.81,7.81,0,0,0-7.81,7.81v9.94s-.35,3.91,4,7.51a86.06,86.06,0,0,0,7.77,5.79s2.6,1.14,2.6,3.1v10.56h0a1.57,1.57,0,0,1-1.57,1.58H11.39a1.54,1.54,0,0,1-1.57-1.51v-13H2.94v13.51h0A7.81,7.81,0,0,0,10.75,113h5.6a7.81,7.81,0,0,0,7.81-7.81h0V92.26A8.09,8.09,0,0,0,21.09,87c-2.73-2-8.27-6.1-8.27-6.1s-3-1.74-3-3.3V68.29a1.53,1.53,0,0,1,1.5-1.57.08.08,0,0,1,.07,0H15.7a1.57,1.57,0,0,1,1.58,1.57V79.72h6.88v-12A7.81,7.81,0,0,0,16.35,59.88Z"/><path class="b" d="M7.27,53.84h6.34V11.19h7.27V5H0v6.19H7.27Z"/><path class="b" d="M33.26,32.21h7V53.84h7V5h-7V25.67h-7V5H26.44V53.84h6.82Z"/><rect class="b" x="54.41" y="5" width="6.82" height="48.83"/><path class="b" d="M82.15,53.8H90V5H83.83V36.2L77,5H68.44V53.8h6.17V23.69Z"/><path class="b" d="M104,41.88l1.48-3.54,6.3,15.49h7.1L109.44,29,119.45,5h-8L104,25.71V5H96.8V53.84H104Z"/><path class="b" d="M45.71,82.58h-8v-22H30.43v51.65h7.28v-23h8v23H53V60.58H45.71Z"/><path class="b" d="M60.48,60.58l.19,51.56H67.8l-.19-51.56Z"/><path class="b" d="M78.76,60.58H75.33v51.56h7.13V89.46h9.27V82.38H82.46V67.69h10V60.58Z"/><path class="b" d="M120.07,60.41H96.8v7.11h7.48v44.71h7.06V67.52h8.73Z"/><path class="b" d="M16.35,59.88h-5.6a7.81,7.81,0,0,0-7.81,7.81v9.94s-.35,3.91,4,7.51a86.06,86.06,0,0,0,7.77,5.79s2.6,1.14,2.6,3.1v10.56h0a1.57,1.57,0,0,1-1.57,1.58H11.39a1.54,1.54,0,0,1-1.57-1.51v-13H2.94v13.51h0A7.81,7.81,0,0,0,10.75,113h5.6a7.81,7.81,0,0,0,7.81-7.81h0V92.26A8.09,8.09,0,0,0,21.09,87c-2.73-2-8.27-6.1-8.27-6.1s-3-1.74-3-3.3V68.29a1.53,1.53,0,0,1,1.5-1.57.08.08,0,0,1,.07,0H15.7a1.57,1.57,0,0,1,1.58,1.57V79.72h6.88v-12A7.81,7.81,0,0,0,16.35,59.88Z"/><path class="b" d="M7.27,53.84h6.34V11.19h7.27V5H0v6.19H7.27Z"/><path class="b" d="M33.26,32.21h7V53.84h7V5h-7V25.67h-7V5H26.44V53.84h6.82Z"/><rect class="b" x="54.41" y="5" width="6.82" height="48.83"/><path class="b" d="M82.15,53.8H90V5H83.83V36.2L77,5H68.44V53.8h6.17V23.69Z"/><path class="b" d="M104,41.88l1.48-3.54,6.3,15.49h7.1L109.44,29,119.45,5h-8L104,25.71V5H96.8V53.84H104Z"/><path class="b" d="M45.71,82.58h-8v-22H30.43v51.65h7.28v-23h8v23H53V60.58H45.71Z"/><path class="b" d="M60.48,60.58l.19,51.56H67.8l-.19-51.56Z"/><path class="b" d="M78.76,60.58H75.33v51.56h7.13V89.46h9.27V82.38H82.46V67.69h10V60.58Z"/><path class="b" d="M120.07,60.41H96.8v7.11h7.48v44.71h7.06V67.52h8.73Z"/><path class="b" d="M16.35,59.88h-5.6a7.81,7.81,0,0,0-7.81,7.81v9.94s-.35,3.91,4,7.51a86.06,86.06,0,0,0,7.77,5.79s2.6,1.14,2.6,3.1v10.56h0a1.57,1.57,0,0,1-1.57,1.58H11.39a1.54,1.54,0,0,1-1.57-1.51v-13H2.94v13.51h0A7.81,7.81,0,0,0,10.75,113h5.6a7.81,7.81,0,0,0,7.81-7.81h0V92.26A8.09,8.09,0,0,0,21.09,87c-2.73-2-8.27-6.1-8.27-6.1s-3-1.74-3-3.3V68.29a1.53,1.53,0,0,1,1.5-1.57.08.08,0,0,1,.07,0H15.7a1.57,1.57,0,0,1,1.58,1.57V79.72h6.88v-12A7.81,7.81,0,0,0,16.35,59.88Z"/><path class="a" d="M11.27,48.84h6.34V6.19h7.27V0H4V6.19h7.27Z"/><path class="a" d="M37.26,27.21h7V48.84h7V0h-7V20.67h-7V0H30.44V48.84h6.82Z"/><rect class="a" x="58.41" width="6.82" height="48.83"/><path class="a" d="M86.15,48.8H94V0H87.83V31.2L81,0H72.44V48.8h6.17V18.69Z"/><path class="a" d="M108,36.88l1.48-3.54,6.3,15.49h7.1L113.44,24,123.45,0h-8L108,20.71V0H100.8V48.84H108Z"/><path class="a" d="M49.71,77.58h-8v-22H34.43v51.65h7.28v-23h8v23H57V55.58H49.71Z"/><path class="a" d="M64.48,55.58l.19,51.56H71.8l-.19-51.56Z"/><path class="a" d="M82.76,55.58H79.33v51.56h7.13V84.46h9.27V77.38H86.46V62.69h10V55.58Z"/><path class="a" d="M124.07,55.41H100.8v7.11h7.48v44.71h7.06V62.52h8.73Z"/><path class="a" d="M20.35,54.88h-5.6a7.81,7.81,0,0,0-7.81,7.81v9.94s-.35,3.91,4,7.51a86.06,86.06,0,0,0,7.77,5.79s2.6,1.14,2.6,3.1V99.59h0a1.57,1.57,0,0,1-1.57,1.58H15.39a1.54,1.54,0,0,1-1.57-1.51v-13H6.94v13.51h0A7.81,7.81,0,0,0,14.75,108h5.6a7.81,7.81,0,0,0,7.81-7.81h0V87.26A8.09,8.09,0,0,0,25.09,82c-2.73-2-8.27-6.1-8.27-6.1s-3-1.74-3-3.3V63.29a1.53,1.53,0,0,1,1.5-1.57H19.7a1.57,1.57,0,0,1,1.58,1.57V74.72h6.88v-12A7.81,7.81,0,0,0,20.35,54.88Z"/><path class="c" d="M11.27,48.84h6.34V6.19h7.27V0H4V6.19h7.27Z"/><path class="c" d="M37.26,27.21h7V48.84h7V0h-7V20.67h-7V0H30.44V48.84h6.82Z"/><rect class="c" x="58.41" width="6.82" height="48.83"/><path class="c" d="M86.15,48.8H94V0H87.83V31.2L81,0H72.44V48.8h6.17V18.69Z"/><path class="c" d="M108,36.88l1.48-3.54,6.3,15.49h7.1L113.44,24,123.45,0h-8L108,20.71V0H100.8V48.84H108Z"/><path class="c" d="M49.71,77.58h-8v-22H34.43v51.65h7.28v-23h8v23H57V55.58H49.71Z"/><path class="c" d="M64.48,55.58l.19,51.56H71.8l-.19-51.56Z"/><path class="c" d="M82.76,55.58H79.33v51.56h7.13V84.46h9.27V77.38H86.46V62.69h10V55.58Z"/><path class="c" d="M124.07,55.41H100.8v7.11h7.48v44.71h7.06V62.52h8.73Z"/><path class="c" d="M20.35,54.88h-5.6a7.81,7.81,0,0,0-7.81,7.81v9.94s-.35,3.91,4,7.51a86.06,86.06,0,0,0,7.77,5.79s2.6,1.14,2.6,3.1V99.59h0a1.57,1.57,0,0,1-1.57,1.58H15.39a1.54,1.54,0,0,1-1.57-1.51v-13H6.94v13.51h0A7.81,7.81,0,0,0,14.75,108h5.6a7.81,7.81,0,0,0,7.81-7.81h0V87.26A8.09,8.09,0,0,0,25.09,82c-2.73-2-8.27-6.1-8.27-6.1s-3-1.74-3-3.3V63.29a1.53,1.53,0,0,1,1.5-1.57H19.7a1.57,1.57,0,0,1,1.58,1.57V74.72h6.88v-12A7.81,7.81,0,0,0,20.35,54.88Z"/></svg>